<svg width="141" height="18" viewBox="0 0 141 18" fill="none" xmlns="http://www.w3.org/2000/svg">
    <path d="M12.8305 0.33897V4.06764H8.47236V17.2875H4.59842V4.06764H0.240234V0.33897H12.8305Z" fill="#1E6AFF"/>
    <path d="M15.4744 12.6872C15.8941 13.8171 16.8626 14.382 18.3798 14.382C19.3645 14.382 20.1393 14.0753 20.7042 13.4619L23.6097 15.1326C22.4152 16.7951 20.6558 17.6264 18.3314 17.6264C16.2976 17.6264 14.6673 17.0211 13.4406 15.8105C12.23 14.5999 11.6247 13.0746 11.6247 11.2344C11.6247 9.41045 12.2219 7.89315 13.4164 6.68255C14.627 5.4558 16.1765 4.84243 18.0651 4.84243C19.8245 4.84243 21.2853 5.4558 22.4475 6.68255C23.6258 7.89315 24.215 9.41045 24.215 11.2344C24.215 11.751 24.1665 12.2352 24.0697 12.6872H15.4744ZM15.4018 9.9754H20.6074C20.2523 8.70022 19.3968 8.06264 18.0409 8.06264C16.6366 8.06264 15.7569 8.70022 15.4018 9.9754Z" fill="#1E6AFF"/>
    <path d="M34.9457 5.1814H38.5775V17.2875H34.9457V16.1495C34.0902 17.1341 32.8876 17.6264 31.3381 17.6264C29.7401 17.6264 28.3761 17.0131 27.2462 15.7863C26.1163 14.5434 25.5514 13.0261 25.5514 11.2344C25.5514 9.44273 26.1163 7.93351 27.2462 6.70676C28.3761 5.46387 29.7401 4.84243 31.3381 4.84243C32.8876 4.84243 34.0902 5.33474 34.9457 6.31937V5.1814ZM29.9822 13.3893C30.5149 13.922 31.2089 14.1883 32.0644 14.1883C32.9199 14.1883 33.614 13.922 34.1467 13.3893C34.6793 12.8566 34.9457 12.1383 34.9457 11.2344C34.9457 10.3305 34.6793 9.61222 34.1467 9.07955C33.614 8.54688 32.9199 8.28055 32.0644 8.28055C31.2089 8.28055 30.5149 8.54688 29.9822 9.07955C29.4495 9.61222 29.1832 10.3305 29.1832 11.2344C29.1832 12.1383 29.4495 12.8566 29.9822 13.3893Z" fill="#1E6AFF"/>
    <path d="M47.0529 17.6264C45.2127 17.6264 43.6793 17.0131 42.4526 15.7863C41.242 14.5596 40.6367 13.0423 40.6367 11.2344C40.6367 9.42659 41.242 7.9093 42.4526 6.68255C43.6793 5.4558 45.2127 4.84243 47.0529 4.84243C48.2151 4.84243 49.2804 5.1249 50.2489 5.68985C51.2335 6.2548 51.9921 7.00538 52.5248 7.94158L49.353 9.7817C48.9172 8.87778 48.1343 8.42582 47.0044 8.42582C46.2135 8.42582 45.5598 8.69215 45.0433 9.22482C44.5267 9.74135 44.2685 10.4112 44.2685 11.2344C44.2685 12.0576 44.5267 12.7356 45.0433 13.2682C45.5598 13.7848 46.2135 14.043 47.0044 14.043C48.1505 14.043 48.9333 13.5911 49.353 12.6872L52.5248 14.5031C51.9921 15.4554 51.2416 16.2141 50.2731 16.779C49.3046 17.344 48.2312 17.6264 47.0529 17.6264Z" fill="#1E6AFF"/>
    <path d="M61.0806 4.84243C62.3719 4.84243 63.4453 5.28632 64.3008 6.17409C65.1724 7.06187 65.6082 8.28862 65.6082 9.85434V17.2875H61.9764V10.387C61.9764 9.67678 61.7747 9.13604 61.3711 8.76479C60.9837 8.3774 60.4833 8.1837 59.87 8.1837C59.1759 8.1837 58.6271 8.39354 58.2235 8.81321C57.82 9.23289 57.6182 9.85434 57.6182 10.6776V17.2875H53.9864V0.33897H57.6182V6.31937C58.3446 5.33474 59.4987 4.84243 61.0806 4.84243Z" fill="#1E6AFF"/>
    <path d="M71.3467 12.6872C71.7664 13.8171 72.7349 14.382 74.2522 14.382C75.2368 14.382 76.0116 14.0753 76.5765 13.4619L79.482 15.1326C78.2875 16.7951 76.5281 17.6264 74.2037 17.6264C72.1699 17.6264 70.5396 17.0211 69.3129 15.8105C68.1023 14.5999 67.497 13.0746 67.497 11.2344C67.497 9.41045 68.0942 7.89315 69.2887 6.68255C70.4993 5.4558 72.0489 4.84243 73.9374 4.84243C75.6968 4.84243 77.1576 5.4558 78.3198 6.68255C79.4981 7.89315 80.0873 9.41045 80.0873 11.2344C80.0873 11.751 80.0389 12.2352 79.942 12.6872H71.3467ZM71.2741 9.9754H76.4797C76.1246 8.70022 75.2691 8.06264 73.9132 8.06264C72.5089 8.06264 71.6292 8.70022 71.2741 9.9754Z" fill="#1E6AFF"/>
    <path d="M85.779 7.33628C86.005 6.56149 86.457 5.97233 87.1349 5.56879C87.829 5.14911 88.5876 4.93927 89.4109 4.93927V9.05534C88.5231 8.91006 87.6918 9.06341 86.917 9.51537C86.1584 9.95119 85.779 10.7179 85.779 11.8155V17.2875H82.1472V5.1814H85.779V7.33628Z" fill="#1E6AFF"/>
    <path d="M99.3165 17.6264C96.7822 17.6264 94.6758 16.7871 92.9971 15.1084C91.3345 13.4135 90.5032 11.3151 90.5032 8.81321C90.5032 6.3113 91.3345 4.22098 92.9971 2.54227C94.6758 0.847425 96.7822 0 99.3165 0C100.834 0 102.238 0.355111 103.529 1.06533C104.821 1.75942 105.838 2.71176 106.58 3.92236L103.239 5.85934C102.868 5.19754 102.335 4.68908 101.641 4.33397C100.947 3.96272 100.172 3.77709 99.3165 3.77709C97.8153 3.77709 96.6128 4.23712 95.7088 5.15718C94.8211 6.07724 94.3772 7.29592 94.3772 8.81321C94.3772 10.3305 94.8211 11.5492 95.7088 12.4692C96.6128 13.3893 97.8153 13.8493 99.3165 13.8493C100.172 13.8493 100.947 13.6637 101.641 13.2925C102.351 12.9212 102.884 12.4128 103.239 11.7671L106.58 13.7041C105.854 14.9147 104.845 15.8751 103.554 16.5853C102.262 17.2794 100.85 17.6264 99.3165 17.6264Z" fill="#1E6AFF"/>
    <path d="M117.306 17.2875L114.11 11.7187H112.27V17.2875H108.396V0.33897H115.175C116.789 0.33897 118.161 0.903919 119.291 2.03382C120.421 3.16372 120.986 4.53574 120.986 6.14988C120.986 7.18293 120.695 8.14335 120.114 9.03112C119.549 9.90276 118.799 10.5807 117.863 11.0649L121.47 17.2875H117.306ZM112.27 3.97079V8.32897H115.175C115.708 8.32897 116.16 8.11913 116.531 7.69946C116.918 7.27978 117.112 6.76325 117.112 6.14988C117.112 5.53651 116.918 5.01998 116.531 4.6003C116.16 4.18063 115.708 3.97079 115.175 3.97079H112.27Z" fill="#1E6AFF"/>
    <path d="M140.24 0.33897V17.2875H136.366V7.43312L131.984 14.6241H131.548L127.166 7.43312V17.2875H123.292V0.33897H127.166L131.766 7.86894L136.366 0.33897H140.24Z" fill="#1E6AFF"/>
</svg>
