<svg width="17" height="16" viewBox="0 0 17 16" fill="none" xmlns="http://www.w3.org/2000/svg">
<path fill-rule="evenodd" clip-rule="evenodd" d="M4.37693 8.00008C4.37693 8.73646 3.77998 9.33341 3.0436 9.33341C2.30722 9.33341 1.71027 8.73646 1.71027 8.00008C1.71027 7.2637 2.30722 6.66675 3.0436 6.66675C3.77998 6.66675 4.37693 7.2637 4.37693 8.00008ZM9.71027 8.00008C9.71027 8.73646 9.11331 9.33341 8.37693 9.33341C7.64055 9.33341 7.0436 8.73646 7.0436 8.00008C7.0436 7.2637 7.64055 6.66675 8.37693 6.66675C9.11331 6.66675 9.71027 7.2637 9.71027 8.00008ZM13.7103 9.33341C14.4466 9.33341 15.0436 8.73646 15.0436 8.00008C15.0436 7.2637 14.4466 6.66675 13.7103 6.66675C12.9739 6.66675 12.3769 7.2637 12.3769 8.00008C12.3769 8.73646 12.9739 9.33341 13.7103 9.33341Z" fill="#141736"/>
</svg>
