<svg width="17" height="16" viewBox="0 0 17 16" fill="none" xmlns="http://www.w3.org/2000/svg">
<path fill-rule="evenodd" clip-rule="evenodd" d="M5.77927 2.33325C3.9906 2.33325 2.83527 3.42325 2.83527 5.10992V10.8893C2.83527 12.5759 3.9906 13.6666 5.77927 13.6666H11.2246C13.0133 13.6666 14.1686 12.5759 14.1686 10.8893V5.10992C14.1686 3.42325 13.0133 2.33325 11.2246 2.33325H5.77927ZM11.2246 14.6666H5.77927C3.4206 14.6666 1.83527 13.1486 1.83527 10.8893V5.10992C1.83527 2.85059 3.4206 1.33325 5.77927 1.33325H11.2246C13.5833 1.33325 15.1686 2.85059 15.1686 5.10992V10.8893C15.1686 13.1486 13.5833 14.6666 11.2246 14.6666V14.6666Z" fill="#141736"/>
<path fill-rule="evenodd" clip-rule="evenodd" d="M11.2259 8.5H5.77789C5.50189 8.5 5.27789 8.276 5.27789 8C5.27789 7.724 5.50189 7.5 5.77789 7.5H11.2259C11.5019 7.5 11.7259 7.724 11.7259 8C11.7259 8.276 11.5019 8.5 11.2259 8.5" fill="#141736"/>
<path fill-rule="evenodd" clip-rule="evenodd" d="M8.71681 10.9986C8.58881 10.9986 8.46014 10.95 8.36281 10.8513C8.16814 10.6553 8.16881 10.3393 8.36414 10.1446L10.5175 7.99997L8.36414 5.8553C8.16881 5.66063 8.16814 5.34463 8.36281 5.14863C8.55748 4.95263 8.87348 4.95263 9.06948 5.1473L11.5788 7.64597C11.6735 7.7393 11.7261 7.8673 11.7261 7.99997C11.7261 8.13263 11.6735 8.26063 11.5788 8.35397L9.06948 10.8526C8.97214 10.95 8.84414 10.9986 8.71681 10.9986" fill="#141736"/>
</svg>
