<svg width="16" height="16" viewBox="0 0 16 16" fill="none" xmlns="http://www.w3.org/2000/svg">
<path fill-rule="evenodd" clip-rule="evenodd" d="M7.99998 2.3335C4.87531 2.3335 2.33331 4.8755 2.33331 8.00016C2.33331 11.1248 4.87531 13.6668 7.99998 13.6668C11.1246 13.6668 13.6666 11.1248 13.6666 8.00016C13.6666 4.8755 11.1246 2.3335 7.99998 2.3335ZM7.99998 14.6668C4.32398 14.6668 1.33331 11.6762 1.33331 8.00016C1.33331 4.32416 4.32398 1.3335 7.99998 1.3335C11.676 1.3335 14.6666 4.32416 14.6666 8.00016C14.6666 11.6762 11.676 14.6668 7.99998 14.6668Z" fill="#141736"/>
<path fill-rule="evenodd" clip-rule="evenodd" d="M10.3145 9.46166C10.1865 9.46166 10.0578 9.41299 9.96048 9.31432L7.99981 7.34566L6.04048 9.31432C5.84581 9.51032 5.52914 9.51032 5.33314 9.31566C5.13781 9.12099 5.13648 8.80499 5.33181 8.60899L7.64581 6.28432C7.83314 6.09566 8.16648 6.09566 8.35448 6.28432L10.6685 8.60899C10.8631 8.80499 10.8625 9.12099 10.6671 9.31566C10.5698 9.41299 10.4418 9.46166 10.3145 9.46166Z" fill="#141736"/>
</svg>
