<svg width="17" height="16" viewBox="0 0 17 16" fill="none" xmlns="http://www.w3.org/2000/svg">
<path fill-rule="evenodd" clip-rule="evenodd" d="M8.24992 2.3335C5.12525 2.3335 2.58325 4.8755 2.58325 8.00016C2.58325 11.1248 5.12525 13.6668 8.24992 13.6668C11.3746 13.6668 13.9166 11.1248 13.9166 8.00016C13.9166 4.8755 11.3746 2.3335 8.24992 2.3335ZM8.24992 14.6668C4.57392 14.6668 1.58325 11.6762 1.58325 8.00016C1.58325 4.32416 4.57392 1.3335 8.24992 1.3335C11.9259 1.3335 14.9166 4.32416 14.9166 8.00016C14.9166 11.6762 11.9259 14.6668 8.24992 14.6668Z" fill="#141736"/>
<path fill-rule="evenodd" clip-rule="evenodd" d="M8.24599 8.91548C7.96999 8.91548 7.74599 8.69148 7.74599 8.41548V5.46948C7.74599 5.19348 7.96999 4.96948 8.24599 4.96948C8.52199 4.96948 8.74599 5.19348 8.74599 5.46948V8.41548C8.74599 8.69148 8.52199 8.91548 8.24599 8.91548Z" fill="#141736"/>
<path fill-rule="evenodd" clip-rule="evenodd" d="M8.25252 11.1973C7.88385 11.1973 7.58252 10.8993 7.58252 10.5307C7.58252 10.162 7.87785 9.86401 8.24585 9.86401H8.25252C8.62119 9.86401 8.91919 10.162 8.91919 10.5307C8.91919 10.8993 8.62119 11.1973 8.25252 11.1973Z" fill="#141736"/>
</svg>
