<svg width="16" height="16" viewBox="0 0 16 16" fill="none" xmlns="http://www.w3.org/2000/svg">
<path d="M13.5001 8.18286C13.5001 8.43599 13.312 8.64519 13.0679 8.6783L13.0001 8.68286L3.00006 8.68286C2.72392 8.68286 2.50006 8.459 2.50006 8.18286C2.50006 7.92973 2.68816 7.72053 2.93221 7.68743L3.00006 7.68286L13.0001 7.68286C13.2762 7.68286 13.5001 7.90672 13.5001 8.18286Z" fill="#141736"/>
<path d="M7.38606 11.8449C7.58174 12.0397 7.58242 12.3563 7.38758 12.552C7.21045 12.7299 6.93271 12.7466 6.73666 12.6018L6.68047 12.5535L2.64714 8.53748C2.46872 8.35983 2.45248 8.08108 2.59845 7.88504L2.64711 7.82889L6.68044 3.81222C6.87611 3.61736 7.19269 3.61802 7.38755 3.81368C7.56469 3.99156 7.58025 4.26937 7.43461 4.46481L7.38608 4.52079L3.70873 8.18337L7.38606 11.8449Z" fill="#141736"/>
</svg>
