<svg width="17" height="16" viewBox="0 0 17 16" fill="none" xmlns="http://www.w3.org/2000/svg">
<path d="M13.1759 7.17518H10.3024V4.40004H9.26174C9.58387 3.97001 9.75695 3.44665 9.75473 2.90935C9.75473 2.11034 9.37665 1.35958 8.76802 0.950103L8.50982 0.776367L8.25165 0.950103C7.64291 1.35964 7.26494 2.11037 7.26494 2.90935C7.26277 3.44665 7.4359 3.97 7.75808 4.40001H6.60223V7.17515H3.5785C3.13398 7.17565 2.70781 7.35246 2.39349 7.66678C2.07917 7.98111 1.90236 8.40728 1.90186 8.8518V14.0533C1.90213 14.2985 1.99968 14.5337 2.1731 14.7071C2.34652 14.8805 2.58165 14.978 2.8269 14.9783H13.9275C14.1727 14.978 14.4078 14.8805 14.5813 14.7071C14.7547 14.5337 14.8522 14.2985 14.8525 14.0533V8.85182C14.852 8.4073 14.6752 7.98114 14.3609 7.66681C14.0466 7.35249 13.6204 7.17568 13.1759 7.17518ZM8.50982 1.95661C8.71189 2.20765 8.82968 2.54824 8.82968 2.90938C8.82968 3.27052 8.71189 3.61114 8.50982 3.86215C8.30779 3.61114 8.18999 3.27052 8.18999 2.90935C8.18999 2.54818 8.30779 2.20765 8.50982 1.95661ZM7.52728 5.32508H9.37737V7.17518H7.52728V5.32508ZM2.8269 8.85182C2.82713 8.65256 2.90639 8.46152 3.04729 8.32062C3.1882 8.17971 3.37924 8.10045 3.5785 8.10022H13.1759C13.3751 8.10045 13.5662 8.17971 13.7071 8.32062C13.848 8.46152 13.9272 8.65256 13.9275 8.85182V9.76464L13.3031 10.0402C13.1809 10.0939 13.049 10.1216 12.9156 10.1216C12.7821 10.1216 12.6502 10.0939 12.5281 10.0402L11.4414 9.56067L10.3545 10.0401C10.2323 10.0939 10.1004 10.1216 9.96696 10.1216C9.83354 10.1216 9.70158 10.0939 9.57946 10.0401L8.49282 9.56064L7.40588 10.0401C7.28376 10.0938 7.1518 10.1216 7.01838 10.1216C6.88495 10.1216 6.75299 10.0938 6.63087 10.0401L5.54423 9.56067L4.4575 10.0401C4.33538 10.0938 4.20342 10.1216 4.06999 10.1216C3.93657 10.1216 3.8046 10.0938 3.68248 10.0401L2.8269 9.66269V8.85182ZM13.9275 14.0533H2.8269V10.6738L3.30903 10.8865C3.54882 10.992 3.80795 11.0465 4.06993 11.0465C4.33192 11.0465 4.59104 10.992 4.83084 10.8865L5.54423 10.5717L6.25764 10.8865C6.49744 10.992 6.75655 11.0465 7.01854 11.0465C7.28052 11.0465 7.53964 10.992 7.77943 10.8865L8.49282 10.5717L9.20617 10.8865C9.44596 10.992 9.70507 11.0465 9.96705 11.0465C10.229 11.0465 10.4881 10.992 10.7279 10.8865L11.4414 10.5717L12.1548 10.8865C12.3946 10.992 12.6537 11.0465 12.9157 11.0465C13.1776 11.0465 13.4367 10.992 13.6765 10.8865L13.9278 10.7756L13.9275 14.0533Z" fill="#141736"/>
</svg>
