<svg width="17" height="16" viewBox="0 0 17 16" fill="none" xmlns="http://www.w3.org/2000/svg">
<path fill-rule="evenodd" clip-rule="evenodd" d="M10.9456 0.666748C11.2216 0.666748 11.4456 0.890748 11.4456 1.16675L11.4459 1.73196C12.4193 1.79869 13.2278 2.13211 13.8 2.70548C14.4246 3.33281 14.7533 4.23481 14.75 5.31681V11.3988C14.75 13.6201 13.3393 15.0001 11.0693 15.0001H5.43064C3.16064 15.0001 1.74997 13.6008 1.74997 11.3481V5.31548C1.74997 3.22028 3.00801 1.87537 5.05976 1.73218L5.06017 1.16675C5.06017 0.890748 5.28417 0.666748 5.56017 0.666748C5.83617 0.666748 6.06017 0.890748 6.06017 1.16675L6.05997 1.71941H10.4453L10.4456 1.16675C10.4456 0.890748 10.6696 0.666748 10.9456 0.666748ZM13.75 6.60275H2.74997V11.3481C2.74997 13.0588 3.70197 14.0001 5.43064 14.0001H11.0693C12.798 14.0001 13.75 13.0761 13.75 11.3988L13.75 6.60275ZM11.2174 10.7976C11.4934 10.7976 11.7174 11.0216 11.7174 11.2976C11.7174 11.5736 11.4934 11.7976 11.2174 11.7976C10.9414 11.7976 10.7148 11.5736 10.7148 11.2976C10.7148 11.0216 10.9354 10.7976 11.2114 10.7976H11.2174ZM8.2591 10.7976C8.5351 10.7976 8.7591 11.0216 8.7591 11.2976C8.7591 11.5736 8.5351 11.7976 8.2591 11.7976C7.9831 11.7976 7.75644 11.5736 7.75644 11.2976C7.75644 11.0216 7.9771 10.7976 8.2531 10.7976H8.2591ZM5.29457 10.7976C5.57057 10.7976 5.79457 11.0216 5.79457 11.2976C5.79457 11.5736 5.57057 11.7976 5.29457 11.7976C5.01857 11.7976 4.79124 11.5736 4.79124 11.2976C4.79124 11.0216 5.01257 10.7976 5.28857 10.7976H5.29457ZM11.2174 8.20648C11.4934 8.20648 11.7174 8.43048 11.7174 8.70648C11.7174 8.98248 11.4934 9.20648 11.2174 9.20648C10.9414 9.20648 10.7148 8.98248 10.7148 8.70648C10.7148 8.43048 10.9354 8.20648 11.2114 8.20648H11.2174ZM8.2591 8.20648C8.5351 8.20648 8.7591 8.43048 8.7591 8.70648C8.7591 8.98248 8.5351 9.20648 8.2591 9.20648C7.9831 9.20648 7.75644 8.98248 7.75644 8.70648C7.75644 8.43048 7.9771 8.20648 8.2531 8.20648H8.2591ZM5.29457 8.20648C5.57057 8.20648 5.79457 8.43048 5.79457 8.70648C5.79457 8.98248 5.57057 9.20648 5.29457 9.20648C5.01857 9.20648 4.79124 8.98248 4.79124 8.70648C4.79124 8.43048 5.01257 8.20648 5.28857 8.20648H5.29457ZM10.4453 2.71941H6.05997L6.06017 3.36075C6.06017 3.63675 5.83617 3.86075 5.56017 3.86075C5.28417 3.86075 5.06017 3.63675 5.06017 3.36075L5.05981 2.73455C3.56633 2.86001 2.74997 3.76532 2.74997 5.31548V5.60275H13.75L13.75 5.31548C13.7526 4.49215 13.5313 3.85215 13.092 3.41215C12.7063 3.02535 12.1425 2.79435 11.4462 2.73487L11.4456 3.36075C11.4456 3.63675 11.2216 3.86075 10.9456 3.86075C10.6696 3.86075 10.4456 3.63675 10.4456 3.36075L10.4453 2.71941Z" fill="#141736"/>
</svg>
