<svg width="17" height="16" viewBox="0 0 17 16" fill="none" xmlns="http://www.w3.org/2000/svg">
<path d="M11.3516 3.86401C11.6047 3.86401 11.8139 4.05212 11.847 4.29617L11.8516 4.36401V13.4425C11.8516 13.7187 11.6277 13.9425 11.3516 13.9425C11.0984 13.9425 10.8892 13.7544 10.8561 13.5104L10.8516 13.4425V4.36401C10.8516 4.08787 11.0754 3.86401 11.3516 3.86401Z" fill="#141736"/>
<path d="M13.7156 10.3592C13.9105 10.1635 14.227 10.1627 14.4227 10.3575C14.6007 10.5346 14.6174 10.8124 14.4727 11.0085L14.4244 11.0646L11.7059 13.7958C11.5282 13.9743 11.2493 13.9905 11.0533 13.8444L10.9971 13.7958L8.27861 11.0646C8.08379 10.8689 8.08453 10.5524 8.28024 10.3575C8.45816 10.1804 8.73597 10.1649 8.93138 10.3106L8.98734 10.3592L11.3512 12.7338L13.7156 10.3592Z" fill="#141736"/>
<path d="M4.7326 2.05518C4.98574 2.05518 5.19493 2.24328 5.22804 2.48733L5.2326 2.55518V11.6337C5.2326 11.9098 5.00875 12.1337 4.7326 12.1337C4.47947 12.1337 4.27028 11.9456 4.23717 11.7015L4.2326 11.6337V2.55518C4.2326 2.27903 4.45646 2.05518 4.7326 2.05518Z" fill="#141736"/>
<path d="M4.37831 2.20195C4.55599 2.02345 4.83482 2.00722 5.03089 2.15327L5.08705 2.20195L7.80557 4.93306C8.00038 5.12878 7.99965 5.44536 7.80393 5.64017C7.62601 5.81727 7.3482 5.83276 7.15279 5.68708L7.09683 5.63853L4.73253 3.26313L2.36853 5.63853C2.19143 5.81646 1.91369 5.83323 1.71762 5.68845L1.66142 5.64017C1.4835 5.46307 1.46672 5.18533 1.61151 4.98925L1.65979 4.93306L4.37831 2.20195Z" fill="#141736"/>
</svg>
