<svg width="17" height="16" viewBox="0 0 17 16" fill="none" xmlns="http://www.w3.org/2000/svg">
<path d="M6.81045 11.9999C6.71904 11.9996 6.62867 11.9806 6.54494 11.9439C6.46122 11.9072 6.38594 11.8536 6.32378 11.7866L3.08378 8.33994C2.96267 8.21087 2.89779 8.03897 2.90341 7.86206C2.90904 7.68515 2.98471 7.51772 3.11378 7.39661C3.24286 7.27549 3.41476 7.21061 3.59166 7.21624C3.76857 7.22186 3.936 7.29753 4.05712 7.42661L6.80378 10.3533L12.4105 4.21994C12.4673 4.14909 12.5381 4.09062 12.6184 4.04812C12.6988 4.00562 12.7869 3.97998 12.8775 3.97279C12.9681 3.9656 13.0592 3.97701 13.1452 4.00631C13.2312 4.03561 13.3103 4.08218 13.3777 4.14317C13.4451 4.20416 13.4993 4.27828 13.5369 4.36097C13.5746 4.44366 13.595 4.53318 13.5968 4.62403C13.5986 4.71488 13.5818 4.80515 13.5475 4.88928C13.5132 4.97341 13.462 5.04964 13.3971 5.11327L7.30378 11.7799C7.24221 11.8482 7.16719 11.9029 7.08344 11.9408C6.99969 11.9787 6.90902 11.9988 6.81712 11.9999H6.81045Z" fill="#141736"/>
</svg>
