<svg width="17" height="16" viewBox="0 0 17 16" fill="none" xmlns="http://www.w3.org/2000/svg">
<path fill-rule="evenodd" clip-rule="evenodd" d="M6.19245 4.20239C6.17111 4.20239 6.14978 4.20506 6.12845 4.21039C4.14845 4.69773 2.53778 6.84306 2.53778 8.99239C2.53778 11.6964 4.73778 13.8964 7.44245 13.8964C9.88045 13.8964 11.9178 12.1597 12.2871 9.76639C12.2898 9.74639 12.2991 9.68839 12.2444 9.62373C12.1924 9.56306 12.1098 9.52706 12.0231 9.52706C11.0824 9.52706 10.3644 9.54839 9.80378 9.56439C8.44645 9.60506 7.88511 9.62039 7.33045 9.20906C6.49445 8.58973 6.42378 7.52573 6.42378 4.39639C6.42378 4.34039 6.39978 4.29373 6.35178 4.25639C6.30711 4.22106 6.25045 4.20239 6.19245 4.20239ZM7.44245 14.8963C4.18645 14.8963 1.53778 12.2477 1.53778 8.99233C1.53778 6.411 3.48978 3.82967 5.88911 3.239C6.26378 3.14767 6.66645 3.233 6.96911 3.469C7.25778 3.69567 7.42378 4.03367 7.42378 4.39633C7.42378 7.31967 7.52245 8.10633 7.92578 8.40567C8.19045 8.601 8.55311 8.599 9.77511 8.565C10.3431 8.54833 11.0704 8.527 12.0231 8.527C12.4031 8.527 12.7611 8.68967 13.0038 8.973C13.2291 9.23633 13.3278 9.58033 13.2758 9.919C12.8304 12.8023 10.3771 14.8963 7.44245 14.8963Z" fill="#141736"/>
<mask id="mask0_1403_2470" style="mask-type:alpha" maskUnits="userSpaceOnUse" x="8" y="0" width="8" height="8">
<path fill-rule="evenodd" clip-rule="evenodd" d="M8.5202 0.666992H15.4662V7.52653H8.5202V0.666992Z" fill="white"/>
</mask>
<g mask="url(#mask0_1403_2470)">
<path fill-rule="evenodd" clip-rule="evenodd" d="M9.54469 1.66797C9.47135 3.3473 9.58002 5.51664 9.63069 6.37597C9.63335 6.4273 9.67069 6.46464 9.72135 6.4673C10.4067 6.50664 12.768 6.61597 14.466 6.36597C14.47 5.42997 13.8294 4.16064 12.8647 3.19664C11.8754 2.20864 10.7047 1.66797 9.55935 1.66797H9.54469ZM11.7474 7.52658C10.874 7.52658 10.1054 7.49124 9.66337 7.46591C9.10737 7.43324 8.6647 6.98991 8.6327 6.43391C8.5807 5.55258 8.46804 3.31324 8.54804 1.58124C8.57004 1.07791 8.9767 0.677242 9.47404 0.668576C10.8987 0.627242 12.3687 1.28858 13.5714 2.48924C14.7434 3.66058 15.4874 5.19991 15.466 6.41124C15.458 6.88391 15.1147 7.27858 14.6507 7.34858C13.7454 7.48524 12.6854 7.52658 11.7474 7.52658Z" fill="#141736"/>
</g>
</svg>
