<svg width="17" height="16" viewBox="0 0 17 16" fill="none" xmlns="http://www.w3.org/2000/svg">
<path fill-rule="evenodd" clip-rule="evenodd" d="M8.74254 1.33325C12.5512 1.33325 15.6499 4.43192 15.6499 8.24059C15.6499 12.0493 12.5512 15.1479 8.74254 15.1479C4.93387 15.1479 1.83521 12.0493 1.83521 8.24059C1.83521 4.43192 4.93387 1.33325 8.74254 1.33325ZM8.74254 2.33325C5.48521 2.33325 2.83521 4.98392 2.83521 8.24059C2.83521 11.4979 5.48521 14.1479 8.74254 14.1479C11.9999 14.1479 14.6499 11.4979 14.6499 8.24059C14.6499 4.98392 11.9999 2.33325 8.74254 2.33325ZM11.3236 5.65985C11.4549 5.79185 11.5029 5.98585 11.4469 6.16252L10.3856 9.55519C10.3369 9.71185 10.2136 9.83452 10.0576 9.88319L6.66494 10.9452C6.6156 10.9605 6.56494 10.9679 6.5156 10.9679C6.38494 10.9679 6.25694 10.9165 6.1616 10.8219C6.03027 10.6899 5.98227 10.4959 6.03827 10.3192L7.10027 6.92652C7.14894 6.76919 7.27161 6.64719 7.42761 6.59852L10.8203 5.53652C10.9983 5.47985 11.1916 5.52852 11.3236 5.65985ZM10.2076 6.77585L7.97627 7.47452L7.27827 9.70585L9.50894 9.00718L10.2076 6.77585Z" fill="#141736"/>
</svg>
