<svg width="17" height="16" viewBox="0 0 17 16" fill="none" xmlns="http://www.w3.org/2000/svg">
<path fill-rule="evenodd" clip-rule="evenodd" d="M13.6435 2.39547C13.8388 2.59073 13.8585 2.88762 13.6875 3.0586L3.18114 13.565C3.01017 13.7359 2.71327 13.7162 2.51801 13.521C2.32275 13.3257 2.30306 13.0288 2.47403 12.8578L12.9804 2.35149C13.1514 2.18052 13.4483 2.20021 13.6435 2.39547Z" fill="#141736"/>
<path fill-rule="evenodd" clip-rule="evenodd" d="M13.735 13.521C13.5397 13.7162 13.2428 13.7359 13.0718 13.5649L2.56219 3.0553C2.39122 2.88433 2.41091 2.58743 2.60617 2.39217C2.80143 2.19691 3.09833 2.17722 3.2693 2.34819L13.7789 12.8578C13.9499 13.0288 13.9302 13.3257 13.735 13.521Z" fill="#141736"/>
</svg>
