<svg width="17" height="16" viewBox="0 0 17 16" fill="none" xmlns="http://www.w3.org/2000/svg">
<mask id="mask0_1403_2466" style="mask-type:alpha" maskUnits="userSpaceOnUse" x="1" y="1" width="15" height="15">
<path fill-rule="evenodd" clip-rule="evenodd" d="M1.60309 1.33325H15.4008V15.1125H1.60309V1.33325Z" fill="white"/>
</mask>
<g mask="url(#mask0_1403_2466)">
<path fill-rule="evenodd" clip-rule="evenodd" d="M5.36484 2.33325C3.42884 2.33325 2.60284 3.31725 2.60284 5.62192V10.8213C2.60284 12.9439 3.77484 14.1126 5.90284 14.1126H11.0908C13.2135 14.1126 14.3822 12.9439 14.3822 10.8213V10.8193L14.4008 7.50925C14.4008 5.24325 13.6235 4.35992 11.6268 4.35992H9.74018C9.10751 4.35925 8.50351 4.05725 8.12351 3.55192L7.51484 2.74259C7.32351 2.48592 7.01751 2.33392 6.69751 2.33325H5.36484ZM11.0908 15.1126H5.90278C3.25078 15.1126 1.60278 13.4679 1.60278 10.8213V5.62192C1.60278 2.77592 2.86878 1.33325 5.36478 1.33325H6.69812C7.33212 1.33392 7.93612 1.63659 8.31478 2.14259L8.92212 2.95059C9.11478 3.20659 9.42078 3.35925 9.74078 3.35992H11.6268C14.2015 3.35992 15.4008 4.67925 15.4008 7.51192L15.3821 10.8233C15.3815 13.4686 13.7375 15.1126 11.0908 15.1126Z" fill="#141736"/>
</g>
<path fill-rule="evenodd" clip-rule="evenodd" d="M11.4136 10.4751H5.59027C5.31427 10.4751 5.09027 10.2511 5.09027 9.9751C5.09027 9.6991 5.31427 9.4751 5.59027 9.4751H11.4136C11.6896 9.4751 11.9136 9.6991 11.9136 9.9751C11.9136 10.2511 11.6896 10.4751 11.4136 10.4751Z" fill="#141736"/>
</svg>
