<svg width="14" height="14" viewBox="0 0 14 14" fill="none" xmlns="http://www.w3.org/2000/svg">
<path fill-rule="evenodd" clip-rule="evenodd" d="M6.99992 1.3335C3.87525 1.3335 1.33325 3.8755 1.33325 7.00016C1.33325 10.1248 3.87525 12.6668 6.99992 12.6668C10.1246 12.6668 12.6666 10.1248 12.6666 7.00016C12.6666 3.8755 10.1246 1.3335 6.99992 1.3335ZM6.99992 13.6668C3.32392 13.6668 0.333252 10.6762 0.333252 7.00016C0.333252 3.32416 3.32392 0.333496 6.99992 0.333496C10.6759 0.333496 13.6666 3.32416 13.6666 7.00016C13.6666 10.6762 10.6759 13.6668 6.99992 13.6668Z" fill="#141736"/>
<path fill-rule="evenodd" clip-rule="evenodd" d="M7.00574 6.25127C7.28174 6.25127 7.50574 6.47527 7.50574 6.75127L7.50574 9.69727C7.50574 9.97327 7.28174 10.1973 7.00574 10.1973C6.72974 10.1973 6.50574 9.97327 6.50574 9.69727L6.50574 6.75127C6.50574 6.47527 6.72974 6.25127 7.00574 6.25127Z" fill="#141736"/>
<path fill-rule="evenodd" clip-rule="evenodd" d="M6.99919 3.9694C7.36786 3.9694 7.66919 4.2674 7.66919 4.63607C7.66919 5.00473 7.37386 5.30273 7.00586 5.30273L6.99919 5.30273C6.63052 5.30273 6.33252 5.00473 6.33252 4.63607C6.33252 4.2674 6.63052 3.9694 6.99919 3.9694Z" fill="#141736"/>
</svg>
