<svg width="17" height="16" viewBox="0 0 17 16" fill="none" xmlns="http://www.w3.org/2000/svg">
<path fill-rule="evenodd" clip-rule="evenodd" d="M8.25 13.6421C11.366 13.6421 13.8921 11.116 13.8921 7.99999C13.8921 4.88395 11.366 2.35791 8.25 2.35791C5.13397 2.35791 2.60793 4.88395 2.60793 7.99999C2.60793 11.116 5.13397 13.6421 8.25 13.6421ZM8.25 14.6421C11.9183 14.6421 14.8921 11.6683 14.8921 7.99999C14.8921 4.33167 11.9183 1.35791 8.25 1.35791C4.58168 1.35791 1.60793 4.33167 1.60793 7.99999C1.60793 11.6683 4.58168 14.6421 8.25 14.6421Z" fill="#141736"/>
<rect x="4.31691" y="3.12842" width="12.4953" height="1" transform="rotate(45 4.31691 3.12842)" fill="#141736"/>
</svg>
