<svg width="17" height="16" viewBox="0 0 17 16" fill="none" xmlns="http://www.w3.org/2000/svg">
<path fill-rule="evenodd" clip-rule="evenodd" d="M8.26173 14.6666C7.3584 14.6666 6.47773 14.6566 5.6064 14.6386C4.49173 14.6166 3.7204 13.8939 3.5944 12.7526C3.3844 10.8593 3.02506 6.3966 3.02173 6.35194C2.99906 6.0766 3.2044 5.83527 3.47973 5.81327C3.75106 5.80594 3.9964 5.9966 4.0184 6.27127C4.02173 6.3166 4.3804 10.7639 4.5884 12.6426C4.65973 13.2913 5.00973 13.6259 5.62706 13.6386C7.29373 13.6739 8.9944 13.6759 10.8277 13.6426C11.4837 13.6299 11.8384 13.3019 11.9117 12.6379C12.1184 10.7753 12.4784 6.3166 12.4824 6.27127C12.5044 5.9966 12.7477 5.8046 13.0204 5.81327C13.2957 5.83594 13.5011 6.0766 13.4791 6.35194C13.4751 6.39727 13.1137 10.8713 12.9057 12.7479C12.7764 13.9126 12.0071 14.6213 10.8457 14.6426C9.95706 14.6579 9.09973 14.6666 8.26173 14.6666Z" fill="#141736"/>
<path fill-rule="evenodd" clip-rule="evenodd" d="M13.9027 4.65942H2.59734C2.32134 4.65942 2.09734 4.43542 2.09734 4.15942C2.09734 3.88342 2.32134 3.65942 2.59734 3.65942H13.9027C14.1787 3.65942 14.4027 3.88342 14.4027 4.15942C14.4027 4.43542 14.1787 4.65942 13.9027 4.65942Z" fill="#141736"/>
<path fill-rule="evenodd" clip-rule="evenodd" d="M11.7243 4.6595C10.9656 4.6595 10.3069 4.11883 10.1576 3.37483L9.9956 2.56416C9.96161 2.44083 9.82094 2.3335 9.66094 2.3335H6.83894C6.67894 2.3335 6.53827 2.44083 6.4976 2.59483L6.34227 3.37483C6.1936 4.11883 5.53427 4.6595 4.7756 4.6595C4.4996 4.6595 4.2756 4.4355 4.2756 4.1595C4.2756 3.8835 4.4996 3.6595 4.7756 3.6595C5.0596 3.6595 5.30627 3.45683 5.36227 3.17816L5.52427 2.3675C5.68894 1.74616 6.22694 1.3335 6.83894 1.3335H9.66094C10.2729 1.3335 10.8109 1.74616 10.9689 2.3375L11.1383 3.17816C11.1936 3.45683 11.4403 3.6595 11.7243 3.6595C12.0003 3.6595 12.2243 3.8835 12.2243 4.1595C12.2243 4.4355 12.0003 4.6595 11.7243 4.6595Z" fill="#141736"/>
</svg>
