<svg width="17" height="16" viewBox="0 0 17 16" fill="none" xmlns="http://www.w3.org/2000/svg">
<path fill-rule="evenodd" clip-rule="evenodd" d="M4.31724 4.9964C4.4885 3.17965 6.32296 1.83325 8.22403 1.83325H8.27578C9.0029 1.83325 9.73947 2.0353 10.3768 2.39799C10.6168 2.53457 10.9221 2.45073 11.0586 2.21073C11.1952 1.97073 11.1114 1.66545 10.8714 1.52887C10.0897 1.08402 9.1835 0.833252 8.27578 0.833252H8.22403C5.94727 0.833252 3.55211 2.44398 3.32146 4.9046L3.32118 4.90776C3.28181 5.35847 3.28051 5.81182 3.28047 6.23702C3.17466 6.70404 2.94669 7.13732 2.61754 7.4938C2.5997 7.51313 2.5834 7.53383 2.56881 7.55573C2.2779 7.99231 2.11041 8.49797 2.08449 9.02058C2.08408 9.02883 2.08388 9.03708 2.08388 9.04534V9.18622C2.07738 9.51888 2.12848 9.84739 2.23241 10.1585C2.31993 10.4204 2.60319 10.5617 2.8651 10.4742C3.127 10.3867 3.26838 10.1035 3.18087 9.84155C3.11242 9.63668 3.07907 9.42064 3.08376 9.20207L3.08388 9.05846C3.10203 8.73314 3.2042 8.41719 3.38138 8.14028C3.82804 7.64533 4.13502 7.04258 4.27003 6.3922C4.27697 6.35877 4.28047 6.32471 4.28047 6.29057C4.28047 5.84309 4.28079 5.41484 4.31724 4.9964ZM12.3736 3.72343C12.636 3.63743 12.9184 3.78043 13.0044 4.04284C13.0944 4.31721 13.1558 4.60466 13.1847 4.90311L13.1851 4.90776C13.2068 5.1557 13.2064 5.40105 13.2056 5.62273L13.2055 5.64468C13.2047 5.85175 13.2041 6.03822 13.2157 6.22037C13.3215 6.69602 13.5514 7.13781 13.8841 7.50217C13.9004 7.51998 13.9154 7.53896 13.9289 7.55893C14.2233 7.9936 14.3918 8.49974 14.4154 9.02283C14.4158 9.03033 14.4159 9.03783 14.4159 9.04534V9.17906C14.4318 9.8804 14.1894 10.5626 13.7353 11.1007C13.7288 11.1084 13.722 11.1159 13.715 11.1233C13.133 11.7335 12.3451 12.112 11.501 12.1898C9.33754 12.4216 7.15478 12.4215 4.99131 12.1897C4.8781 12.1788 4.76591 12.1626 4.6551 12.1412C4.38397 12.0888 4.20665 11.8265 4.25903 11.5554C4.31142 11.2843 4.57368 11.107 4.84481 11.1593C4.92525 11.1749 5.00675 11.1866 5.08905 11.1944L5.09508 11.195C7.1899 11.4197 9.30345 11.4198 11.3983 11.1951L11.4063 11.1942C12.0084 11.1394 12.5676 10.8719 12.9808 10.4442C13.2736 10.0917 13.4273 9.64945 13.4161 9.19742L13.4158 9.18498L13.4159 9.05728C13.3995 8.73429 13.2974 8.42056 13.1191 8.14709C12.6736 7.64904 12.3668 7.04481 12.23 6.39328C12.2254 6.37138 12.2223 6.34919 12.2207 6.32687C12.2038 6.09468 12.2047 5.8632 12.2055 5.65348C12.2055 5.64196 12.2056 5.6305 12.2056 5.61911C12.2064 5.39421 12.206 5.1928 12.1891 4.99718C12.1673 4.77394 12.1214 4.55935 12.0542 4.35428C11.9682 4.09187 12.1112 3.80943 12.3736 3.72343Z" fill="#141736"/>
<path fill-rule="evenodd" clip-rule="evenodd" d="M6.30839 13.5101C6.52437 13.338 6.83894 13.3736 7.01102 13.5896C7.26067 13.9029 7.62928 14.1079 8.03658 14.1559C8.44397 14.2038 8.85285 14.0902 9.17251 13.8424L9.17996 13.8366L9.18002 13.8367C9.27678 13.7645 9.36361 13.6809 9.43854 13.5877C9.61163 13.3726 9.92637 13.3385 10.1415 13.5116C10.3567 13.6847 10.3908 13.9994 10.2177 14.2146C10.0906 14.3725 9.94402 14.5139 9.78144 14.6356C9.25356 15.0432 8.58388 15.2272 7.91971 15.149C7.2539 15.0707 6.64494 14.7349 6.22889 14.2127C6.05682 13.9967 6.09241 13.6822 6.30839 13.5101Z" fill="#141736"/>
<path fill-rule="evenodd" clip-rule="evenodd" d="M14.8023 1.53666C14.607 1.3414 14.2905 1.3414 14.0952 1.53666L1.8023 13.8296C1.60704 14.0248 1.60704 14.3414 1.8023 14.5367C1.99756 14.7319 2.31414 14.7319 2.50941 14.5367L14.8023 2.24377C14.9976 2.0485 14.9976 1.73192 14.8023 1.53666Z" fill="#141736"/>
</svg>
