<svg width="16" height="16" viewBox="0 0 16 16" fill="none" xmlns="http://www.w3.org/2000/svg">
<path d="M9.01569 2.0097C9.2275 2.22152 9.24675 2.55296 9.07345 2.78653L9.01569 2.85344L3.86944 7.99996L9.01569 13.1465C9.2275 13.3583 9.24675 13.6897 9.07345 13.9233L9.01569 13.9902C8.80388 14.202 8.47243 14.2213 8.23886 14.048L8.17195 13.9902L2.60356 8.42183C2.39175 8.21002 2.37249 7.87857 2.54579 7.64501L2.60356 7.57809L8.17195 2.0097C8.40494 1.77671 8.78269 1.77671 9.01569 2.0097Z" fill="#141736"/>
<path d="M13.3964 2.0097C13.6082 2.22152 13.6275 2.55296 13.4542 2.78653L13.3964 2.85344L8.25018 7.99996L13.3964 13.1465C13.6082 13.3583 13.6275 13.6897 13.4542 13.9233L13.3964 13.9902C13.1846 14.202 12.8532 14.2213 12.6196 14.048L12.5527 13.9902L6.9843 8.42183C6.77249 8.21002 6.75323 7.87857 6.92653 7.64501L6.9843 7.57809L12.5527 2.0097C12.7857 1.77671 13.1634 1.77671 13.3964 2.0097Z" fill="#141736"/>
</svg>
