<svg width="16" height="16" viewBox="0 0 16 16" fill="none" xmlns="http://www.w3.org/2000/svg">
<path d="M6.98431 2.0097C6.7725 2.22152 6.75325 2.55296 6.92655 2.78653L6.98431 2.85344L12.1306 7.99996L6.98431 13.1465C6.7725 13.3583 6.75325 13.6897 6.92655 13.9233L6.98431 13.9902C7.19612 14.202 7.52757 14.2213 7.76114 14.048L7.82805 13.9902L13.3964 8.42183C13.6082 8.21002 13.6275 7.87857 13.4542 7.64501L13.3964 7.57809L7.82805 2.0097C7.59506 1.77671 7.21731 1.77671 6.98431 2.0097Z" fill="#141736"/>
<path d="M2.60358 2.0097C2.39177 2.22152 2.37251 2.55296 2.54581 2.78653L2.60358 2.85344L7.74982 7.99996L2.60358 13.1465C2.39177 13.3583 2.37251 13.6897 2.54581 13.9233L2.60358 13.9902C2.81539 14.202 3.14684 14.2213 3.3804 14.048L3.44731 13.9902L9.0157 8.42183C9.22751 8.21002 9.24677 7.87857 9.07347 7.64501L9.0157 7.57809L3.44731 2.0097C3.21432 1.77671 2.83657 1.77671 2.60358 2.0097Z" fill="#141736"/>
</svg>
