<svg width="16" height="16" viewBox="0 0 16 16" fill="none" xmlns="http://www.w3.org/2000/svg">
<path fill-rule="evenodd" clip-rule="evenodd" d="M8.00067 11.0273C7.72467 11.0273 7.50067 10.8033 7.50067 10.5273V2.5C7.50067 2.224 7.72467 2 8.00067 2C8.27667 2 8.50067 2.224 8.50067 2.5V10.5273C8.50067 10.8033 8.27667 11.0273 8.00067 11.0273Z" fill="#141736"/>
<path fill-rule="evenodd" clip-rule="evenodd" d="M8.00071 11.0273C7.86805 11.0273 7.74005 10.9746 7.64671 10.8799L5.70271 8.92861C5.50805 8.73261 5.50871 8.41594 5.70405 8.22127C5.90005 8.02661 6.21605 8.02661 6.41071 8.22261L8.00071 9.81927L9.59071 8.22261C9.78538 8.02661 10.1014 8.02661 10.2974 8.22127C10.4927 8.41594 10.4934 8.73261 10.2987 8.92861L8.35471 10.8799C8.26138 10.9746 8.13338 11.0273 8.00071 11.0273Z" fill="#141736"/>
<mask id="mask0_3425_100142" style="mask-type:alpha" maskUnits="userSpaceOnUse" x="1" y="5" width="14" height="10">
<path fill-rule="evenodd" clip-rule="evenodd" d="M1.3335 5.15503H14.6667V14.3177H1.3335V5.15503Z" fill="white"/>
</mask>
<g mask="url(#mask0_3425_100142)">
<path fill-rule="evenodd" clip-rule="evenodd" d="M11.7168 14.3177H4.29016C2.66016 14.3177 1.3335 12.9917 1.3335 11.361V8.10436C1.3335 6.4777 2.65683 5.15503 4.28416 5.15503H4.9115C5.1875 5.15503 5.4115 5.37903 5.4115 5.65503C5.4115 5.93103 5.1875 6.15503 4.9115 6.15503H4.28416C3.20816 6.15503 2.3335 7.02903 2.3335 8.10436V11.361C2.3335 12.4404 3.21083 13.3177 4.29016 13.3177H11.7168C12.7915 13.3177 13.6668 12.4424 13.6668 11.3677V8.1117C13.6668 7.03236 12.7888 6.15503 11.7108 6.15503H11.0895C10.8135 6.15503 10.5895 5.93103 10.5895 5.65503C10.5895 5.37903 10.8135 5.15503 11.0895 5.15503H11.7108C13.3408 5.15503 14.6668 6.4817 14.6668 8.1117V11.3677C14.6668 12.9944 13.3428 14.3177 11.7168 14.3177Z" fill="#141736"/>
</g>
</svg>
