<svg width="17" height="16" viewBox="0 0 17 16" fill="none" xmlns="http://www.w3.org/2000/svg">
<path fill-rule="evenodd" clip-rule="evenodd" d="M13.9588 14.6265H9.12348C8.84748 14.6265 8.62348 14.4025 8.62348 14.1265C8.62348 13.8505 8.84748 13.6265 9.12348 13.6265H13.9588C14.2348 13.6265 14.4588 13.8505 14.4588 14.1265C14.4588 14.4025 14.2348 14.6265 13.9588 14.6265Z" fill="#141736"/>
<mask id="mask0_1374_1513" style="mask-type:alpha" maskUnits="userSpaceOnUse" x="1" y="2" width="12" height="13">
<path fill-rule="evenodd" clip-rule="evenodd" d="M1.4585 2H12.9122V14.6264H1.4585V2Z" fill="white"/>
</mask>
<g mask="url(#mask0_1374_1513)">
<path fill-rule="evenodd" clip-rule="evenodd" d="M8.86535 3.34446L2.58868 11.1945C2.47468 11.3371 2.43268 11.5211 2.47468 11.6978L2.92868 13.6211L4.95468 13.5958C5.14735 13.5938 5.32535 13.5078 5.44335 13.3611C7.58801 10.6778 11.6767 5.56179 11.7927 5.41179C11.902 5.23446 11.9447 4.98379 11.8873 4.74246C11.8287 4.49512 11.6747 4.28512 11.4527 4.15112C11.4053 4.11846 10.282 3.24646 10.2473 3.21912C9.82468 2.88046 9.20801 2.93912 8.86535 3.34446ZM2.53401 14.6264C2.30268 14.6264 2.10135 14.4678 2.04735 14.2418L1.50135 11.9278C1.38868 11.4484 1.50068 10.9538 1.80801 10.5698L8.08801 2.7151C8.09068 2.71243 8.09268 2.7091 8.09535 2.70643C8.78401 1.8831 10.0293 1.76176 10.8693 2.43576C10.9027 2.46176 12.018 3.32843 12.018 3.32843C12.4233 3.56976 12.74 4.0011 12.86 4.51176C12.9793 5.0171 12.8927 5.53843 12.6147 5.97909C12.594 6.01176 12.576 6.03976 6.22401 13.9864C5.91801 14.3678 5.45935 14.5898 4.96668 14.5958L2.54068 14.6264H2.53401Z" fill="#141736"/>
</g>
<path fill-rule="evenodd" clip-rule="evenodd" d="M10.9405 7.78983C10.8339 7.78983 10.7272 7.75583 10.6359 7.6865L7.00121 4.8945C6.78254 4.7265 6.74121 4.41316 6.90921 4.19316C7.07788 3.9745 7.39121 3.93383 7.61054 4.10183L11.2459 6.89316C11.4645 7.06116 11.5059 7.37516 11.3372 7.5945C11.2392 7.7225 11.0905 7.78983 10.9405 7.78983Z" fill="#141736"/>
</svg>
