<svg width="16" height="16" viewBox="0 0 16 16" fill="none" xmlns="http://www.w3.org/2000/svg">
<path d="M1 4C1 3.72386 1.22386 3.5 1.5 3.5H14.5C14.7761 3.5 15 3.72386 15 4C15 4.27614 14.7761 4.5 14.5 4.5H1.5C1.22386 4.5 1 4.27614 1 4Z" fill="#141736"/>
<path d="M3 8C3 7.72386 3.22386 7.5 3.5 7.5H12.5C12.7761 7.5 13 7.72386 13 8C13 8.27614 12.7761 8.5 12.5 8.5H3.5C3.22386 8.5 3 8.27614 3 8Z" fill="#141736"/>
<path d="M5 12C5 11.7239 5.22386 11.5 5.5 11.5H10.5C10.7761 11.5 11 11.7239 11 12C11 12.2761 10.7761 12.5 10.5 12.5H5.5C5.22386 12.5 5 12.2761 5 12Z" fill="#141736"/>
</svg>
