<svg width="17" height="16" viewBox="0 0 17 16" fill="none" xmlns="http://www.w3.org/2000/svg">
<path d="M5.06708 7.02738V3.12148L6.40048 4.45487C6.47893 4.53333 6.58868 4.58038 6.69855 4.58038C6.80841 4.58038 6.91815 4.53333 6.99661 4.45487C7.16917 4.28232 7.16917 4.01565 6.99661 3.8431L4.94162 1.78811C4.76906 1.61555 4.5024 1.61555 4.32985 1.78811L2.25931 3.8431C2.08675 4.01566 2.08675 4.28232 2.25931 4.45487C2.43186 4.62743 2.69853 4.62743 2.87108 4.45487L4.20447 3.12148V7.01169C2.35343 7.23129 0.926025 8.79993 0.926025 10.698C0.926025 12.7372 2.58875 14.4 4.628 14.4C6.66726 14.4 8.32998 12.7372 8.32998 10.698C8.32998 8.79988 6.9025 7.2313 5.06722 7.02738H5.06708ZM4.62786 13.5529C3.05923 13.5529 1.78863 12.2667 1.78863 10.698C1.78863 9.12929 3.0592 7.85875 4.62786 7.85875C6.19653 7.85875 7.46709 9.12932 7.46709 10.698C7.46709 12.2666 6.19653 13.5529 4.62786 13.5529Z" fill="#141736"/>
<path d="M15.8276 5.30208C15.8276 3.26282 14.1649 1.6001 12.1257 1.6001C10.0864 1.6001 8.42368 3.26282 8.42368 5.30208C8.42368 7.20018 9.85116 8.76876 11.7021 8.98837V11.5609H10.2276C9.99233 11.5609 9.80402 11.7491 9.80402 11.9845C9.80402 12.2197 9.99222 12.408 10.2276 12.408H11.7021V13.9296C11.7021 14.1649 11.8903 14.3532 12.1257 14.3532C12.3609 14.3532 12.5492 14.165 12.5492 13.9296V12.408L14.0238 12.4079C14.259 12.4079 14.4473 12.2197 14.4473 11.9844C14.4473 11.7491 14.2591 11.5608 14.0238 11.5608H12.5492V8.97263C14.4002 8.76878 15.8277 7.20015 15.8277 5.30202L15.8276 5.30208ZM12.1257 8.1413C10.557 8.1413 9.28643 6.87074 9.28643 5.30208C9.28643 3.73341 10.557 2.46285 12.1257 2.46285C13.6943 2.46285 14.9649 3.73341 14.9649 5.30208C14.9649 6.87074 13.6943 8.1413 12.1257 8.1413Z" fill="#141736"/>
</svg>
