<svg width="17" height="16" viewBox="0 0 17 16" fill="none" xmlns="http://www.w3.org/2000/svg">
<path d="M5.87646 8.00021L7.45913 9.58221L10.6231 6.41821" stroke="#141736" stroke-linecap="round" stroke-linejoin="round"/>
<path fill-rule="evenodd" clip-rule="evenodd" d="M8.25 2.33325C5.12533 2.33325 2.58333 4.87525 2.58333 7.99992C2.58333 11.1246 5.12533 13.6666 8.25 13.6666C11.3747 13.6666 13.9167 11.1246 13.9167 7.99992C13.9167 4.87525 11.3747 2.33325 8.25 2.33325ZM8.25 14.6666C4.574 14.6666 1.58333 11.6759 1.58333 7.99992C1.58333 4.32392 4.574 1.33325 8.25 1.33325C11.926 1.33325 14.9167 4.32392 14.9167 7.99992C14.9167 11.6759 11.926 14.6666 8.25 14.6666Z" fill="#141736"/>
</svg>
