<svg width="17" height="16" viewBox="0 0 17 16" fill="none" xmlns="http://www.w3.org/2000/svg">
<path fill-rule="evenodd" clip-rule="evenodd" d="M5.09974 10.6686C4.99307 10.6686 4.88574 10.6346 4.79507 10.5652C4.5764 10.3966 4.53507 10.0826 4.70374 9.86391L6.69907 7.27058C6.7804 7.16458 6.90107 7.09591 7.03307 7.07925C7.16774 7.06191 7.29974 7.09925 7.4044 7.18258L9.2844 8.65925L10.9291 6.53725C11.0984 6.31791 11.4117 6.27725 11.6304 6.44791C11.8491 6.61725 11.8891 6.93125 11.7197 7.14925L9.7664 9.66925C9.68507 9.77458 9.56507 9.84325 9.43307 9.85925C9.29974 9.87725 9.16774 9.83858 9.0624 9.75658L7.18374 8.28058L5.4964 10.4732C5.39774 10.6012 5.24974 10.6686 5.09974 10.6686Z" fill="#141736"/>
<mask id="mask0_1403_2573" style="mask-type:alpha" maskUnits="userSpaceOnUse" x="11" y="1" width="5" height="4">
<path fill-rule="evenodd" clip-rule="evenodd" d="M11.819 1.3335H15.3817V4.89676H11.819V1.3335Z" fill="white"/>
</mask>
<g mask="url(#mask0_1403_2573)">
<path fill-rule="evenodd" clip-rule="evenodd" d="M13.6004 2.3335C13.1697 2.3335 12.819 2.6835 12.819 3.11483C12.819 3.5455 13.1697 3.89683 13.6004 3.89683C14.031 3.89683 14.3817 3.5455 14.3817 3.11483C14.3817 2.6835 14.031 2.3335 13.6004 2.3335ZM13.6004 4.89683C12.6184 4.89683 11.819 4.0975 11.819 3.11483C11.819 2.13216 12.6184 1.3335 13.6004 1.3335C14.583 1.3335 15.3817 2.13216 15.3817 3.11483C15.3817 4.0975 14.583 4.89683 13.6004 4.89683Z" fill="#141736"/>
</g>
<mask id="mask1_1403_2573" style="mask-type:alpha" maskUnits="userSpaceOnUse" x="1" y="1" width="14" height="15">
<path fill-rule="evenodd" clip-rule="evenodd" d="M1.62219 1.89478H14.8635V15.1354H1.62219V1.89478Z" fill="white"/>
</mask>
<g mask="url(#mask1_1403_2573)">
<path fill-rule="evenodd" clip-rule="evenodd" d="M11.1108 15.1354H5.3748C3.13013 15.1354 1.62213 13.5588 1.62213 11.2121V5.82411C1.62213 3.47411 3.13013 1.89478 5.3748 1.89478H10.2201C10.4961 1.89478 10.7201 2.11878 10.7201 2.39478C10.7201 2.67078 10.4961 2.89478 10.2201 2.89478H5.3748C3.7028 2.89478 2.62213 4.04411 2.62213 5.82411V11.2121C2.62213 13.0154 3.6768 14.1354 5.3748 14.1354H11.1108C12.7828 14.1354 13.8635 12.9881 13.8635 11.2121V6.51944C13.8635 6.24344 14.0875 6.01944 14.3635 6.01944C14.6395 6.01944 14.8635 6.24344 14.8635 6.51944V11.2121C14.8635 13.5588 13.3555 15.1354 11.1108 15.1354Z" fill="#141736"/>
</g>
</svg>
