<svg width="17" height="16" viewBox="0 0 17 16" fill="none" xmlns="http://www.w3.org/2000/svg">
<path fill-rule="evenodd" clip-rule="evenodd" d="M12.3774 8.09783C12.1321 8.09783 11.9181 7.91717 11.8828 7.66717C11.8448 7.39317 12.0348 7.1405 12.3088 7.1025C13.0021 7.00517 13.5254 6.40383 13.5268 5.7025C13.5268 5.00717 13.0281 4.41917 12.3408 4.3065C12.0688 4.26183 11.8841 4.0045 11.9288 3.73183C11.9741 3.45917 12.2294 3.2765 12.5034 3.31983C13.6754 3.5125 14.5268 4.51517 14.5268 5.70383C14.5241 6.9005 13.6301 7.92717 12.4468 8.09317C12.4234 8.0965 12.4001 8.09783 12.3774 8.09783Z" fill="#141736"/>
<mask id="mask0_1404_43595" style="mask-type:alpha" maskUnits="userSpaceOnUse" x="13" y="9" width="3" height="4">
<path fill-rule="evenodd" clip-rule="evenodd" d="M13.105 9.33447H15.6343V12.3542H13.105V9.33447Z" fill="white"/>
</mask>
<g mask="url(#mask0_1404_43595)">
<path fill-rule="evenodd" clip-rule="evenodd" d="M14.3605 12.3542C14.1592 12.3542 13.9692 12.2315 13.8932 12.0322C13.7945 11.7742 13.9245 11.4849 14.1825 11.3869C14.6345 11.2149 14.6345 11.0249 14.6345 10.9335C14.6345 10.6415 14.2632 10.4375 13.5312 10.3282C13.2585 10.2869 13.0698 10.0329 13.1105 9.75885C13.1512 9.48552 13.4045 9.30352 13.6798 9.33885C15.2952 9.58085 15.6345 10.3395 15.6345 10.9335C15.6345 11.2962 15.4918 11.9582 14.5385 12.3215C14.4798 12.3435 14.4198 12.3542 14.3605 12.3542Z" fill="#141736"/>
</g>
<path fill-rule="evenodd" clip-rule="evenodd" d="M8.37736 10.6094C6.79336 10.6094 4.90469 10.804 4.90469 11.7307C4.90469 12.6647 6.79336 12.8607 8.37736 12.8607C9.96136 12.8607 11.8494 12.6667 11.8494 11.742C11.8494 10.806 9.96136 10.6094 8.37736 10.6094ZM8.37736 13.8607C7.27136 13.8607 3.90469 13.8607 3.90469 11.7307C3.90469 9.60937 7.27136 9.60938 8.37736 9.60938C9.48336 9.60938 12.8494 9.60937 12.8494 11.742C12.8494 13.8607 9.60069 13.8607 8.37736 13.8607Z" fill="#141736"/>
<path fill-rule="evenodd" clip-rule="evenodd" d="M8.37735 3.66675C7.24935 3.66675 6.33201 4.58475 6.33201 5.71275C6.33001 6.25941 6.53935 6.77075 6.92268 7.15675C7.30602 7.54275 7.81668 7.75675 8.36068 7.75875L8.37735 8.25875V7.75875C9.50535 7.75875 10.4233 6.84141 10.4233 5.71275C10.4233 4.58475 9.50535 3.66675 8.37735 3.66675ZM8.37736 8.75875H8.35936C7.54603 8.75608 6.78403 8.43741 6.21336 7.86141C5.64136 7.28608 5.32869 6.52208 5.33203 5.71075C5.33203 4.03341 6.69803 2.66675 8.37736 2.66675C10.0574 2.66675 11.4234 4.03341 11.4234 5.71275C11.4234 7.39208 10.0574 8.75875 8.37736 8.75875Z" fill="#141736"/>
<path fill-rule="evenodd" clip-rule="evenodd" d="M4.37669 8.09771C4.35403 8.09771 4.33069 8.09638 4.30736 8.09305C3.12403 7.92705 2.23069 6.90038 2.22803 5.70505C2.22803 4.51505 3.07936 3.51238 4.25136 3.31971C4.53203 3.27571 4.78069 3.46038 4.82603 3.73171C4.87069 4.00438 4.68603 4.26171 4.41403 4.30638C3.72669 4.41905 3.22803 5.00705 3.22803 5.70371C3.22936 6.40371 3.75269 7.00571 4.44536 7.10238C4.71936 7.14038 4.90936 7.39305 4.87136 7.66705C4.83603 7.91705 4.62203 8.09771 4.37669 8.09771Z" fill="#141736"/>
<path fill-rule="evenodd" clip-rule="evenodd" d="M2.3943 12.3543C2.33496 12.3543 2.27496 12.3436 2.2163 12.3216C1.2623 11.9576 1.11963 11.2956 1.11963 10.9336C1.11963 10.3403 1.45896 9.58096 3.07496 9.33896C3.3503 9.30429 3.6023 9.48562 3.64363 9.75896C3.6843 10.033 3.49563 10.287 3.22296 10.3283C2.49096 10.4376 2.11963 10.6416 2.11963 10.9336C2.11963 11.025 2.11963 11.2143 2.5723 11.387C2.8303 11.485 2.9603 11.7743 2.86163 12.0323C2.78563 12.2316 2.59563 12.3543 2.3943 12.3543Z" fill="#141736"/>
</svg>
