<svg width="16" height="16" viewBox="0 0 16 16" fill="none" xmlns="http://www.w3.org/2000/svg">
<path fill-rule="evenodd" clip-rule="evenodd" d="M6.50717 10.4115C6.37917 10.4115 6.25117 10.3629 6.15384 10.2649C5.66184 9.77354 5.3905 9.12021 5.3905 8.42554C5.3905 6.98554 6.56117 5.81421 7.99984 5.81421C8.69184 5.81421 9.36384 6.09354 9.84317 6.58088C10.0365 6.77821 10.0345 7.09421 9.83717 7.28754C9.6405 7.48221 9.3245 7.47888 9.1305 7.28288C8.83784 6.98488 8.42584 6.81421 7.99984 6.81421C7.1125 6.81421 6.3905 7.53688 6.3905 8.42554C6.3905 8.85288 6.55784 9.25554 6.8605 9.55821C7.05584 9.75354 7.05584 10.0695 6.86117 10.2649C6.76317 10.3629 6.63517 10.4115 6.50717 10.4115Z" fill="#141736"/>
<path fill-rule="evenodd" clip-rule="evenodd" d="M8.37826 10.9941C8.14159 10.9941 7.93092 10.8248 7.88692 10.5835C7.83759 10.3121 8.01759 10.0515 8.28959 10.0021C8.94292 9.88345 9.46026 9.36478 9.57759 8.71079C9.62692 8.43945 9.88692 8.26079 10.1583 8.30745C10.4303 8.35612 10.6109 8.61612 10.5623 8.88812C10.3709 9.95012 9.52959 10.7928 8.46826 10.9861C8.43826 10.9915 8.40759 10.9941 8.37826 10.9941Z" fill="#141736"/>
<mask id="mask0_3426_92614" style="mask-type:alpha" maskUnits="userSpaceOnUse" x="1" y="3" width="12" height="10">
<path fill-rule="evenodd" clip-rule="evenodd" d="M1.33331 3.08301H12.0575V12.4818H1.33331V3.08301Z" fill="white"/>
</mask>
<g mask="url(#mask0_3426_92614)">
<path fill-rule="evenodd" clip-rule="evenodd" d="M4.43625 12.4818C4.32825 12.4818 4.21959 12.4464 4.12759 12.3751C3.00025 11.4898 2.04759 10.1918 1.37425 8.62243C1.31959 8.49576 1.31959 8.35309 1.37425 8.22709C2.05492 6.65109 3.01359 5.34643 4.14692 4.45509C6.45759 2.62643 9.53359 2.62043 11.8676 4.46843C12.0843 4.63976 12.1209 4.95443 11.9496 5.17109C11.7776 5.38643 11.4643 5.42443 11.2469 5.25243C9.26959 3.68709 6.72225 3.69243 4.76625 5.24043C3.80892 5.99376 2.98692 7.09109 2.38025 8.42576C2.98092 9.75243 3.79559 10.8431 4.74559 11.5884C4.96292 11.7591 5.00025 12.0738 4.82959 12.2904C4.73092 12.4158 4.58425 12.4818 4.43625 12.4818Z" fill="#141736"/>
</g>
<mask id="mask1_3426_92614" style="mask-type:alpha" maskUnits="userSpaceOnUse" x="5" y="5" width="10" height="9">
<path fill-rule="evenodd" clip-rule="evenodd" d="M5.81165 5.82764H14.6667V13.7931H5.81165V5.82764Z" fill="white"/>
</mask>
<g mask="url(#mask1_3426_92614)">
<path fill-rule="evenodd" clip-rule="evenodd" d="M8.00007 13.7931C7.3754 13.7931 6.75407 13.6918 6.15407 13.4924C5.89207 13.4051 5.75007 13.1218 5.8374 12.8598C5.92473 12.5971 6.20673 12.4578 6.47007 12.5431C6.96807 12.7091 7.48273 12.7931 8.00007 12.7931C10.2854 12.7931 12.3741 11.1651 13.6201 8.42444C13.3161 7.75844 12.9621 7.15511 12.5661 6.62844C12.4001 6.40777 12.4441 6.09377 12.6647 5.92777C12.8847 5.76177 13.1987 5.80711 13.3647 6.02711C13.8474 6.66777 14.2714 7.40844 14.6254 8.22577C14.6807 8.35244 14.6807 8.49644 14.6254 8.62244C13.2281 11.8604 10.7514 13.7931 8.00007 13.7931Z" fill="#141736"/>
</g>
<mask id="mask2_3426_92614" style="mask-type:alpha" maskUnits="userSpaceOnUse" x="2" y="2" width="12" height="13">
<path fill-rule="evenodd" clip-rule="evenodd" d="M2.24237 2.66699H13.758V14.1823H2.24237V2.66699Z" fill="white"/>
</mask>
<g mask="url(#mask2_3426_92614)">
<path fill-rule="evenodd" clip-rule="evenodd" d="M2.7422 14.1823C2.6142 14.1823 2.4862 14.1337 2.38887 14.0357C2.19354 13.8403 2.19354 13.5243 2.38887 13.329L12.9049 2.813C13.1002 2.61767 13.4162 2.61767 13.6115 2.813C13.8069 3.00834 13.8069 3.325 13.6115 3.52034L3.09554 14.0357C2.9982 14.1337 2.8702 14.1823 2.7422 14.1823Z" fill="#141736"/>
</g>
</svg>
