<svg width="16" height="16" viewBox="0 0 16 16" fill="none" xmlns="http://www.w3.org/2000/svg">
<path fill-rule="evenodd" clip-rule="evenodd" d="M2.09831 3.12392C2.48797 2.73102 3.02822 2.5 3.6039 2.5H6.72078C7.02203 2.5 7.26623 2.72386 7.26623 3C7.26623 3.27614 7.02203 3.5 6.72078 3.5H3.6039C3.35292 3.5 3.10038 3.60011 2.90552 3.7966C2.70907 3.99467 2.59091 4.2727 2.59091 4.57143V12.4286C2.59091 12.7273 2.70907 13.0053 2.90552 13.2034C3.10038 13.3999 3.35292 13.5 3.6039 13.5H11.3961C11.6471 13.5 11.8996 13.3999 12.0945 13.2034C12.2909 13.0053 12.4091 12.7273 12.4091 12.4286V9.28571C12.4091 9.00957 12.6533 8.78571 12.9545 8.78571C13.2558 8.78571 13.5 9.00957 13.5 9.28571V12.4286C13.5 12.9634 13.2898 13.4848 12.9017 13.8761C12.512 14.269 11.9718 14.5 11.3961 14.5H3.6039C3.02822 14.5 2.48797 14.269 2.09831 13.8761C1.71022 13.4848 1.5 12.9634 1.5 12.4286V4.57143C1.5 4.03662 1.71022 3.51525 2.09831 3.12392Z" fill="#141736"/>
<path fill-rule="evenodd" clip-rule="evenodd" d="M8.7 2C8.7 1.72386 8.92386 1.5 9.2 1.5H13.9999C13.9999 1.5 14 1.5 14 1.5C14.0678 1.5 14.1324 1.51349 14.1914 1.53794C14.2504 1.56234 14.3056 1.59851 14.3536 1.64645C14.4015 1.69439 14.4377 1.74964 14.4621 1.80861C14.4842 1.86223 14.4967 1.91893 14.4994 1.97601C14.4998 1.98301 14.4999 1.99 14.5 1.997C14.5 1.998 14.5 1.999 14.5 2C14.5 2.00016 14.5 2.00033 14.5 2.00049V6.8C14.5 7.07614 14.2761 7.3 14 7.3C13.7239 7.3 13.5 7.07614 13.5 6.8V3.20711L6.35355 10.3536C6.15829 10.5488 5.84171 10.5488 5.64645 10.3536C5.45118 10.1583 5.45118 9.84171 5.64645 9.64645L12.7929 2.5H9.2C8.92386 2.5 8.7 2.27614 8.7 2Z" fill="#141736"/>
</svg>
