<svg width="16" height="16" viewBox="0 0 16 16" fill="none" xmlns="http://www.w3.org/2000/svg">
<path opacity="0.4" d="M14 8C14 11.3137 11.3137 14 8 14C4.68629 14 2 11.3137 2 8C2 4.68629 4.68629 2 8 2C11.3137 2 14 4.68629 14 8ZM3.2 8C3.2 10.651 5.34903 12.8 8 12.8C10.651 12.8 12.8 10.651 12.8 8C12.8 5.34903 10.651 3.2 8 3.2C5.34903 3.2 3.2 5.34903 3.2 8Z" fill="#141736"/>
<path d="M8 13.4C8 13.7314 7.73071 14.0031 7.40099 13.97C6.55183 13.8848 5.72819 13.6192 4.98626 13.1882C4.07088 12.6565 3.31248 11.892 2.78804 10.9725C2.2636 10.0529 1.99178 9.01094 2.00019 7.95237C2.00859 6.89379 2.29692 5.85629 2.83589 4.94517C3.37487 4.03404 4.14531 3.28173 5.06902 2.76461C5.99272 2.24748 7.03679 1.98395 8.09526 2.00076C9.15374 2.01756 10.1889 2.31412 11.0957 2.86031C11.8307 3.30301 12.4602 3.89694 12.9438 4.60012C13.1315 4.87316 13.0231 5.24003 12.7326 5.3996C12.4422 5.55918 12.0803 5.45034 11.8858 5.18208C11.5088 4.66226 11.0301 4.22165 10.4766 3.88825C9.75114 3.45129 8.92299 3.21405 8.07621 3.2006C7.22943 3.18716 6.39417 3.39799 5.65521 3.81169C4.91625 4.22539 4.2999 4.82723 3.86872 5.55613C3.43753 6.28503 3.20687 7.11504 3.20015 7.96189C3.19343 8.80875 3.41088 9.64231 3.83043 10.378C4.24999 11.1136 4.85671 11.7252 5.58901 12.1506C6.14776 12.4751 6.76444 12.6825 7.40155 12.7625C7.73033 12.8039 8 13.0686 8 13.4Z" fill="#141736"/>
</svg>
