<svg width="17" height="16" viewBox="0 0 17 16" fill="none" xmlns="http://www.w3.org/2000/svg">
<path fill-rule="evenodd" clip-rule="evenodd" d="M8.37745 5.6665C7.73412 5.6665 7.21078 6.18984 7.21078 6.83384C7.21078 7.47717 7.73412 7.99984 8.37745 7.99984C9.02078 7.99984 9.54412 7.47717 9.54412 6.83384C9.54412 6.18984 9.02078 5.6665 8.37745 5.6665ZM8.37745 8.99984C7.18278 8.99984 6.21078 8.0285 6.21078 6.83384C6.21078 5.6385 7.18278 4.6665 8.37745 4.6665C9.57212 4.6665 10.5441 5.6385 10.5441 6.83384C10.5441 8.0285 9.57212 8.99984 8.37745 8.99984Z" fill="#141736"/>
<mask id="mask0_740_1355" style="mask-type:alpha" maskUnits="userSpaceOnUse" x="2" y="1" width="12" height="14">
<path fill-rule="evenodd" clip-rule="evenodd" d="M2.87711 1.33325H13.8768V14.3333H2.87711V1.33325Z" fill="white"/>
</mask>
<g mask="url(#mask0_740_1355)">
<path fill-rule="evenodd" clip-rule="evenodd" d="M8.37677 2.33325C5.89544 2.33325 3.87677 4.37125 3.87677 6.87525C3.87677 10.0613 7.6261 13.1653 8.37677 13.3306C9.12744 13.1646 12.8768 10.0606 12.8768 6.87525C12.8768 4.37125 10.8581 2.33325 8.37677 2.33325ZM8.37677 14.3333C7.18077 14.3333 2.87677 10.6319 2.87677 6.87525C2.87677 3.81925 5.3441 1.33325 8.37677 1.33325C11.4094 1.33325 13.8768 3.81925 13.8768 6.87525C13.8768 10.6319 9.57277 14.3333 8.37677 14.3333Z" fill="#141736"/>
</g>
</svg>
