<svg width="17" height="16" viewBox="0 0 17 16" fill="none" xmlns="http://www.w3.org/2000/svg">
<path fill-rule="evenodd" clip-rule="evenodd" d="M11.1653 6.80001C10.8893 6.80001 10.6653 6.57601 10.6653 6.30001V4.86867C10.6653 3.47134 9.5286 2.33467 8.13127 2.33467H8.1206C7.44527 2.33467 6.8126 2.59467 6.3346 3.06867C5.85327 3.54467 5.58727 4.18001 5.5846 4.85734V6.30001C5.5846 6.57601 5.3606 6.80001 5.0846 6.80001C4.8086 6.80001 4.5846 6.57601 4.5846 6.30001V4.86867C4.5886 3.90867 4.95993 3.02267 5.62993 2.35867C6.3006 1.69401 7.18593 1.30934 8.13327 1.33467C10.0799 1.33467 11.6653 2.92001 11.6653 4.86867V6.30001C11.6653 6.57601 11.4413 6.80001 11.1653 6.80001Z" fill="#141736"/>
<path fill-rule="evenodd" clip-rule="evenodd" d="M5.578 6.75244C4.45933 6.75244 3.55 7.66177 3.55 8.78044V11.6398C3.55 12.7584 4.45933 13.6678 5.578 13.6678H10.672C11.79 13.6678 12.7 12.7584 12.7 11.6398V8.78044C12.7 7.66177 11.79 6.75244 10.672 6.75244H5.578ZM10.672 14.6678H5.578C3.908 14.6678 2.55 13.3098 2.55 11.6398V8.78044C2.55 7.11044 3.908 5.75244 5.578 5.75244H10.672C12.342 5.75244 13.7 7.11044 13.7 8.78044V11.6398C13.7 13.3098 12.342 14.6678 10.672 14.6678Z" fill="#141736"/>
<path fill-rule="evenodd" clip-rule="evenodd" d="M8.12487 11.4504C7.84887 11.4504 7.62487 11.2264 7.62487 10.9504V9.46973C7.62487 9.19373 7.84887 8.96973 8.12487 8.96973C8.40087 8.96973 8.62487 9.19373 8.62487 9.46973V10.9504C8.62487 11.2264 8.40087 11.4504 8.12487 11.4504Z" fill="#141736"/>
</svg>
