<svg width="17" height="16" viewBox="0 0 17 16" fill="none" xmlns="http://www.w3.org/2000/svg">
<path fill-rule="evenodd" clip-rule="evenodd" d="M7.4921 14.6666H4.23477C2.60543 14.6666 1.27943 13.3406 1.27943 11.7099V4.29059C1.27943 2.65992 2.60543 1.33325 4.23477 1.33325H7.48477C9.11543 1.33325 10.4421 2.65992 10.4421 4.29059V4.91192C10.4421 5.18792 10.2181 5.41192 9.9421 5.41192C9.6661 5.41192 9.4421 5.18792 9.4421 4.91192V4.29059C9.4421 3.21059 8.5641 2.33325 7.48477 2.33325H4.23477C3.15677 2.33325 2.27943 3.21059 2.27943 4.29059V11.7099C2.27943 12.7893 3.15677 13.6666 4.23477 13.6666H7.4921C8.56677 13.6666 9.4421 12.7919 9.4421 11.7173V11.0886C9.4421 10.8126 9.6661 10.5886 9.9421 10.5886C10.2181 10.5886 10.4421 10.8126 10.4421 11.0886V11.7173C10.4421 13.3439 9.1181 14.6666 7.4921 14.6666Z" fill="#141736"/>
<mask id="mask0_1374_1518" style="mask-type:alpha" maskUnits="userSpaceOnUse" x="5" y="7" width="10" height="2">
<path fill-rule="evenodd" clip-rule="evenodd" d="M5.9433 7.5H14.9706V8.5H5.9433V7.5Z" fill="white"/>
</mask>
<g mask="url(#mask0_1374_1518)">
<path fill-rule="evenodd" clip-rule="evenodd" d="M14.4706 8.5H6.4433C6.1673 8.5 5.9433 8.276 5.9433 8C5.9433 7.724 6.1673 7.5 6.4433 7.5H14.4706C14.7466 7.5 14.9706 7.724 14.9706 8C14.9706 8.276 14.7466 8.5 14.4706 8.5Z" fill="#141736"/>
</g>
<mask id="mask1_1374_1518" style="mask-type:alpha" maskUnits="userSpaceOnUse" x="12" y="5" width="3" height="6">
<path fill-rule="evenodd" clip-rule="evenodd" d="M12.019 5.55664H14.9706V10.4438H12.019V5.55664Z" fill="white"/>
</mask>
<g mask="url(#mask1_1374_1518)">
<path fill-rule="evenodd" clip-rule="evenodd" d="M12.5188 10.4438C12.3908 10.4438 12.2622 10.3951 12.1648 10.2965C11.9702 10.1005 11.9708 9.78447 12.1662 9.58981L13.7622 7.99981L12.1662 6.41047C11.9708 6.21581 11.9695 5.89981 12.1648 5.70381C12.3595 5.50781 12.6755 5.50781 12.8715 5.70247L14.8235 7.64581C14.9182 7.73914 14.9708 7.86714 14.9708 7.99981C14.9708 8.13247 14.9182 8.26047 14.8235 8.35381L12.8715 10.2978C12.7742 10.3951 12.6462 10.4438 12.5188 10.4438Z" fill="#141736"/>
</g>
</svg>
