<svg width="17" height="16" viewBox="0 0 17 16" fill="none" xmlns="http://www.w3.org/2000/svg">
<path fill-rule="evenodd" clip-rule="evenodd" d="M8.39492 8.9765C7.94892 8.9765 7.50425 8.82916 7.13225 8.5345L4.14225 6.12383C3.92692 5.9505 3.89358 5.63516 4.06625 5.4205C4.24025 5.2065 4.55492 5.1725 4.76958 5.34516L7.75692 7.75316C8.13225 8.0505 8.66092 8.0505 9.03892 7.7505L11.9963 5.3465C12.2109 5.17116 12.5256 5.2045 12.7003 5.41916C12.8743 5.63316 12.8416 5.94783 12.6276 6.1225L9.66492 8.5305C9.29025 8.82783 8.84225 8.9765 8.39492 8.9765Z" fill="#141736"/>
<mask id="mask0_1397_11283" style="mask-type:alpha" maskUnits="userSpaceOnUse" x="1" y="1" width="15" height="14">
<path fill-rule="evenodd" clip-rule="evenodd" d="M1.21033 1.33325H15.5436V14.3333H1.21033V1.33325Z" fill="white"/>
</mask>
<g mask="url(#mask0_1397_11283)">
<path fill-rule="evenodd" clip-rule="evenodd" d="M5.10293 13.3333H11.6496C11.6509 13.3319 11.6563 13.3333 11.6603 13.3333C12.4209 13.3333 13.0956 13.0613 13.6129 12.5446C14.2136 11.9466 14.5436 11.0873 14.5436 10.1253V5.54659C14.5436 3.68459 13.3263 2.33325 11.6496 2.33325H5.10427C3.4276 2.33325 2.21027 3.68459 2.21027 5.54659V10.1253C2.21027 11.0873 2.54093 11.9466 3.14093 12.5446C3.65827 13.0613 4.3336 13.3333 5.0936 13.3333H5.10293ZM5.0916 14.3333C4.06293 14.3333 3.14427 13.9599 2.43493 13.2533C1.64493 12.4653 1.21027 11.3546 1.21027 10.1253V5.54659C1.21027 3.14459 2.88427 1.33325 5.10427 1.33325H11.6496C13.8696 1.33325 15.5436 3.14459 15.5436 5.54659V10.1253C15.5436 11.3546 15.1089 12.4653 14.3189 13.2533C13.6103 13.9593 12.6909 14.3333 11.6603 14.3333H11.6496H5.10427H5.0916Z" fill="#141736"/>
</g>
</svg>
