<svg width="17" height="16" viewBox="0 0 17 16" fill="none" xmlns="http://www.w3.org/2000/svg">
<path d="M7.66618 1.33325C11.3482 1.33325 14.3329 4.31792 14.3329 7.99992C14.3329 11.6819 11.3482 14.6666 7.66618 14.6666C6.60218 14.6681 5.5534 14.4138 4.60818 13.9253L2.05752 14.6366C1.91521 14.6763 1.76491 14.6775 1.622 14.64C1.47909 14.6025 1.34873 14.5276 1.24426 14.4232C1.13979 14.3187 1.06497 14.1883 1.02747 14.0454C0.989969 13.9025 0.991136 13.7522 1.03085 13.6099L1.74285 11.0613C1.25309 10.1152 0.998133 9.06522 0.999517 7.99992C0.999517 4.31792 3.98418 1.33325 7.66618 1.33325ZM7.66618 2.33325C6.16329 2.33325 4.72195 2.93027 3.65925 3.99298C2.59654 5.05569 1.99952 6.49703 1.99952 7.99992C1.99952 8.97992 2.24818 9.92192 2.71485 10.7579L2.81485 10.9379L2.07352 13.5939L4.73152 12.8526L4.91152 12.9526C5.66777 13.373 6.51027 13.6147 7.37442 13.6591C8.23856 13.7035 9.10139 13.5494 9.89674 13.2086C10.6921 12.8679 11.3989 12.3495 11.9628 11.6933C12.5268 11.037 12.933 10.2603 13.1502 9.42277C13.3675 8.58521 13.3901 7.70901 13.2162 6.86138C13.0424 6.01374 12.6767 5.21718 12.1473 4.53276C11.6179 3.84835 10.9387 3.29427 10.162 2.913C9.38522 2.53174 8.53147 2.33342 7.66618 2.33325ZM5.49952 8.66658H8.49818C8.62487 8.66662 8.74681 8.71475 8.83938 8.80123C8.93195 8.88772 8.98823 9.00612 8.99687 9.1325C9.0055 9.25889 8.96584 9.38385 8.8859 9.48212C8.80595 9.58039 8.69168 9.64465 8.56618 9.66192L8.49818 9.66658H5.49952C5.37284 9.66655 5.25089 9.61842 5.15832 9.53194C5.06576 9.44545 5.00947 9.32705 5.00083 9.20066C4.9922 9.07428 5.03186 8.94932 5.11181 8.85105C5.19175 8.75278 5.30602 8.68852 5.43152 8.67125L5.49952 8.66658H8.49818H5.49952ZM5.49952 6.33325H9.83618C9.96281 6.33346 10.0846 6.3817 10.1771 6.46824C10.2695 6.55478 10.3257 6.67317 10.3342 6.7995C10.3428 6.92584 10.3031 7.05071 10.2231 7.14891C10.1432 7.24711 10.029 7.31133 9.90352 7.32859L9.83618 7.33325H5.49952C5.37284 7.33321 5.25089 7.28509 5.15832 7.1986C5.06576 7.11212 5.00947 6.99372 5.00083 6.86733C4.9922 6.74094 5.03186 6.61599 5.11181 6.51772C5.19175 6.41945 5.30602 6.35519 5.43152 6.33792L5.49952 6.33325H9.83618H5.49952Z" fill="#141736"/>
</svg>
