<svg width="17" height="16" viewBox="0 0 17 16" fill="none" xmlns="http://www.w3.org/2000/svg">
<path fill-rule="evenodd" clip-rule="evenodd" d="M10.9463 8.49341H6.05762C5.78095 8.49341 5.55762 8.26941 5.55762 7.99341C5.55762 7.71741 5.78095 7.49341 6.05762 7.49341H10.9463C11.2223 7.49341 11.4463 7.71741 11.4463 7.99341C11.4463 8.26941 11.2223 8.49341 10.9463 8.49341Z" fill="#141736"/>
<path fill-rule="evenodd" clip-rule="evenodd" d="M10.9461 8.49341H6.05743C5.78077 8.49341 5.55743 8.26941 5.55743 7.99341C5.55743 7.71741 5.78077 7.49341 6.05743 7.49341H10.9461C11.2221 7.49341 11.4461 7.71741 11.4461 7.99341C11.4461 8.26941 11.2221 8.49341 10.9461 8.49341Z" fill="#141736"/>
<path fill-rule="evenodd" clip-rule="evenodd" d="M5.37793 1.83325C3.52993 1.83325 2.33527 3.09792 2.33527 5.05659V10.9433C2.33527 12.9019 3.52993 14.1666 5.37793 14.1666H11.6259C13.4746 14.1666 14.6686 12.9019 14.6686 10.9433V5.05659C14.6686 3.09792 13.4746 1.83325 11.6259 1.83325H5.37793ZM11.6259 15.1666H5.37793C2.95993 15.1666 1.33527 13.4693 1.33527 10.9433V5.05658C1.33527 2.53059 2.95993 0.833252 5.37793 0.833252H11.6259C14.0439 0.833252 15.6686 2.53059 15.6686 5.05658V10.9433C15.6686 13.4693 14.0439 15.1666 11.6259 15.1666Z" fill="#141736"/>
</svg>
