<svg width="16" height="16" viewBox="0 0 16 16" fill="none" xmlns="http://www.w3.org/2000/svg">
<path fill-rule="evenodd" clip-rule="evenodd" d="M4.66683 11.9998C5.40321 11.9998 6.00016 12.5968 6.00016 13.3332C6.00016 14.0696 5.40321 14.6665 4.66683 14.6665C3.93045 14.6665 3.3335 14.0696 3.3335 13.3332C3.3335 12.5968 3.93045 11.9998 4.66683 11.9998ZM4.66683 6.6665C5.40321 6.6665 6.00016 7.26345 6.00016 7.99984C6.00016 8.73622 5.40321 9.33317 4.66683 9.33317C3.93045 9.33317 3.3335 8.73622 3.3335 7.99984C3.3335 7.26345 3.93045 6.6665 4.66683 6.6665ZM6.00016 2.6665C6.00016 1.93015 5.40321 1.33317 4.66683 1.33317C3.93045 1.33317 3.3335 1.93015 3.3335 2.6665C3.3335 3.40286 3.93045 3.99984 4.66683 3.99984C5.40321 3.99984 6.00016 3.40286 6.00016 2.6665Z" fill="#141736"/>
<path fill-rule="evenodd" clip-rule="evenodd" d="M11.3333 11.9998C12.0697 11.9998 12.6667 12.5968 12.6667 13.3332C12.6667 14.0695 12.0697 14.6665 11.3333 14.6665C10.597 14.6665 10 14.0696 10 13.3332C10 12.5968 10.597 11.9998 11.3333 11.9998ZM11.3333 6.6665C12.0697 6.6665 12.6667 7.26346 12.6667 7.99984C12.6667 8.73622 12.0697 9.33317 11.3333 9.33317C10.597 9.33317 10 8.73622 10 7.99984C10 7.26346 10.597 6.6665 11.3333 6.6665ZM12.6667 2.6665C12.6667 1.93015 12.0697 1.33317 11.3333 1.33317C10.597 1.33317 10 1.93015 10 2.6665C10 3.40286 10.597 3.99984 11.3333 3.99984C12.0697 3.99984 12.6667 3.40286 12.6667 2.6665Z" fill="#141736"/>
</svg>
