<svg width="17" height="16" viewBox="0 0 17 16" fill="none" xmlns="http://www.w3.org/2000/svg">
<path fill-rule="evenodd" clip-rule="evenodd" d="M4.31724 4.99639C4.28079 5.41484 4.28047 5.84308 4.28047 6.29057C4.28047 6.32471 4.27697 6.35877 4.27003 6.3922C4.13502 7.04258 3.82804 7.64533 3.38138 8.14028C3.2042 8.4172 3.10203 8.73314 3.08388 9.05846V9.20207C3.07422 9.65178 3.22556 10.0916 3.51336 10.4449C3.92864 10.8703 4.48743 11.1373 5.08905 11.1944L5.09508 11.195C7.1899 11.4197 9.30345 11.4198 11.3983 11.1951L11.4063 11.1942C12.0084 11.1394 12.5676 10.8719 12.9808 10.4442C13.2736 10.0917 13.4273 9.64945 13.4161 9.19742L13.4158 9.18498L13.4159 9.05728C13.3995 8.73429 13.2974 8.42056 13.1191 8.14709C12.6736 7.64904 12.3668 7.04481 12.23 6.39328C12.2254 6.37138 12.2223 6.34919 12.2207 6.32687C12.2038 6.09468 12.2047 5.8632 12.2055 5.65348C12.2055 5.64196 12.2056 5.6305 12.2056 5.61911C12.2064 5.39418 12.2061 5.19275 12.1891 4.99709C12.0117 3.17916 10.1761 1.83325 8.27578 1.83325H8.22403C6.32296 1.83325 4.4885 3.17965 4.31724 4.99639ZM3.32146 4.90461C3.55211 2.44398 5.94727 0.833252 8.22403 0.833252H8.27578C10.553 0.833252 12.9467 2.44408 13.1847 4.90311L13.1851 4.90776C13.2068 5.1557 13.2064 5.40105 13.2056 5.62273L13.2055 5.64472C13.2047 5.85177 13.2041 6.03822 13.2157 6.22037C13.3215 6.69602 13.5514 7.1378 13.8841 7.50217C13.9004 7.51998 13.9154 7.53896 13.9289 7.55893C14.2233 7.9936 14.3918 8.49974 14.4154 9.02283C14.4158 9.03033 14.4159 9.03783 14.4159 9.04534V9.17906C14.4318 9.8804 14.1894 10.5626 13.7353 11.1007C13.7288 11.1084 13.722 11.1159 13.715 11.1233C13.133 11.7335 12.3452 12.1119 11.5011 12.1898C9.33758 12.4216 7.1548 12.4215 4.99131 12.1897C4.14903 12.1089 3.36318 11.7315 2.77973 11.1248C2.77131 11.116 2.76321 11.1069 2.75545 11.0976C2.30894 10.5598 2.07028 9.88255 2.08388 9.18622V9.04534C2.08388 9.03708 2.08408 9.02883 2.08449 9.02058C2.11041 8.49797 2.2779 7.99231 2.56881 7.55573C2.5834 7.53383 2.5997 7.51313 2.61754 7.4938C2.94669 7.13732 3.17466 6.70404 3.28047 6.23702C3.28051 5.81182 3.28181 5.35847 3.32118 4.90776L3.32146 4.90461Z" fill="#141736"/>
<path fill-rule="evenodd" clip-rule="evenodd" d="M6.30839 13.5101C6.52437 13.338 6.83894 13.3736 7.01102 13.5896C7.26067 13.9029 7.62928 14.1079 8.03658 14.1559C8.44397 14.2038 8.85285 14.0902 9.17251 13.8424L9.17996 13.8366L9.18002 13.8367C9.27678 13.7645 9.36361 13.6809 9.43854 13.5877C9.61163 13.3726 9.92637 13.3385 10.1415 13.5116C10.3567 13.6847 10.3908 13.9994 10.2177 14.2146C10.0906 14.3725 9.94402 14.5139 9.78144 14.6356C9.25356 15.0432 8.58388 15.2272 7.91971 15.149C7.2539 15.0707 6.64494 14.7349 6.22889 14.2127C6.05682 13.9967 6.09241 13.6822 6.30839 13.5101Z" fill="#141736"/>
</svg>
