<svg width="16" height="16" viewBox="0 0 16 16" fill="none" xmlns="http://www.w3.org/2000/svg">
<path d="M11.6866 2.46604L12.6699 3.24719C13.0732 3.56251 13.342 3.97817 13.4339 4.41533C13.5401 4.8962 13.4269 5.36847 13.1085 5.77696L7.25093 13.3519C6.98211 13.6959 6.58594 13.8894 6.16148 13.8966L3.82693 13.9253C3.69959 13.9253 3.59348 13.8393 3.56518 13.7174L3.0346 11.417C2.94263 10.9942 3.0346 10.557 3.30343 10.2202L7.45609 4.84532C7.52683 4.75932 7.65417 4.7457 7.73906 4.80948L9.48644 6.19978C9.59963 6.29295 9.75526 6.34311 9.91797 6.32161C10.2646 6.27861 10.4981 5.96329 10.4627 5.62646C10.4415 5.45447 10.3566 5.31114 10.2434 5.20364C10.208 5.17497 8.54554 3.84201 8.54554 3.84201C8.43943 3.75601 8.41821 3.59835 8.5031 3.49157L9.16102 2.63804C9.76941 1.85689 10.8306 1.78523 11.6866 2.46604Z" fill="black"/>
</svg>
