<svg width="17" height="16" viewBox="0 0 17 16" fill="none" xmlns="http://www.w3.org/2000/svg">
<path fill-rule="evenodd" clip-rule="evenodd" d="M3.11625 3.37367C3.11758 3.37367 3.08425 3.40834 3.04225 3.44967C2.88092 3.60634 2.54692 3.93234 2.54358 4.61434C2.53825 5.56834 3.16558 7.33967 6.18625 10.3597C9.19292 13.365 10.9616 13.9997 11.9176 13.9997H11.9316C12.6136 13.9963 12.9389 13.6617 13.0962 13.501C13.1442 13.4517 13.1829 13.4157 13.2102 13.393C13.8742 12.725 14.2142 12.2277 14.2109 11.909C14.2062 11.5837 13.8016 11.199 13.2422 10.667C13.0642 10.4977 12.8709 10.3137 12.6669 10.1097C12.1382 9.58234 11.8762 9.67234 11.3002 9.87501C10.5036 10.1543 9.41025 10.5343 7.71158 8.83501C6.01025 7.13501 6.39091 6.04301 6.66958 5.24634C6.87091 4.67034 6.96292 4.40767 6.43358 3.87834C6.22625 3.67167 6.04025 3.47567 5.86892 3.29567C5.34025 2.73967 4.95892 2.33767 4.63558 2.33301H4.63025C4.31092 2.33301 3.81492 2.67434 3.11292 3.37634C3.11492 3.37434 3.11558 3.37367 3.11625 3.37367ZM11.9182 14.9998C10.2569 14.9998 8.09091 13.6771 5.47957 11.0671C2.85824 8.44644 1.53357 6.27378 1.54357 4.60911C1.54957 3.50911 2.12624 2.94578 2.34291 2.73444C2.35424 2.72044 2.39291 2.68244 2.40624 2.66911C3.36224 1.71244 4.00691 1.32578 4.64824 1.33311C5.39291 1.34311 5.92291 1.90044 6.59357 2.60644C6.75957 2.78111 6.93957 2.97111 7.14024 3.17111C8.11357 4.14444 7.83624 4.93844 7.61357 5.57578C7.37091 6.27111 7.16091 6.87111 8.41824 8.12844C9.67691 9.38578 10.2769 9.17578 10.9696 8.93111C11.6076 8.70844 12.3996 8.42978 13.3742 9.40311C13.5716 9.60044 13.7589 9.77844 13.9316 9.94311C14.6409 10.6171 15.2009 11.1498 15.2102 11.8964C15.2182 12.5331 14.8316 13.1818 13.8769 14.1371L13.4542 13.8504L13.8116 14.1998C13.6002 14.4164 13.0376 14.9938 11.9369 14.9998H11.9182Z" fill="#141736"/>
</svg>
