<svg width="17" height="16" viewBox="0 0 17 16" fill="none" xmlns="http://www.w3.org/2000/svg">
<path fill-rule="evenodd" clip-rule="evenodd" d="M11.1077 1.33325C13.2037 1.33325 14.6117 2.76859 14.6117 4.90459V11.0353C14.6117 13.1899 13.247 14.5913 11.135 14.6046L6.00638 14.6066C3.91038 14.6066 2.50171 13.1713 2.50171 11.0353V4.90459C2.50171 2.74925 3.86638 1.34859 5.97838 1.33592L11.1077 1.33325ZM11.1077 2.33325L5.98171 2.33592C4.42971 2.34525 3.50171 3.30525 3.50171 4.90459V11.0353C3.50171 12.6453 4.43838 13.6066 6.00571 13.6066L11.1317 13.6046C12.6837 13.5953 13.6117 12.6339 13.6117 11.0353V4.90459C13.6117 3.29459 12.6757 2.33325 11.1077 2.33325ZM10.9791 10.3157C11.2551 10.3157 11.4791 10.5397 11.4791 10.8157C11.4791 11.0917 11.2551 11.3157 10.9791 11.3157H6.16578C5.88978 11.3157 5.66578 11.0917 5.66578 10.8157C5.66578 10.5397 5.88978 10.3157 6.16578 10.3157H10.9791ZM10.9791 7.52472C11.2551 7.52472 11.4791 7.74872 11.4791 8.02472C11.4791 8.30072 11.2551 8.52472 10.9791 8.52472H6.16578C5.88978 8.52472 5.66578 8.30072 5.66578 8.02472C5.66578 7.74872 5.88978 7.52472 6.16578 7.52472H10.9791ZM8.00224 4.74019C8.27824 4.74019 8.50224 4.96419 8.50224 5.24019C8.50224 5.51619 8.27824 5.74019 8.00224 5.74019H6.16558C5.88958 5.74019 5.66558 5.51619 5.66558 5.24019C5.66558 4.96419 5.88958 4.74019 6.16558 4.74019H8.00224Z" fill="#141736"/>
</svg>
