<svg width="17" height="16" viewBox="0 0 17 16" fill="none" xmlns="http://www.w3.org/2000/svg">
<mask id="mask0_1374_1505" style="mask-type:alpha" maskUnits="userSpaceOnUse" x="2" y="9" width="12" height="6">
<path fill-rule="evenodd" clip-rule="evenodd" d="M2.84503 9.66406H13.405V14.5801H2.84503V9.66406Z" fill="white"/>
</mask>
<g mask="url(#mask0_1374_1505)">
<path fill-rule="evenodd" clip-rule="evenodd" d="M8.12563 10.6641C5.28496 10.6641 3.84496 11.1521 3.84496 12.1154C3.84496 13.0874 5.28496 13.5801 8.12563 13.5801C10.9656 13.5801 12.405 13.0921 12.405 12.1287C12.405 11.1567 10.9656 10.6641 8.12563 10.6641ZM8.12563 14.5801C6.81963 14.5801 2.84496 14.5801 2.84496 12.1154C2.84496 9.91806 5.85896 9.66406 8.12563 9.66406C9.43163 9.66406 13.405 9.66406 13.405 12.1287C13.405 14.3261 10.3916 14.5801 8.12563 14.5801Z" fill="#141736"/>
</g>
<mask id="mask1_1374_1505" style="mask-type:alpha" maskUnits="userSpaceOnUse" x="4" y="1" width="8" height="8">
<path fill-rule="evenodd" clip-rule="evenodd" d="M4.58494 1.3335H11.665V8.41256H4.58494V1.3335Z" fill="white"/>
</mask>
<g mask="url(#mask1_1374_1505)">
<path fill-rule="evenodd" clip-rule="evenodd" d="M8.12563 2.28516C6.6983 2.28516 5.53697 3.44582 5.53697 4.87316C5.5323 6.29582 6.68497 7.45582 8.1063 7.46116L8.12563 7.93716V7.46116C9.5523 7.46116 10.713 6.29982 10.713 4.87316C10.713 3.44582 9.5523 2.28516 8.12563 2.28516ZM8.12563 8.41259H8.1043C6.1563 8.40659 4.5783 6.81792 4.58496 4.87125C4.58496 2.92125 6.17296 1.33325 8.12563 1.33325C10.0776 1.33325 11.665 2.92125 11.665 4.87325C11.665 6.82525 10.0776 8.41259 8.12563 8.41259Z" fill="#141736"/>
</g>
</svg>
