<svg width="16" height="16" viewBox="0 0 16 16" fill="none" xmlns="http://www.w3.org/2000/svg">
<path fill-rule="evenodd" clip-rule="evenodd" d="M6.44874 4.0108C6.47235 4.00107 6.49819 3.99705 6.52388 3.99912C6.54958 4.00118 6.57431 4.00925 6.59581 4.0226C6.6173 4.03594 6.63487 4.05413 6.64689 4.07549C6.65891 4.09685 6.665 4.12069 6.66461 4.14483V5.29815C6.66461 5.4308 6.7209 5.55801 6.82111 5.6518C6.92132 5.7456 7.05723 5.79829 7.19894 5.79829C7.91174 5.79829 9.35016 5.80329 10.7255 6.62052C11.7771 7.24469 12.8522 8.381 13.4987 10.4976C12.4087 9.51432 11.1637 8.98117 10.0736 8.69909C9.40364 8.52589 8.71508 8.42323 8.02074 8.39301C7.73653 8.38132 7.45185 8.38399 7.16795 8.40101H7.15406L7.14871 8.40201H7.14765L7.19894 8.89915L7.14551 8.40101C7.01362 8.41342 6.89136 8.47127 6.80249 8.56332C6.71362 8.65538 6.66447 8.77507 6.66461 8.89915V10.0525C6.66461 10.1605 6.54706 10.2285 6.44874 10.1865L2.19118 7.25269C2.17674 7.24265 2.16176 7.2333 2.1463 7.22468C2.12306 7.21161 2.10383 7.19314 2.09048 7.17105C2.07714 7.14897 2.07012 7.12402 2.07012 7.09865C2.07012 7.07327 2.07714 7.04833 2.09048 7.02625C2.10383 7.00416 2.12306 6.98568 2.1463 6.97261C2.16176 6.964 2.17674 6.95465 2.19118 6.94461L6.44874 4.0108ZM7.73327 9.38528C8.428 9.39653 9.11844 9.48962 9.78831 9.66236C11.2054 10.0305 12.8832 10.8637 13.9988 12.7432C14.0592 12.8446 14.1553 12.9232 14.2708 12.9655C14.3862 13.0079 14.5138 13.0113 14.6317 12.9752C14.7496 12.9392 14.8504 12.8659 14.9168 12.7679C14.9833 12.6699 15.0112 12.5533 14.9959 12.4381C14.5001 8.7271 12.9804 6.77456 11.2983 5.77628C9.96785 4.98607 8.59782 4.83402 7.73327 4.80502V4.14483C7.73337 3.93885 7.67407 3.73665 7.56161 3.55959C7.44916 3.38252 7.28773 3.23715 7.09435 3.13881C6.90098 3.04048 6.68283 2.99282 6.46293 3.00087C6.24302 3.00893 6.02952 3.07239 5.84494 3.18457L1.5767 6.12538C1.40024 6.22848 1.25472 6.37191 1.15383 6.54218C1.05294 6.71245 1 6.90395 1 7.09865C1 7.29335 1.05294 7.48485 1.15383 7.65512C1.25472 7.82539 1.40024 7.96882 1.5767 8.07192L5.84494 11.0127C6.02952 11.1249 6.24302 11.1884 6.46293 11.1964C6.68283 11.2045 6.90098 11.1568 7.09435 11.0585C7.28773 10.9601 7.44916 10.8148 7.56161 10.6377C7.67407 10.4606 7.73337 10.2585 7.73327 10.0525V9.38528Z" fill="#141736"/>
</svg>
