<svg width="16" height="16" viewBox="0 0 16 16" fill="none" xmlns="http://www.w3.org/2000/svg">
<mask id="mask0_1374_1438" style="mask-type:alpha" maskUnits="userSpaceOnUse" x="1" y="1" width="14" height="14">
<path fill-rule="evenodd" clip-rule="evenodd" d="M1.24533 1.33325H14.2299V14.3179H1.24533V1.33325Z" fill="white"/>
</mask>
<g mask="url(#mask0_1374_1438)">
<path fill-rule="evenodd" clip-rule="evenodd" d="M7.73786 2.33325C4.70919 2.33325 2.24519 4.79659 2.24519 7.82525C2.24519 10.8539 4.70919 13.3179 7.73786 13.3179C10.7659 13.3179 13.2299 10.8539 13.2299 7.82525C13.2299 4.79659 10.7659 2.33325 7.73786 2.33325ZM7.73786 14.3179C4.15786 14.3179 1.24519 11.4053 1.24519 7.82525C1.24519 4.24525 4.15786 1.33325 7.73786 1.33325C11.3179 1.33325 14.2299 4.24525 14.2299 7.82525C14.2299 11.4053 11.3179 14.3179 7.73786 14.3179Z" fill="#141736"/>
</g>
<mask id="mask1_1374_1438" style="mask-type:alpha" maskUnits="userSpaceOnUse" x="11" y="11" width="4" height="5">
<path fill-rule="evenodd" clip-rule="evenodd" d="M11.4053 11.8044H14.7547V15.1476H11.4053V11.8044Z" fill="white"/>
</mask>
<g mask="url(#mask1_1374_1438)">
<path fill-rule="evenodd" clip-rule="evenodd" d="M14.2548 15.1476C14.1275 15.1476 13.9995 15.0989 13.9015 15.0016L11.5521 12.6589C11.3568 12.4636 11.3561 12.1469 11.5515 11.9516C11.7461 11.7549 12.0628 11.7563 12.2588 11.9503L14.6081 14.2936C14.8035 14.4889 14.8041 14.8049 14.6088 15.0003C14.5115 15.0989 14.3828 15.1476 14.2548 15.1476Z" fill="#141736"/>
</g>
</svg>
