<svg width="16" height="16" viewBox="0 0 16 16" fill="none" xmlns="http://www.w3.org/2000/svg">
<path d="M5.00485 10.3969C5.11076 10.291 5.27648 10.2814 5.39326 10.3681L5.42672 10.3969L7.99998 12.9701L10.5732 10.3969C10.6791 10.291 10.8449 10.2814 10.9617 10.3681L10.9951 10.3969C11.101 10.5028 11.1106 10.6686 11.024 10.7854L10.9951 10.8188L8.21091 13.603C8.10501 13.7089 7.93929 13.7185 7.8225 13.6319L7.78905 13.603L5.00485 10.8188C4.88836 10.7023 4.88836 10.5134 5.00485 10.3969Z" fill="#141736" stroke="#141736"/>
<path d="M10.9951 5.60306C10.8892 5.70896 10.7235 5.71859 10.6067 5.63194L10.5733 5.60306L8.00002 3.02993L5.42676 5.60306C5.32085 5.70896 5.15513 5.71859 5.03835 5.63194L5.00489 5.60306C4.89899 5.49715 4.88936 5.33143 4.97601 5.21465L5.00489 5.18119L7.78908 2.397C7.89499 2.29109 8.06071 2.28146 8.1775 2.36811L8.21095 2.397L10.9951 5.18119C11.1116 5.29768 11.1116 5.48656 10.9951 5.60306Z" fill="#141736" stroke="#141736"/>
</svg>
