<svg width="17" height="16" viewBox="0 0 17 16" fill="none" xmlns="http://www.w3.org/2000/svg">
<mask id="mask0_897_7335" style="mask-type:alpha" maskUnits="userSpaceOnUse" x="1" y="2" width="14" height="13">
<path fill-rule="evenodd" clip-rule="evenodd" d="M1.87729 2.00024H14.8766V14.9996H1.87729V2.00024Z" fill="white"/>
</mask>
<g mask="url(#mask0_897_7335)">
<path fill-rule="evenodd" clip-rule="evenodd" d="M7.74722 9.8786L10.1852 13.8339C10.2919 14.0073 10.4586 14.0053 10.5259 13.9959C10.5932 13.9866 10.7552 13.9453 10.8139 13.7486L13.8626 3.45193C13.9159 3.26993 13.8179 3.14593 13.7739 3.10193C13.7312 3.05793 13.6092 2.96393 13.4326 3.01393L3.12855 6.03126C2.93322 6.0886 2.89055 6.2526 2.88122 6.31993C2.87189 6.3886 2.86922 6.5586 3.04189 6.66726L7.04255 9.16926L10.5772 5.59726C10.7712 5.40126 11.0879 5.39926 11.2846 5.59326C11.4812 5.78726 11.4826 6.1046 11.2886 6.3006L7.74722 9.8786ZM10.4739 14.9999C10.0099 14.9999 9.58456 14.7639 9.33389 14.3586L6.74922 10.1646L2.51189 7.5146C2.05522 7.2286 1.81655 6.71926 1.89055 6.18393C1.96389 5.6486 2.33122 5.22326 2.84722 5.07193L13.1512 2.0546C13.6252 1.91593 14.1332 2.04726 14.4826 2.39526C14.8319 2.7466 14.9619 3.25993 14.8206 3.73593L11.7719 14.0319C11.6192 14.5499 11.1926 14.9159 10.6586 14.9873C10.5959 14.9953 10.5352 14.9999 10.4739 14.9999Z" fill="#141736"/>
</g>
</svg>
