<svg width="17" height="16" viewBox="0 0 17 16" fill="none" xmlns="http://www.w3.org/2000/svg">
<mask id="mask0_1374_1509" style="mask-type:alpha" maskUnits="userSpaceOnUse" x="1" y="1" width="14" height="15">
<path fill-rule="evenodd" clip-rule="evenodd" d="M1.69672 1.33374H14.5533V15.1477H1.69672V1.33374Z" fill="white"/>
</mask>
<g mask="url(#mask0_1374_1509)">
<path fill-rule="evenodd" clip-rule="evenodd" d="M5.16485 11.6271C5.31751 11.6271 5.47018 11.6464 5.61951 11.6864C6.07018 11.8077 6.46151 12.1091 6.69351 12.5137C6.84418 12.7677 6.92751 13.0644 6.93018 13.3671C6.93018 13.8004 7.27818 14.1477 7.70618 14.1477H8.54151C8.96751 14.1477 9.31551 13.8024 9.31751 13.3764C9.31485 12.9057 9.49885 12.4584 9.83551 12.1217C10.1675 11.7897 10.6315 11.5904 11.0955 11.6037C11.3995 11.6111 11.6922 11.6931 11.9502 11.8397C12.3215 12.0524 12.7955 11.9257 13.0102 11.5591L13.4528 10.8211C13.5515 10.6511 13.5802 10.4377 13.5275 10.2411C13.4755 10.0444 13.3448 9.87374 13.1688 9.77307C12.7568 9.53574 12.4628 9.15307 12.3408 8.69441C12.2202 8.24441 12.2862 7.75307 12.5215 7.34841C12.6748 7.08174 12.8995 6.85707 13.1688 6.70241C13.5302 6.49107 13.6568 6.01841 13.4468 5.65041C13.4382 5.63574 13.4302 5.62041 13.4235 5.60441L13.0328 4.92707C12.8202 4.55707 12.3468 4.42974 11.9755 4.64107C11.5742 4.87841 11.0968 4.94641 10.6382 4.82574C10.1802 4.70707 9.79618 4.41707 9.55685 4.00774C9.40351 3.75174 9.32018 3.45374 9.31751 3.15041C9.32351 2.92241 9.24351 2.71774 9.09818 2.56774C8.95351 2.41841 8.75018 2.33374 8.54151 2.33374H7.70618C7.49951 2.33374 7.30618 2.41441 7.16018 2.55974C7.01485 2.70574 6.93551 2.89974 6.93685 3.10641C6.92285 4.08107 6.12618 4.86574 5.16151 4.86574C4.85218 4.86241 4.55418 4.77907 4.29551 4.62441C3.93218 4.41774 3.45751 4.54507 3.24485 4.91507L2.79351 5.65707C2.58685 6.01574 2.71351 6.48974 3.08151 6.70374C3.62751 7.01974 3.96818 7.60907 3.96818 8.24107C3.96818 8.87307 3.62751 9.46174 3.08018 9.77841C2.71418 9.99041 2.58751 10.4617 2.79951 10.8284L3.22018 11.5537C3.32418 11.7411 3.49418 11.8764 3.69085 11.9317C3.88685 11.9864 4.10285 11.9631 4.28285 11.8631C4.54751 11.7077 4.85551 11.6271 5.16485 11.6271ZM8.54151 15.1477H7.70618C6.72685 15.1477 5.93018 14.3517 5.93018 13.3724C5.92885 13.2517 5.89418 13.1264 5.82951 13.0177C5.72485 12.8351 5.55551 12.7044 5.36018 12.6524C5.16618 12.6004 4.95351 12.6291 4.77885 12.7304C4.36018 12.9637 3.86751 13.0204 3.41685 12.8937C2.96685 12.7664 2.57818 12.4571 2.35018 12.0471L1.93351 11.3291C1.44618 10.4837 1.73618 9.40041 2.58018 8.91241C2.81951 8.77441 2.96818 8.51707 2.96818 8.24107C2.96818 7.96507 2.81951 7.70707 2.58018 7.56907C1.73551 7.07841 1.44618 5.99241 1.93285 5.14707L2.38485 4.40507C2.86551 3.56907 3.95218 3.27441 4.79951 3.76107C4.91485 3.82974 5.04018 3.86441 5.16751 3.86574C5.58285 3.86574 5.93018 3.52307 5.93685 3.10174C5.93418 2.63707 6.11751 2.19107 6.45151 1.85441C6.78685 1.51841 7.23218 1.33374 7.70618 1.33374H8.54151C9.01885 1.33374 9.48285 1.52974 9.81551 1.87041C10.1475 2.21307 10.3308 2.68307 10.3168 3.15974C10.3182 3.26707 10.3535 3.39107 10.4175 3.49974C10.5235 3.67974 10.6908 3.80641 10.8895 3.85841C11.0882 3.90774 11.2962 3.88107 11.4728 3.77641C12.3262 3.28907 13.4122 3.58107 13.8995 4.42774L14.3148 5.14707C14.3255 5.16641 14.3348 5.18507 14.3428 5.20441C14.7842 6.03841 14.4895 7.08841 13.6695 7.56774C13.5502 7.63641 13.4535 7.73241 13.3868 7.84841C13.2835 8.02774 13.2548 8.24107 13.3068 8.43707C13.3602 8.63707 13.4875 8.80307 13.6668 8.90574C14.0715 9.13841 14.3735 9.53041 14.4942 9.98307C14.6148 10.4351 14.5488 10.9257 14.3135 11.3304L13.8708 12.0677C13.3835 12.9051 12.2975 13.1951 11.4528 12.7071C11.3402 12.6424 11.2102 12.6071 11.0808 12.6037H11.0768C10.8842 12.6037 10.6862 12.6857 10.5422 12.8291C10.3962 12.9751 10.3162 13.1697 10.3175 13.3764C10.3128 14.3557 9.51618 15.1477 8.54151 15.1477Z" fill="#141736"/>
</g>
<path fill-rule="evenodd" clip-rule="evenodd" d="M8.12678 6.98315C7.43345 6.98315 6.86945 7.54782 6.86945 8.24115C6.86945 8.93449 7.43345 9.49782 8.12678 9.49782C8.82012 9.49782 9.38412 8.93449 9.38412 8.24115C9.38412 7.54782 8.82012 6.98315 8.12678 6.98315ZM8.12678 10.4978C6.88212 10.4978 5.86945 9.48582 5.86945 8.24115C5.86945 6.99649 6.88212 5.98315 8.12678 5.98315C9.37145 5.98315 10.3841 6.99649 10.3841 8.24115C10.3841 9.48582 9.37145 10.4978 8.12678 10.4978Z" fill="#141736"/>
</svg>
