<svg width="16" height="16" viewBox="0 0 16 16" fill="none" xmlns="http://www.w3.org/2000/svg">
<path fill-rule="evenodd" clip-rule="evenodd" d="M7.99973 6.42749C7.11306 6.42749 6.3924 7.14882 6.3924 8.03549C6.3924 8.92149 7.11306 9.64216 7.99973 9.64216C8.88639 9.64216 9.60773 8.92149 9.60773 8.03549C9.60773 7.14882 8.88639 6.42749 7.99973 6.42749ZM7.99973 10.6422C6.56173 10.6422 5.3924 9.47282 5.3924 8.03549C5.3924 6.59749 6.56173 5.42749 7.99973 5.42749C9.43773 5.42749 10.6077 6.59749 10.6077 8.03549C10.6077 9.47282 9.43773 10.6422 7.99973 10.6422Z" fill="#141736"/>
<mask id="mask0_3426_92615" style="mask-type:alpha" maskUnits="userSpaceOnUse" x="1" y="2" width="14" height="12">
<path fill-rule="evenodd" clip-rule="evenodd" d="M1.33344 2.66675H14.6667V13.4034H1.33344V2.66675Z" fill="white"/>
</mask>
<g mask="url(#mask0_3426_92615)">
<path fill-rule="evenodd" clip-rule="evenodd" d="M2.37994 8.03499C3.61994 10.7743 5.70861 12.403 7.99994 12.4037C10.2913 12.403 12.3799 10.7743 13.6199 8.03499C12.3799 5.29633 10.2913 3.66766 7.99994 3.66699C5.70928 3.66766 3.61994 5.29633 2.37994 8.03499ZM8.00127 13.4037H7.9986H7.99794C5.2406 13.4017 2.7646 11.469 1.37394 8.23234C1.31994 8.10634 1.31994 7.96367 1.37394 7.83767C2.7646 4.60167 5.24127 2.669 7.99794 2.667C7.99927 2.66634 7.99927 2.66634 7.99994 2.667C8.00127 2.66634 8.00127 2.66634 8.00194 2.667C10.7593 2.669 13.2353 4.60167 14.6259 7.83767C14.6806 7.96367 14.6806 8.10634 14.6259 8.23234C13.2359 11.469 10.7593 13.4017 8.00194 13.4037H8.00127Z" fill="#141736"/>
</g>
</svg>
