<svg width="17" height="16" viewBox="0 0 17 16" fill="none" xmlns="http://www.w3.org/2000/svg">
<path fill-rule="evenodd" clip-rule="evenodd" d="M11.2663 1.3335C13.5256 1.3335 15.0436 2.91883 15.0436 5.2775V10.7228C15.0436 13.0815 13.5256 14.6668 11.265 14.6668H5.4863C3.22763 14.6668 1.7103 13.0815 1.7103 10.7228V5.2775C1.7103 2.91883 3.22763 1.3335 5.4863 1.3335H11.2663ZM11.2663 2.3335H5.4863C3.8003 2.3335 2.7103 3.48883 2.7103 5.2775V10.7228C2.7103 12.5115 3.8003 13.6668 5.4863 13.6668H11.265C12.953 13.6668 14.0436 12.5115 14.0436 10.7228V5.2775C14.0436 3.48883 12.953 2.3335 11.2663 2.3335Z" fill="#141736"/>
<rect x="9.34653" y="1.9668" width="1" height="11.8822" fill="#141736"/>
</svg>
