<svg width="17" height="16" viewBox="0 0 17 16" fill="none" xmlns="http://www.w3.org/2000/svg">
<path fill-rule="evenodd" clip-rule="evenodd" d="M8.50181 2.33374C5.37195 2.33374 2.83514 4.87055 2.83514 8.00041C2.83514 11.1303 5.37195 13.6671 8.50181 13.6671C11.6317 13.6671 14.1685 11.1303 14.1685 8.00041C14.1685 4.87055 11.6317 2.33374 8.50181 2.33374ZM1.83514 8.00041C1.83514 4.31826 4.81967 1.33374 8.50181 1.33374C12.184 1.33374 15.1685 4.31826 15.1685 8.00041C15.1685 11.6825 12.184 14.6671 8.50181 14.6671C4.81967 14.6671 1.83514 11.6825 1.83514 8.00041Z" fill="#141736"/>
<path fill-rule="evenodd" clip-rule="evenodd" d="M8.27618 4.73145C8.55233 4.73145 8.77618 4.9553 8.77618 5.23145V8.17884L11.0457 9.53271C11.2828 9.67419 11.3604 9.98112 11.2189 10.2183C11.0774 10.4554 10.7705 10.533 10.5334 10.3915L8.02003 8.89218C7.86881 8.80197 7.77618 8.63886 7.77618 8.46278V5.23145C7.77618 4.9553 8.00004 4.73145 8.27618 4.73145Z" fill="#141736"/>
</svg>
