<svg width="17" height="16" viewBox="0 0 17 16" fill="none" xmlns="http://www.w3.org/2000/svg">
<path fill-rule="evenodd" clip-rule="evenodd" d="M5.61193 2.3335C3.92527 2.3335 2.83527 3.48883 2.83527 5.2775V10.7228C2.83527 12.5115 3.92527 13.6668 5.61193 13.6668H11.3906C13.0779 13.6668 14.1686 12.5115 14.1686 10.7228V5.2775C14.1686 3.48883 13.0786 2.3335 11.3913 2.3335H5.61193ZM11.3906 14.6668H5.61193C3.3526 14.6668 1.83527 13.0815 1.83527 10.7228V5.2775C1.83527 2.91883 3.3526 1.3335 5.61193 1.3335H11.3913C13.6506 1.3335 15.1686 2.91883 15.1686 5.2775V10.7228C15.1686 13.0815 13.6506 14.6668 11.3906 14.6668Z" fill="#141736"/>
<path fill-rule="evenodd" clip-rule="evenodd" d="M10.762 9.84511C10.6747 9.84511 10.5867 9.82244 10.506 9.77511L8.24534 8.42644C8.09468 8.33578 8.00134 8.17244 8.00134 7.99711V5.08911C8.00134 4.81311 8.22534 4.58911 8.50134 4.58911C8.77734 4.58911 9.00134 4.81311 9.00134 5.08911V7.71311L11.0187 8.91511C11.2553 9.05711 11.3333 9.36378 11.192 9.60111C11.098 9.75778 10.932 9.84511 10.762 9.84511Z" fill="#141736"/>
</svg>
