<svg width="17" height="16" viewBox="0 0 17 16" fill="none" xmlns="http://www.w3.org/2000/svg">
<mask id="mask0_2944_80556" style="mask-type:alpha" maskUnits="userSpaceOnUse" x="1" y="5" width="14" height="11">
<path fill-rule="evenodd" clip-rule="evenodd" d="M1.45847 5.86279H14.7915V15.0255H1.45847V5.86279Z" fill="white"/>
</mask>
<g mask="url(#mask0_2944_80556)">
<path fill-rule="evenodd" clip-rule="evenodd" d="M11.8351 15.0255H4.41513C2.78513 15.0255 1.45847 13.6995 1.45847 12.0688V8.81879C1.45847 7.18879 2.78513 5.86279 4.41513 5.86279H5.03713C5.31313 5.86279 5.53713 6.08679 5.53713 6.36279C5.53713 6.63879 5.31313 6.86279 5.03713 6.86279H4.41513C3.3358 6.86279 2.45847 7.74013 2.45847 8.81879V12.0688C2.45847 13.1481 3.3358 14.0255 4.41513 14.0255H11.8351C12.9138 14.0255 13.7918 13.1481 13.7918 12.0688V8.81279C13.7918 7.73746 12.9171 6.86279 11.8425 6.86279H11.2138C10.9378 6.86279 10.7138 6.63879 10.7138 6.36279C10.7138 6.08679 10.9378 5.86279 11.2138 5.86279H11.8425C13.4685 5.86279 14.7918 7.18613 14.7918 8.81279V12.0688C14.7918 13.6995 13.4651 15.0255 11.8351 15.0255Z" fill="#141736"/>
</g>
<mask id="mask1_2944_80556" style="mask-type:alpha" maskUnits="userSpaceOnUse" x="7" y="1" width="2" height="10">
<path fill-rule="evenodd" clip-rule="evenodd" d="M7.62487 1.3335H8.62487V10.3608H7.62487V1.3335Z" fill="white"/>
</mask>
<g mask="url(#mask1_2944_80556)">
<path fill-rule="evenodd" clip-rule="evenodd" d="M8.12487 10.3608C7.84887 10.3608 7.62487 10.1368 7.62487 9.86083V1.8335C7.62487 1.5575 7.84887 1.3335 8.12487 1.3335C8.40087 1.3335 8.62487 1.5575 8.62487 1.8335V9.86083C8.62487 10.1368 8.40087 10.3608 8.12487 10.3608Z" fill="#141736"/>
</g>
<path fill-rule="evenodd" clip-rule="evenodd" d="M6.18153 4.28601C6.0542 4.28601 5.9262 4.23734 5.82887 4.14001C5.63353 3.94534 5.6322 3.62934 5.82753 3.43334L7.77087 1.48134C7.9582 1.29268 8.29153 1.29268 8.47887 1.48134L10.4229 3.43334C10.6175 3.62934 10.6169 3.94534 10.4215 4.14001C10.2255 4.33468 9.90953 4.33468 9.71487 4.13868L8.12487 2.54268L6.53553 4.13868C6.4382 4.23734 6.30953 4.28601 6.18153 4.28601Z" fill="#141736"/>
</svg>
