<svg width="16" height="16" viewBox="0 0 16 16" fill="none" xmlns="http://www.w3.org/2000/svg">
<path fill-rule="evenodd" clip-rule="evenodd" d="M14.3796 10.597H11.6809C10.4162 10.597 9.3869 9.56837 9.38623 8.30437C9.38623 7.03903 10.4156 6.0097 11.6809 6.00903H14.3796C14.6556 6.00903 14.8796 6.23303 14.8796 6.50903C14.8796 6.78503 14.6556 7.00903 14.3796 7.00903H11.6809C10.9669 7.0097 10.3862 7.59037 10.3862 8.3037C10.3862 9.01637 10.9676 9.59703 11.6809 9.59703H14.3796C14.6556 9.59703 14.8796 9.82103 14.8796 10.097C14.8796 10.373 14.6556 10.597 14.3796 10.597Z" fill="#141736"/>
<path fill-rule="evenodd" clip-rule="evenodd" d="M11.986 8.76245H11.778C11.502 8.76245 11.278 8.53845 11.278 8.26245C11.278 7.98645 11.502 7.76245 11.778 7.76245H11.986C12.262 7.76245 12.486 7.98645 12.486 8.26245C12.486 8.53845 12.262 8.76245 11.986 8.76245Z" fill="#141736"/>
<mask id="mask0_1474_1743" style="mask-type:alpha" maskUnits="userSpaceOnUse" x="1" y="2" width="14" height="13">
<path fill-rule="evenodd" clip-rule="evenodd" d="M1.12044 2H14.8795V14.7819H1.12044V2Z" fill="white"/>
</mask>
<g mask="url(#mask0_1474_1743)">
<path fill-rule="evenodd" clip-rule="evenodd" d="M5.11884 3C3.46551 3 2.12018 4.34533 2.12018 5.99867V10.7833C2.12018 12.4367 3.46551 13.782 5.11884 13.782H10.8815C12.5348 13.782 13.8795 12.4367 13.8795 10.7833V5.99867C13.8795 4.34533 12.5348 3 10.8815 3H5.11884ZM10.8815 14.782H5.11883C2.91416 14.782 1.12016 12.988 1.12016 10.7833V5.99867C1.12016 3.79333 2.91416 2 5.11883 2H10.8815C13.0862 2 14.8795 3.79333 14.8795 5.99867V10.7833C14.8795 12.988 13.0862 14.782 10.8815 14.782Z" fill="#141736"/>
</g>
<path fill-rule="evenodd" clip-rule="evenodd" d="M8.2435 6.02539H4.64417C4.36817 6.02539 4.14417 5.80139 4.14417 5.52539C4.14417 5.24939 4.36817 5.02539 4.64417 5.02539H8.2435C8.5195 5.02539 8.7435 5.24939 8.7435 5.52539C8.7435 5.80139 8.5195 6.02539 8.2435 6.02539Z" fill="#141736"/>
</svg>
