<svg width="16" height="16" viewBox="0 0 16 16" fill="none" xmlns="http://www.w3.org/2000/svg">
<mask id="mask0_3747_116871" style="mask-type:alpha" maskUnits="userSpaceOnUse" x="2" y="1" width="12" height="14">
<path fill-rule="evenodd" clip-rule="evenodd" d="M2.34442 1.3335H13.6556V14.9039H2.34442V1.3335Z" fill="white"/>
</mask>
<g mask="url(#mask0_3747_116871)">
<path fill-rule="evenodd" clip-rule="evenodd" d="M8.00005 2.33325C7.43471 2.33325 3.86738 3.58925 3.45605 3.93259C3.33538 4.05392 3.33071 4.26592 3.35605 5.68392C3.36871 6.36792 3.38538 7.29792 3.38538 8.58592C3.38538 12.0533 7.20005 13.5926 7.99938 13.8759C8.79805 13.5913 12.6147 12.0433 12.6147 8.58592C12.6147 7.29925 12.6314 6.36992 12.6434 5.68592C12.6694 4.26659 12.6647 4.05459 12.536 3.92592C12.132 3.58925 8.56538 2.33325 8.00005 2.33325ZM8.00004 14.9039C7.95138 14.9039 7.90271 14.8973 7.85538 14.8826C7.63204 14.8153 2.38538 13.1739 2.38538 8.58592C2.38538 7.30592 2.36871 6.38125 2.35671 5.70259C2.32605 4.00925 2.31938 3.65592 2.75605 3.21859C3.28071 2.69392 7.24471 1.33325 8.00004 1.33325C8.75538 1.33325 12.7194 2.69392 13.2434 3.21859C13.6807 3.65592 13.674 4.00925 13.6434 5.70459C13.6314 6.38325 13.6147 7.30792 13.6147 8.58592C13.6147 13.1739 8.36804 14.8153 8.14471 14.8826C8.09738 14.8973 8.04871 14.9039 8.00004 14.9039Z" fill="#141736"/>
</g>
</svg>
