<svg width="24" height="25" viewBox="0 0 24 25" fill="none" xmlns="http://www.w3.org/2000/svg">
<path d="M21.101 10.5757H19.8979V9.39941C19.8979 8.89724 19.4952 8.48779 18.999 8.48779C18.5038 8.48779 18.1 8.89724 18.1 9.39941V10.5757H16.899C16.4027 10.5757 16 10.9851 16 11.4873C16 11.9894 16.4027 12.3989 16.899 12.3989H18.1V13.5762C18.1 14.0783 18.5038 14.4878 18.999 14.4878C19.4952 14.4878 19.8979 14.0783 19.8979 13.5762V12.3989H21.101C21.5962 12.3989 22 11.9894 22 11.4873C22 10.9851 21.5962 10.5757 21.101 10.5757" fill="#96A9C8"/>
<path d="M9.5 16.0034C5.45422 16.0034 2 16.6502 2 19.2345C2 21.8178 5.4332 22.4879 9.5 22.4879C13.5448 22.4879 17 21.8411 17 19.2568C17 16.6725 13.5668 16.0034 9.5 16.0034" fill="#96A9C8"/>
<path opacity="0.4" d="M9.49999 13.542C12.2546 13.542 14.4626 11.3055 14.4626 8.51541C14.4626 5.72533 12.2546 3.48779 9.49999 3.48779C6.74541 3.48779 4.53735 5.72533 4.53735 8.51541C4.53735 11.3055 6.74541 13.542 9.49999 13.542" fill="#96A9C8"/>
</svg>
