<svg width="24" height="24" viewBox="0 0 24 24" fill="none" xmlns="http://www.w3.org/2000/svg">
<path opacity="0.4" d="M16.34 1.99976H7.67C4.28 1.99976 2 4.37976 2 7.91976V16.0898C2 19.6198 4.28 21.9998 7.67 21.9998H16.34C19.73 21.9998 22 19.6198 22 16.0898V7.91976C22 4.37976 19.73 1.99976 16.34 1.99976Z" fill="#96A9C8"/>
<path d="M12.0047 13.4842C11.5227 13.4842 11.1297 13.0912 11.1297 12.6092L11.1297 8.18918C11.1297 7.70718 11.5227 7.31418 12.0047 7.31418C12.4867 7.31418 12.8797 7.70718 12.8797 8.18918L12.8797 12.6092C12.8797 13.0912 12.4867 13.4842 12.0047 13.4842ZM11.9947 16.657C11.5117 16.657 11.1197 16.264 11.1197 15.782C11.1197 15.3 11.5117 14.907 12.0047 14.907C12.4837 14.907 12.8747 15.3 12.8747 15.782C12.8747 16.264 12.4797 16.657 11.9947 16.657Z" fill="#96A9C8"/>
</svg>
