<svg width="24" height="25" viewBox="0 0 24 25" fill="none" xmlns="http://www.w3.org/2000/svg">
<path fill-rule="evenodd" clip-rule="evenodd" d="M3 17.8574V10.2444H21V17.9184C21 21.0574 19.0241 22.9874 15.8628 22.9874H8.12733C4.99561 22.9874 3 21.0174 3 17.8574ZM7.9594 15.3973C7.50495 15.4183 7.12954 15.0573 7.10978 14.5983C7.10978 14.1383 7.46543 13.7583 7.91988 13.7373C8.36444 13.7373 8.72998 14.0883 8.73986 14.5373C8.75961 14.9983 8.40396 15.3783 7.9594 15.3973ZM12.0198 15.3973C11.5653 15.4183 11.1899 15.0573 11.1701 14.5983C11.1701 14.1383 11.5258 13.7583 11.9802 13.7373C12.4248 13.7373 12.7903 14.0883 12.8002 14.5373C12.82 14.9983 12.4643 15.3783 12.0198 15.3973ZM16.0505 19.0775C15.5961 19.0675 15.2305 18.6875 15.2305 18.2275C15.2206 17.7675 15.5862 17.3885 16.0406 17.3785H16.0505C16.5148 17.3785 16.8902 17.7585 16.8902 18.2275C16.8902 18.6975 16.5148 19.0775 16.0505 19.0775ZM11.1701 18.2276C11.1899 18.6876 11.5653 19.0486 12.0198 19.0276C12.4643 19.0086 12.82 18.6286 12.8002 18.1686C12.7903 17.7186 12.4248 17.3676 11.9802 17.3676C11.5258 17.3886 11.1701 17.7676 11.1701 18.2276ZM7.09989 18.2276C7.11965 18.6876 7.49506 19.0486 7.94951 19.0276C8.39407 19.0086 8.74973 18.6286 8.72997 18.1686C8.72009 17.7186 8.35456 17.3676 7.90999 17.3676C7.45554 17.3886 7.09989 17.7676 7.09989 18.2276ZM15.2404 14.5883C15.2404 14.1283 15.596 13.7583 16.0505 13.7483C16.4951 13.7483 16.8507 14.1073 16.8705 14.5483C16.8804 15.0083 16.5247 15.3883 16.0801 15.3973C15.6257 15.4073 15.2503 15.0573 15.2404 14.5983V14.5883Z" fill="#96A9C8"/>
<path opacity="0.4" d="M3.00346 10.2443C3.01631 9.6573 3.0657 8.4923 3.15857 8.1173C3.63277 6.0083 5.24309 4.66829 7.54496 4.47729H16.456C18.7382 4.67829 20.3682 6.0273 20.8424 8.1173C20.9343 8.4823 20.9837 9.6563 20.9965 10.2443H3.00346Z" fill="#96A9C8"/>
<path d="M8.30486 7.5773C8.73955 7.5773 9.06556 7.2483 9.06556 6.8073V3.7583C9.06556 3.3173 8.73955 2.9873 8.30486 2.9873C7.87017 2.9873 7.54416 3.3173 7.54416 3.7583V6.8073C7.54416 7.2483 7.87017 7.5773 8.30486 7.5773" fill="#96A9C8"/>
<path d="M15.6949 7.5773C16.1197 7.5773 16.4556 7.2483 16.4556 6.8073V3.7583C16.4556 3.3173 16.1197 2.9873 15.6949 2.9873C15.2603 2.9873 14.9342 3.3173 14.9342 3.7583V6.8073C14.9342 7.2483 15.2603 7.5773 15.6949 7.5773" fill="#96A9C8"/>
</svg>
