<svg width="24" height="25" viewBox="0 0 24 25" fill="none" xmlns="http://www.w3.org/2000/svg">
<path opacity="0.4" d="M16.3403 2.9873H7.67029C4.28029 2.9873 2.00029 5.3673 2.00029 8.9073V17.0773C2.00029 20.6073 4.28029 22.9873 7.67029 22.9873H16.3403C19.7303 22.9873 22.0003 20.6073 22.0003 17.0773V8.9073C22.0003 5.3673 19.7303 2.9873 16.3403 2.9873" fill="#96A9C8"/>
<path d="M10.8134 16.2353C10.5894 16.2353 10.3654 16.1503 10.1944 15.9793L7.82138 13.6063C7.47938 13.2643 7.47938 12.7103 7.82138 12.3693C8.16338 12.0273 8.71638 12.0263 9.05838 12.3683L10.8134 14.1233L14.9414 9.99527C15.2834 9.65327 15.8364 9.65327 16.1784 9.99527C16.5204 10.3373 16.5204 10.8913 16.1784 11.2333L11.4324 15.9793C11.2614 16.1503 11.0374 16.2353 10.8134 16.2353" fill="#96A9C8"/>
</svg>
