<svg width="24" height="24" viewBox="0 0 24 24" fill="none" xmlns="http://www.w3.org/2000/svg">
<path opacity="0.4" d="M21.9999 12C21.9999 17.523 17.5229 22 11.9999 22C6.4769 22 1.9999 17.523 1.9999 12C1.9999 6.478 6.4769 2 11.9999 2C17.5229 2 21.9999 6.478 21.9999 12" fill="#96A9C8"/>
<path d="M15.8598 8.70505L14.2398 13.8251C14.1798 14.0351 14.0098 14.2051 13.7998 14.2661L8.6998 15.8651C8.3598 15.9761 8.0298 15.6451 8.1398 15.3051L9.7398 10.1751C9.7998 9.96505 9.9698 9.80505 10.1798 9.73505L15.2998 8.13505C15.6498 8.02505 15.9698 8.35505 15.8598 8.70505" fill="#96A9C8"/>
</svg>
