<svg width="24" height="25" viewBox="0 0 24 25" fill="none" xmlns="http://www.w3.org/2000/svg">
<path opacity="0.4" d="M16.191 2.9873H7.81C4.77 2.9873 3 4.7673 3 7.8173V18.1473C3 21.2473 4.77 22.9873 7.81 22.9873H16.191C19.28 22.9873 21 21.2473 21 18.1473V7.8173C21 4.7673 19.28 2.9873 16.191 2.9873" fill="#96A9C8"/>
<path fill-rule="evenodd" clip-rule="evenodd" d="M8.08 7.63745V7.64745C7.649 7.64745 7.3 7.99745 7.3 8.42745C7.3 8.85745 7.649 9.20745 8.08 9.20745H11.069C11.5 9.20745 11.85 8.85745 11.85 8.41645C11.85 7.98745 11.5 7.63745 11.069 7.63745H8.08ZM15.92 13.7274H8.08C7.649 13.7274 7.3 13.3774 7.3 12.9474C7.3 12.5174 7.649 12.1664 8.08 12.1664H15.92C16.35 12.1664 16.7 12.5174 16.7 12.9474C16.7 13.3774 16.35 13.7274 15.92 13.7274ZM15.92 18.2975H8.08001C7.78001 18.3375 7.49001 18.1875 7.33001 17.9375C7.17001 17.6775 7.17001 17.3475 7.33001 17.0975C7.49001 16.8375 7.78001 16.6975 8.08001 16.7275H15.92C16.319 16.7675 16.62 17.1075 16.62 17.5175C16.62 17.9165 16.319 18.2575 15.92 18.2975Z" fill="#96A9C8"/>
</svg>
