<svg width="24" height="24" viewBox="0 0 24 24" fill="none" xmlns="http://www.w3.org/2000/svg">
<path fill-rule="evenodd" clip-rule="evenodd" d="M15.2424 4.73756C15.2424 6.95855 17.0456 8.75902 19.2698 8.75902C19.5147 8.75782 19.759 8.73431 19.9996 8.68878V16.6615C19.9996 20.0156 18.0211 22 14.6621 22H7.34601C3.97815 22 1.99965 20.0156 1.99965 16.6615V9.3561C1.99965 6.00195 3.97815 4 7.34601 4H15.3128C15.2655 4.243 15.242 4.49001 15.2424 4.73756ZM13.1496 14.8966L16.0075 11.2088V11.1912C16.2521 10.8625 16.1897 10.3989 15.8668 10.1463C15.7105 10.0257 15.5119 9.97346 15.3163 10.0016C15.1208 10.0297 14.945 10.1358 14.8292 10.2956L12.4198 13.3951L9.67626 11.2351C9.51962 11.1131 9.32036 11.0592 9.12347 11.0857C8.92657 11.1121 8.74864 11.2166 8.62985 11.3756L5.67528 15.1863C5.57143 15.3158 5.51552 15.4771 5.517 15.6429C5.49985 15.9781 5.71153 16.2826 6.03203 16.3838C6.35254 16.485 6.70103 16.3573 6.87997 16.0732L9.3509 12.8771L12.0944 15.0283C12.2505 15.1541 12.451 15.2111 12.6501 15.1863C12.8491 15.1615 13.0294 15.0569 13.1496 14.8966Z" fill="#96A9C8"/>
<ellipse opacity="0.4" cx="19.4996" cy="4.5" rx="2.5" ry="2.5" fill="#96A9C8"/>
</svg>
