<svg width="24" height="24" viewBox="0 0 24 24" fill="none" xmlns="http://www.w3.org/2000/svg">
<path opacity="0.4" d="M12.02 2C6.21 2 2 6.74 2 12C2 13.68 2.49 15.41 3.35 16.99C3.51 17.25 3.53 17.58 3.42 17.89L2.75 20.13C2.6 20.67 3.06 21.07 3.57 20.91L5.59 20.31C6.14 20.13 6.57 20.36 7.081 20.67C8.541 21.53 10.36 21.97 12 21.97C16.96 21.97 22 18.14 22 11.97C22 6.65 17.7 2 12.02 2" fill="#96A9C8"/>
<path d="M7.5 13.75C7.5 13.3358 7.83579 13 8.25 13H16.75C17.1642 13 17.5 13.3358 17.5 13.75C17.5 14.1642 17.1642 14.5 16.75 14.5H8.25C7.83579 14.5 7.5 14.1642 7.5 13.75Z" fill="#96A9C8"/>
<path d="M7.5 9.75C7.5 9.33579 7.83579 9 8.25 9H13.4167C13.8309 9 14.1667 9.33579 14.1667 9.75C14.1667 10.1642 13.8309 10.5 13.4167 10.5H8.25C7.83579 10.5 7.5 10.1642 7.5 9.75Z" fill="#96A9C8"/>
</svg>
