<svg width="24" height="25" viewBox="0 0 24 25" fill="none" xmlns="http://www.w3.org/2000/svg">
<path opacity="0.4" d="M18.8088 10.0085C18.3573 10.0085 17.7592 9.99855 17.0146 9.99855C15.1987 9.99855 13.7055 8.49555 13.7055 6.66255V3.44655C13.7055 3.19355 13.5026 2.98755 13.253 2.98755H7.96363C5.49517 2.98755 3.5 5.01355 3.5 7.49655V18.2715C3.5 20.8765 5.59022 22.9875 8.16958 22.9875H16.0453C18.5058 22.9875 20.5 20.9745 20.5 18.4895V10.4585C20.5 10.2045 20.298 9.99955 20.0465 10.0005C19.6247 10.0035 19.1168 10.0085 18.8088 10.0085Z" fill="#96A9C8"/>
<path opacity="0.4" d="M16.0841 3.55492C15.7851 3.24392 15.2631 3.45792 15.2631 3.88892V6.52592C15.2631 7.63192 16.1741 8.54192 17.2791 8.54192C17.9771 8.54992 18.9451 8.55192 19.7671 8.54992C20.1881 8.54892 20.4021 8.04592 20.1101 7.74192C19.0551 6.64492 17.1661 4.67892 16.0841 3.55492Z" fill="#96A9C8"/>
<path d="M14.3673 13.224H12.6393V11.497C12.6393 11.086 12.3063 10.752 11.8953 10.752C11.4843 10.752 11.1503 11.086 11.1503 11.497V13.224H9.42331C9.01231 13.224 8.67931 13.558 8.67931 13.969C8.67931 14.38 9.01231 14.714 9.42331 14.714H11.1503V16.44C11.1503 16.851 11.4843 17.185 11.8953 17.185C12.3063 17.185 12.6393 16.851 12.6393 16.44V14.714H14.3673C14.7783 14.714 15.1123 14.38 15.1123 13.969C15.1123 13.558 14.7783 13.224 14.3673 13.224Z" fill="#96A9C8"/>
</svg>
