<svg width="24" height="25" viewBox="0 0 24 25" fill="none" xmlns="http://www.w3.org/2000/svg">
<path d="M12.012 15.818C10.4075 15.818 9.1096 14.568 9.1096 12.998C9.1096 11.428 10.4075 10.168 12.012 10.168C13.6164 10.168 14.8837 11.428 14.8837 12.998C14.8837 14.568 13.6164 15.818 12.012 15.818Z" fill="#96A9C8"/>
<path opacity="0.4" d="M21.23 15.3578C21.0359 15.0578 20.7599 14.7578 20.4023 14.5678C20.1161 14.4278 19.9322 14.1978 19.7686 13.9278C19.2474 13.0678 19.554 11.9378 20.4227 11.4278C21.4447 10.8578 21.7717 9.58779 21.1789 8.59779L20.4942 7.41779C19.9117 6.42779 18.6343 6.07779 17.6225 6.65779C16.7232 7.13779 15.5684 6.81779 15.0472 5.96779C14.8837 5.68779 14.7917 5.38779 14.8121 5.08779C14.8428 4.69779 14.7202 4.32779 14.5362 4.02779C14.1581 3.40779 13.4734 2.98779 12.7171 2.98779H11.2762C10.5301 3.00779 9.84543 3.40779 9.46731 4.02779C9.27314 4.32779 9.16072 4.69779 9.18116 5.08779C9.2016 5.38779 9.10962 5.68779 8.94611 5.96779C8.42491 6.81779 7.2701 7.13779 6.381 6.65779C5.35904 6.07779 4.09181 6.42779 3.49908 7.41779L2.81437 8.59779C2.23185 9.58779 2.55888 10.8578 3.57062 11.4278C4.43928 11.9378 4.74587 13.0678 4.23489 13.9278C4.06116 14.1978 3.8772 14.4278 3.59106 14.5678C3.24359 14.7578 2.937 15.0578 2.77349 15.3578C2.39536 15.9778 2.4158 16.7578 2.79393 17.4078L3.49908 18.6078C3.8772 19.2478 4.58235 19.6478 5.31816 19.6478C5.66563 19.6478 6.07441 19.5478 6.40144 19.3478C6.65693 19.1778 6.96351 19.1178 7.30076 19.1178C8.3125 19.1178 9.16072 19.9478 9.18116 20.9378C9.18116 22.0878 10.1214 22.9878 11.3068 22.9878H12.6967C13.8719 22.9878 14.8121 22.0878 14.8121 20.9378C14.8428 19.9478 15.691 19.1178 16.7028 19.1178C17.0298 19.1178 17.3364 19.1778 17.6021 19.3478C17.9291 19.5478 18.3277 19.6478 18.6854 19.6478C19.411 19.6478 20.1161 19.2478 20.4942 18.6078L21.2096 17.4078C21.5775 16.7378 21.6082 15.9778 21.23 15.3578Z" fill="#96A9C8"/>
</svg>
