<svg width="24" height="24" viewBox="0 0 24 24" fill="none" xmlns="http://www.w3.org/2000/svg">
<rect opacity="0.4" x="2" y="2" width="20" height="20" rx="10" fill="#96A9C8"/>
<path d="M8.50027 9.30147C8.49851 9.34105 8.50529 9.38055 8.52019 9.41754C8.5351 9.45454 8.55782 9.48825 8.58696 9.5166C8.61609 9.54496 8.65103 9.56735 8.68962 9.58241C8.72821 9.59747 8.76963 9.60487 8.81134 9.60417H9.87621C10.0543 9.60417 10.1963 9.46569 10.2196 9.29779C10.3357 8.49387 10.9166 7.90809 11.9517 7.90809C12.8372 7.90809 13.6478 8.32843 13.6478 9.33946C13.6478 10.1176 13.165 10.4755 12.4022 11.0196C11.5335 11.6189 10.8456 12.3186 10.8946 13.4547L10.8985 13.7206C10.8998 13.801 10.9344 13.8777 10.9948 13.9341C11.0552 13.9905 11.1365 14.0221 11.2212 14.0221H12.268C12.3535 14.0221 12.4356 13.9898 12.4961 13.9323C12.5567 13.8749 12.5907 13.7969 12.5907 13.7157V13.587C12.5907 12.7071 12.943 12.451 13.8943 11.7659C14.6804 11.1985 15.5 10.5686 15.5 9.24632C15.5 7.39461 13.853 6.5 12.0498 6.5C10.4145 6.5 8.6229 7.22304 8.50027 9.30147ZM10.51 16.364C10.51 17.0172 11.0585 17.5 11.8136 17.5C12.5997 17.5 13.1405 17.0172 13.1405 16.364C13.1405 15.6875 12.5984 15.212 11.8123 15.212C11.0585 15.212 10.51 15.6875 10.51 16.364Z" fill="#96A9C8"/>
</svg>
