<svg width="24" height="25" viewBox="0 0 24 25" fill="none" xmlns="http://www.w3.org/2000/svg">
<path opacity="0.4" d="M16.34 2.9873H7.67C4.28 2.9873 2 5.3673 2 8.9073V17.0773C2 20.6073 4.28 22.9873 7.67 22.9873H16.34C19.73 22.9873 22 20.6073 22 17.0773V8.9073C22 5.3673 19.73 2.9873 16.34 2.9873" fill="#96A9C8"/>
<path d="M15.5734 16.8018C15.4424 16.8018 15.3104 16.7678 15.1894 16.6968L11.2634 14.3548C11.0374 14.2188 10.8984 13.9738 10.8984 13.7098V8.66284C10.8984 8.24884 11.2344 7.91284 11.6484 7.91284C12.0624 7.91284 12.3984 8.24884 12.3984 8.66284V13.2838L15.9584 15.4068C16.3134 15.6198 16.4304 16.0798 16.2184 16.4358C16.0774 16.6708 15.8284 16.8018 15.5734 16.8018" fill="#96A9C8"/>
</svg>
