<svg width="24" height="24" viewBox="0 0 24 24" fill="none" xmlns="http://www.w3.org/2000/svg">
<path d="M9.34933 14.8577C5.38553 14.8577 2 15.47 2 17.9173C2 20.3665 5.364 20.9999 9.34933 20.9999C13.3131 20.9999 16.6987 20.3876 16.6987 17.9403C16.6987 15.4911 13.3347 14.8577 9.34933 14.8577" fill="#96A9C8"/>
<path opacity="0.4" d="M9.34933 12.5248C12.0489 12.5248 14.2124 10.4062 14.2124 7.76241C14.2124 5.11865 12.0489 3 9.34933 3C6.6507 3 4.48631 5.11865 4.48631 7.76241C4.48631 10.4062 6.6507 12.5248 9.34933 12.5248" fill="#96A9C8"/>
<path opacity="0.4" d="M16.1734 7.84873C16.1734 9.19505 15.7605 10.4513 15.0364 11.4948C14.9611 11.6021 15.0276 11.7468 15.1587 11.7698C15.3407 11.7995 15.5276 11.8177 15.7184 11.8216C17.6167 11.8704 19.3202 10.6736 19.7908 8.87116C20.4885 6.19674 18.4415 3.79541 15.8339 3.79541C15.5511 3.79541 15.2801 3.82416 15.0159 3.87686C14.9797 3.88453 14.9405 3.90177 14.921 3.93244C14.8955 3.97172 14.9141 4.02251 14.9396 4.05605C15.7233 5.13214 16.1734 6.44205 16.1734 7.84873" fill="#96A9C8"/>
<path d="M21.7791 15.1695C21.4317 14.4441 20.5932 13.9468 19.3173 13.7024C18.7155 13.5587 17.0854 13.3546 15.5697 13.3834C15.5472 13.3862 15.5345 13.4016 15.5325 13.4111C15.5296 13.4265 15.5364 13.4495 15.5658 13.4658C16.2664 13.805 18.9738 15.2806 18.6333 18.393C18.6186 18.5291 18.7292 18.644 18.8672 18.6249C19.5335 18.5319 21.2478 18.1707 21.7791 17.0476C22.0736 16.4535 22.0736 15.7636 21.7791 15.1695" fill="#96A9C8"/>
</svg>
