<svg width="24" height="24" viewBox="0 0 24 24" fill="none" xmlns="http://www.w3.org/2000/svg">
<path fill-rule="evenodd" clip-rule="evenodd" d="M21.9964 8.37513H17.7618C15.7911 8.37859 14.1947 9.93514 14.1911 11.8566C14.1884 13.7823 15.7867 15.3458 17.7618 15.3484H22V15.6543C22 19.0136 19.9636 21 16.5173 21H7.48356C4.03644 21 2 19.0136 2 15.6543V8.33786C2 4.97862 4.03644 3 7.48356 3H16.5138C19.96 3 21.9964 4.97862 21.9964 8.33786V8.37513ZM6.73957 8.3673H12.3796H12.3831H12.3902C12.8125 8.36557 13.1538 8.03016 13.152 7.61763C13.1502 7.20596 12.8053 6.87315 12.3831 6.87488H6.73957C6.32001 6.87662 5.97957 7.20856 5.97779 7.61849C5.97601 8.03016 6.31735 8.36557 6.73957 8.3673Z" fill="#96A9C8"/>
<path opacity="0.4" d="M16.0374 12.2968C16.2465 13.248 17.0805 13.9172 18.0326 13.8998H21.2825C21.6787 13.8998 22 13.5717 22 13.1662V10.6346C21.9991 10.23 21.6787 9.90102 21.2825 9.90015H17.9561C16.8731 9.90363 15.9983 10.8026 16 11.9104C16 12.0401 16.0128 12.1698 16.0374 12.2968" fill="#96A9C8"/>
<circle cx="18" cy="11.8999" r="1" fill="#96A9C8"/>
</svg>
