<svg width="17" height="17" viewBox="0 0 17 17" fill="none" xmlns="http://www.w3.org/2000/svg">
<path d="M13.875 2.74365H2.375C2.09844 2.74365 1.875 2.96709 1.875 3.24365V14.7437C1.875 15.0202 2.09844 15.2437 2.375 15.2437H13.875C14.1516 15.2437 14.375 15.0202 14.375 14.7437V3.24365C14.375 2.96709 14.1516 2.74365 13.875 2.74365ZM9.47656 6.47646H11.6391V7.00303H9.47656V6.47646ZM8.125 10.8187C8.02385 11.0107 7.87942 11.1765 7.70312 11.303C7.51875 11.4312 7.31406 11.5249 7.09688 11.5796C6.86965 11.6405 6.63524 11.6704 6.4 11.6687H3.8125V6.33896H6.32812C6.58281 6.33896 6.81406 6.3624 7.025 6.40615C7.23438 6.4499 7.4125 6.5249 7.5625 6.62646C7.71094 6.72803 7.82812 6.86397 7.91094 7.03271C7.99219 7.1999 8.03438 7.40928 8.03438 7.65771C8.03438 7.92647 7.97344 8.14834 7.85156 8.32803C7.72813 8.50771 7.55 8.65303 7.30781 8.76709C7.6375 8.86084 7.87969 9.02803 8.03906 9.2624C8.20156 9.4999 8.28125 9.78428 8.28125 10.1187C8.28125 10.3905 8.22969 10.6233 8.125 10.8187ZM12.4812 9.99365H9.69375C9.69375 10.2968 9.79844 10.5874 9.95625 10.7437C10.1156 10.8983 10.3438 10.9765 10.6422 10.9765C10.8578 10.9765 11.0406 10.9218 11.1969 10.814C11.3516 10.7062 11.4453 10.5921 11.4797 10.4733H12.4141C12.2641 10.9374 12.0359 11.2687 11.7266 11.4687C11.4203 11.6687 11.0453 11.7687 10.6094 11.7687C10.3047 11.7687 10.0312 11.7187 9.78594 11.6233C9.55 11.5312 9.3375 11.3905 9.1625 11.2093C8.98995 11.0231 8.85658 10.8042 8.77031 10.5655C8.675 10.3015 8.62813 10.0233 8.63125 9.74365C8.63125 9.45459 8.67969 9.18584 8.77344 8.93584C8.95312 8.4499 9.32656 8.06084 9.80313 7.85928C10.0578 7.75303 10.3313 7.6999 10.6078 7.70303C10.9359 7.70303 11.2203 7.76553 11.4672 7.89365C11.7049 8.016 11.9112 8.19135 12.0703 8.40615C12.2281 8.62021 12.3391 8.86396 12.4094 9.13896C12.4766 9.40928 12.5 9.69365 12.4812 9.99365ZM10.575 8.4999C10.4062 8.4999 10.2641 8.52959 10.1547 8.5874C10.0453 8.64522 9.95469 8.71709 9.88594 8.7999C9.82046 8.87986 9.77207 8.97239 9.74375 9.07178C9.71875 9.15459 9.70156 9.23897 9.69531 9.3249H11.4219C11.3969 9.05459 11.3031 8.85459 11.1781 8.71396C11.0469 8.5749 10.8359 8.4999 10.575 8.4999ZM6.69219 8.34209C6.82812 8.24365 6.89375 8.08115 6.89375 7.85771C6.89844 7.75146 6.87656 7.64678 6.82969 7.55147C6.7875 7.4749 6.725 7.41084 6.64844 7.36553C6.56905 7.31739 6.48088 7.28552 6.38906 7.27178C6.28906 7.25303 6.1875 7.24365 6.0875 7.24521H4.98906V8.49053H6.17812C6.38281 8.49209 6.55625 8.44209 6.69219 8.34209ZM6.87656 9.46709C6.72344 9.3499 6.51875 9.29209 6.26406 9.29209H4.98594V10.7608H6.23906C6.35625 10.7608 6.46406 10.7499 6.56875 10.728C6.67344 10.7062 6.76719 10.6687 6.84688 10.6155C6.92656 10.564 6.99062 10.4937 7.03906 10.403C7.08594 10.3124 7.10938 10.1968 7.10938 10.0577C7.10938 9.78115 7.03125 9.58584 6.87656 9.46709Z" fill="#141736"/>
</svg>
