<svg width="16" height="17" viewBox="0 0 16 17" fill="none" xmlns="http://www.w3.org/2000/svg">
<path d="M14.2453 7.01409L14.2406 6.99065C14.2375 6.97503 14.2359 6.96096 14.2312 6.94534C14.2281 6.93597 14.225 6.92815 14.2234 6.91878C14.2187 6.90628 14.2156 6.89222 14.2094 6.87972C14.2062 6.87034 14.2016 6.86253 14.1969 6.85315C14.1906 6.84065 14.1844 6.82972 14.1781 6.81722C14.1734 6.8094 14.1687 6.80003 14.1625 6.79221C14.15 6.77346 14.1359 6.75471 14.1219 6.73597C14.1141 6.72659 14.1047 6.71565 14.0953 6.70628C14.0891 6.69847 14.0812 6.69221 14.0734 6.68596C14.0641 6.67659 14.0531 6.66878 14.0437 6.66097C14.0359 6.65472 14.0281 6.64846 14.0187 6.64222C14.0156 6.64065 14.0125 6.63753 14.0094 6.63597L8.29844 2.8344C8.21032 2.77555 8.10674 2.74414 8.00078 2.74414C7.89482 2.74414 7.79124 2.77555 7.70312 2.8344L1.98907 6.63909C1.98594 6.64065 1.98282 6.64378 1.97969 6.64534C1.97188 6.65159 1.96407 6.65784 1.95469 6.66409C1.94376 6.6719 1.93438 6.68128 1.92501 6.68909C1.91719 6.69534 1.91094 6.70315 1.90313 6.7094C1.89376 6.71878 1.88438 6.72815 1.87657 6.73909C1.86094 6.75628 1.84844 6.77503 1.83594 6.79534C1.83126 6.80315 1.82501 6.81096 1.82032 6.82034C1.81407 6.83128 1.80782 6.84378 1.80157 6.85628C1.79688 6.86409 1.79376 6.87346 1.78907 6.88284C1.78438 6.89534 1.77969 6.9094 1.77501 6.9219C1.77188 6.93128 1.76876 6.93909 1.76719 6.94846C1.76407 6.96253 1.76094 6.97815 1.75782 6.99378L1.75313 7.01722C1.75001 7.04065 1.74844 7.06409 1.74844 7.08753V10.8922C1.74844 10.9157 1.75001 10.9391 1.75313 10.9625L1.75782 10.986L1.76719 11.0313C1.77032 11.0407 1.77188 11.0485 1.77501 11.0578C1.77969 11.0719 1.78438 11.0844 1.78907 11.0969C1.79219 11.1063 1.79688 11.1141 1.80157 11.1235C1.80782 11.136 1.81251 11.1469 1.82032 11.1594C1.82501 11.1672 1.82969 11.1766 1.83594 11.1844C1.84376 11.1953 1.85001 11.2063 1.85938 11.2172L1.87813 11.2407C1.88594 11.25 1.89532 11.261 1.90469 11.2703C1.91094 11.2782 1.91876 11.2844 1.92657 11.2907C1.93594 11.3 1.94688 11.3078 1.95626 11.3157C1.96407 11.3219 1.97188 11.3282 1.98126 11.3344C1.98438 11.336 1.98751 11.3391 1.99063 11.3407L7.70312 15.1453C7.79062 15.2047 7.89531 15.236 8.00156 15.236C8.10469 15.236 8.20937 15.2063 8.3 15.1453L14.0125 11.3407C14.0156 11.3391 14.0187 11.336 14.0219 11.3344C14.0297 11.3282 14.0375 11.3219 14.0469 11.3157C14.0578 11.3078 14.0672 11.2985 14.0766 11.2907C14.0844 11.2844 14.0906 11.2766 14.0984 11.2703C14.1078 11.261 14.1172 11.2516 14.125 11.2407L14.1437 11.2172L14.1672 11.1844C14.1719 11.1766 14.1781 11.1688 14.1828 11.1594C14.1891 11.1469 14.1953 11.136 14.2016 11.1235C14.2062 11.1157 14.2094 11.1063 14.2141 11.0969C14.2187 11.0844 14.2234 11.0703 14.2281 11.0578C14.2312 11.05 14.2344 11.0407 14.2359 11.0313C14.2406 11.0172 14.2422 11.0016 14.2453 10.986L14.25 10.9625C14.2531 10.9391 14.2547 10.9157 14.2547 10.8922V7.0844C14.25 7.06097 14.2484 7.03753 14.2453 7.01409ZM8.5375 4.28284L12.7469 7.08597L10.8672 8.34222L8.53906 6.78597V4.28284H8.5375ZM7.4625 4.28284V6.78597L5.13438 8.34222L3.25469 7.08597L7.4625 4.28284ZM2.82344 8.08909L4.16719 8.98753L2.82344 9.88597V8.08909ZM7.4625 13.6907L3.25469 10.8875L5.13438 9.63128L7.4625 11.1875V13.6907ZM8 10.2563L6.1 8.98753L8 7.71722L9.9 8.98597L8 10.2563ZM8.5375 13.6907V11.1875L10.8656 9.63128L12.7453 10.8875L8.5375 13.6907ZM13.1766 9.88441L11.8328 8.98597L13.1766 8.08753V9.88441Z" fill="#141736"/>
</svg>
