<svg width="16" height="17" viewBox="0 0 16 17" fill="none" xmlns="http://www.w3.org/2000/svg">
<path d="M8 2.49365C4.41563 2.49365 1.5 5.40928 1.5 8.99365C1.5 12.578 4.41563 15.4937 8 15.4937C11.5844 15.4937 14.5 12.578 14.5 8.99365C14.5 5.40928 11.5844 2.49365 8 2.49365ZM12.2984 5.49053C13.0719 6.43584 13.5406 7.63897 13.5516 8.9499C13.3687 8.91084 11.5328 8.53896 9.68594 8.77178C9.64688 8.67646 9.60781 8.58115 9.56719 8.48584C9.45156 8.21553 9.32813 7.94522 9.19844 7.68115C11.25 6.84209 12.1812 5.6499 12.2984 5.49053ZM8 3.4499C9.41094 3.4499 10.7 3.97959 11.6797 4.84834C11.5797 4.99053 10.7437 6.11397 8.77031 6.85459C7.86094 5.18272 6.85313 3.81084 6.69844 3.60459C7.125 3.50146 7.56094 3.4499 8 3.4499ZM5.63906 3.97803C5.78594 4.17803 6.77813 5.55459 7.69688 7.18896C5.1 7.87803 2.8125 7.86865 2.56406 7.86553C2.925 6.14209 4.08594 4.71084 5.63906 3.97803ZM2.44844 9.00146C2.44844 8.94522 2.45 8.8874 2.45156 8.83115C2.69375 8.83584 5.38437 8.87021 8.15781 8.04053C8.31719 8.35147 8.46875 8.66709 8.60781 8.98271C8.53438 9.00303 8.46094 9.0249 8.38906 9.04834C5.525 9.97647 4.00156 12.4999 3.875 12.714C2.98906 11.7296 2.44844 10.428 2.44844 9.00146ZM8 14.553C6.71563 14.553 5.53281 14.1155 4.59219 13.3812C4.69219 13.1765 5.81563 11.0062 8.94687 9.91397L8.98281 9.90146C9.7625 11.9265 10.0844 13.6249 10.1672 14.1124C9.48228 14.4051 8.74484 14.5551 8 14.553ZM11.1016 13.6046C11.0453 13.2671 10.75 11.6421 10.0234 9.64678C11.7641 9.36865 13.2922 9.8249 13.4812 9.88428C13.2344 11.428 12.3484 12.7624 11.1016 13.6046Z" fill="#141736"/>
</svg>
