<svg width="17" height="17" viewBox="0 0 17 17" fill="none" xmlns="http://www.w3.org/2000/svg">
<path d="M2.56201 2.59375H13.946C14.338 2.59375 14.65 2.90575 14.65 3.29775V14.6897C14.65 15.0737 14.338 15.3937 13.946 15.3937H10.682V10.4337H12.346L12.594 8.50575H10.682V7.27375C10.682 6.71375 10.842 6.32975 11.642 6.32975H12.666V4.60175C12.49 4.57775 11.882 4.52975 11.178 4.52975C9.69801 4.52975 8.69001 5.42575 8.69001 7.08175V8.50575H7.01801V10.4337H8.69001V15.3937H2.56201C2.37455 15.3938 2.19465 15.3198 2.06135 15.188C1.92806 15.0562 1.85211 14.8772 1.85001 14.6897V3.29775C1.85001 2.90575 2.17001 2.59375 2.56201 2.59375Z" fill="#141736"/>
</svg>
