<svg width="17" height="17" viewBox="0 0 17 17" fill="none" xmlns="http://www.w3.org/2000/svg">
<path d="M8.11875 2.18579C4.25469 2.18423 1.125 5.31235 1.125 9.17329C1.125 12.2264 3.08281 14.8217 5.80937 15.7749C6.17656 15.867 6.12031 15.6061 6.12031 15.428V14.217C4 14.4655 3.91406 13.0624 3.77187 12.828C3.48437 12.3374 2.80469 12.2124 3.00781 11.978C3.49062 11.7295 3.98281 12.0405 4.55312 12.8827C4.96562 13.4936 5.77031 13.3905 6.17812 13.2889C6.26719 12.9217 6.45781 12.5936 6.72031 12.3389C4.52344 11.9452 3.60781 10.6045 3.60781 9.01079C3.60781 8.23735 3.8625 7.52642 4.3625 6.95298C4.04375 6.00767 4.39219 5.19829 4.43906 5.07798C5.34687 4.99673 6.29062 5.72798 6.36406 5.78579C6.87969 5.64673 7.46875 5.57329 8.12812 5.57329C8.79062 5.57329 9.38125 5.64985 9.90156 5.79048C10.0781 5.6561 10.9531 5.02798 11.7969 5.10454C11.8422 5.22485 12.1828 6.01548 11.8828 6.94829C12.3891 7.52329 12.6469 8.24048 12.6469 9.01548C12.6469 10.6124 11.725 11.9545 9.52187 12.342C9.71058 12.5276 9.86041 12.7489 9.96262 12.9931C10.0648 13.2372 10.1174 13.4993 10.1172 13.7639V15.5217C10.1297 15.6624 10.1172 15.8014 10.3516 15.8014C13.1187 14.8686 15.1109 12.2545 15.1109 9.17485C15.1109 5.31235 11.9797 2.18579 8.11875 2.18579Z" fill="#141736"/>
</svg>
