<svg width="17" height="17" viewBox="0 0 17 17" fill="none" xmlns="http://www.w3.org/2000/svg">
<path d="M14.5297 9.62173L12.8281 3.82798V3.82642C12.7094 3.4686 12.4265 3.2561 12.0734 3.2561C11.7078 3.2561 11.4094 3.46704 11.2969 3.8061L10.1812 7.13423H6.32498L5.20936 3.8061C5.09686 3.46704 4.79842 3.2561 4.4328 3.2561C4.07186 3.2561 3.76873 3.48735 3.67655 3.82798L1.97655 9.62173C1.9078 9.85142 1.9953 10.1124 2.18748 10.2577L7.9453 14.5764C7.98592 14.6327 8.04217 14.6749 8.1078 14.6983L8.24217 14.7983L8.37498 14.6983C8.45155 14.6717 8.51561 14.6249 8.56092 14.5592L14.3172 10.2561C14.5109 10.1124 14.5984 9.85142 14.5297 9.62173ZM11.9953 4.01548C12.0109 3.98735 12.0406 3.98579 12.05 3.98579C12.0672 3.98579 12.089 3.99048 12.1031 4.03267L13.0312 7.15454H10.9453L11.9953 4.01548ZM4.37967 4.0311C4.39373 3.99048 4.41561 3.98579 4.4328 3.98579C4.47498 3.98579 4.47811 3.98735 4.48592 4.01235L5.53748 7.1561H3.47655L4.37967 4.0311ZM2.73123 9.72329L3.17186 8.20298L6.33436 12.4249L2.73123 9.72329ZM3.88592 7.90454H5.79373L7.21248 12.3467L3.88592 7.90454ZM8.26405 13.1186L6.58905 7.90454H9.93748L8.26405 13.1186ZM10.7312 7.90454H12.5984L9.31248 12.292L10.7312 7.90454ZM10.0953 12.4967L13.3344 8.17329L13.7953 9.72329L10.0953 12.4967Z" fill="#141736"/>
</svg>
