<svg width="16" height="17" viewBox="0 0 16 17" fill="none" xmlns="http://www.w3.org/2000/svg">
<path fill-rule="evenodd" clip-rule="evenodd" d="M5.25151 2.3669C5.96242 2.33418 6.18909 2.3269 7.99999 2.3269C9.8109 2.3269 10.0376 2.33478 10.7479 2.3669C11.4582 2.39903 11.943 2.51236 12.3673 2.6766C12.8115 2.84448 13.2145 3.1069 13.5479 3.4463C13.8873 3.77903 14.1491 4.18145 14.3164 4.6263C14.4812 5.05054 14.5939 5.53539 14.6267 6.24448C14.6594 6.9566 14.6667 7.18327 14.6667 8.99357C14.6667 10.8045 14.6588 11.0311 14.6267 11.7421C14.5945 12.4511 14.4812 12.936 14.3164 13.3602C14.1491 13.8051 13.8868 14.2082 13.5479 14.5414C13.2145 14.8808 12.8115 15.1427 12.3673 15.3099C11.943 15.4748 11.4582 15.5875 10.7491 15.6202C10.0376 15.653 9.8109 15.6602 7.99999 15.6602C6.18909 15.6602 5.96242 15.6524 5.25151 15.6202C4.54242 15.5881 4.05757 15.4748 3.63333 15.3099C3.18843 15.1426 2.78534 14.8804 2.45212 14.5414C2.11295 14.2085 1.85049 13.8056 1.68303 13.3608C1.51878 12.9366 1.40606 12.4518 1.37333 11.7427C1.3406 11.0305 1.33333 10.8039 1.33333 8.99357C1.33333 7.18266 1.34121 6.956 1.37333 6.24569C1.40545 5.53539 1.51878 5.05054 1.68303 4.6263C1.85074 4.1815 2.1134 3.77861 2.45272 3.44569C2.78547 3.1066 3.18816 2.84414 3.63272 2.6766C4.05696 2.51236 4.54242 2.39963 5.25151 2.3669ZM10.6939 3.5669C9.9909 3.53478 9.77999 3.52812 7.99999 3.52812C6.21999 3.52812 6.00909 3.53478 5.30606 3.5669C4.65575 3.5966 4.30303 3.70509 4.06787 3.7966C3.75696 3.91781 3.53454 4.06145 3.30121 4.29478C3.08002 4.50997 2.9098 4.77192 2.80303 5.06145C2.71151 5.2966 2.60303 5.64933 2.57333 6.29963C2.54121 7.00266 2.53454 7.21357 2.53454 8.99357C2.53454 10.7736 2.54121 10.9845 2.57333 11.6875C2.60303 12.3378 2.71151 12.6905 2.80303 12.9257C2.90969 13.2148 3.07999 13.4772 3.30121 13.6924C3.51636 13.9136 3.77878 14.0839 4.06787 14.1905C4.30303 14.2821 4.65575 14.3905 5.30606 14.4202C6.00909 14.4524 6.21939 14.459 7.99999 14.459C9.7806 14.459 9.9909 14.4524 10.6939 14.4202C11.3442 14.3905 11.697 14.2821 11.9321 14.1905C12.243 14.0693 12.4654 13.9257 12.6988 13.6924C12.92 13.4772 13.0903 13.2148 13.197 12.9257C13.2885 12.6905 13.397 12.3378 13.4267 11.6875C13.4588 10.9845 13.4654 10.7736 13.4654 8.99357C13.4654 7.21357 13.4588 7.00266 13.4267 6.29963C13.397 5.64933 13.2885 5.2966 13.197 5.06145C13.0758 4.75054 12.9321 4.52812 12.6988 4.29478C12.4836 4.07361 12.2216 3.9034 11.9321 3.7966C11.697 3.70509 11.3442 3.5966 10.6939 3.5669ZM7.14848 11.0487C7.62403 11.2467 8.15356 11.2734 8.64662 11.1243C9.13968 10.9752 9.56569 10.6596 9.85188 10.2313C10.1381 9.80301 10.2667 9.28864 10.2158 8.77606C10.1649 8.26347 9.93757 7.78446 9.57272 7.42084C9.34014 7.18841 9.05891 7.01043 8.74929 6.89972C8.43966 6.78901 8.10935 6.74833 7.78211 6.78061C7.45488 6.81289 7.13888 6.91731 6.85685 7.08638C6.57482 7.25544 6.33378 7.48493 6.15109 7.75833C5.9684 8.03173 5.84859 8.34223 5.80031 8.66749C5.75202 8.99274 5.77645 9.32466 5.87184 9.63934C5.96722 9.95402 6.1312 10.2436 6.35195 10.4873C6.5727 10.731 6.84474 10.9228 7.14848 11.0487ZM5.57696 6.57054C5.89516 6.25234 6.27292 5.99994 6.68866 5.82773C7.1044 5.65552 7.55 5.56689 7.99999 5.56689C8.44999 5.56689 8.89558 5.65552 9.31133 5.82773C9.72707 5.99994 10.1048 6.25234 10.423 6.57054C10.7412 6.88874 10.9936 7.26649 11.1658 7.68224C11.338 8.09798 11.4267 8.54357 11.4267 8.99357C11.4267 9.44357 11.338 9.88916 11.1658 10.3049C10.9936 10.7206 10.7412 11.0984 10.423 11.4166C9.7804 12.0592 8.90881 12.4203 7.99999 12.4203C7.09118 12.4203 6.21959 12.0592 5.57696 11.4166C4.93434 10.774 4.57331 9.90238 4.57331 8.99357C4.57331 8.08476 4.93434 7.21317 5.57696 6.57054ZM12.1867 6.07721C12.2655 6.00282 12.3286 5.91338 12.3723 5.81416C12.416 5.71494 12.4393 5.60798 12.4409 5.49959C12.4424 5.3912 12.4222 5.2836 12.3815 5.18315C12.3407 5.08271 12.2803 4.99146 12.2036 4.91481C12.127 4.83816 12.0357 4.77767 11.9353 4.73691C11.8348 4.69616 11.7272 4.67598 11.6188 4.67756C11.5104 4.67914 11.4035 4.70245 11.3043 4.74611C11.205 4.78978 11.1156 4.8529 11.0412 4.93175C10.8965 5.0851 10.8173 5.2888 10.8204 5.49959C10.8235 5.71038 10.9086 5.91168 11.0577 6.06075C11.2067 6.20982 11.408 6.29492 11.6188 6.29799C11.8296 6.30107 12.0333 6.22187 12.1867 6.07721Z" fill="#141736"/>
</svg>
