<svg width="17" height="17" viewBox="0 0 17 17" fill="none" xmlns="http://www.w3.org/2000/svg">
<path d="M13.875 2.74365H2.375C2.09844 2.74365 1.875 2.96709 1.875 3.24365V14.7437C1.875 15.0202 2.09844 15.2437 2.375 15.2437H13.875C14.1516 15.2437 14.375 15.0202 14.375 14.7437V3.24365C14.375 2.96709 14.1516 2.74365 13.875 2.74365ZM5.58281 13.3952H3.72813V7.42959H5.58281V13.3952ZM4.65625 6.61397C4.44363 6.61397 4.23579 6.55092 4.05901 6.43279C3.88223 6.31467 3.74444 6.14678 3.66308 5.95035C3.58172 5.75392 3.56043 5.53777 3.60191 5.32924C3.64338 5.12071 3.74577 4.92917 3.89611 4.77883C4.04645 4.62848 4.238 4.5261 4.44653 4.48462C4.65506 4.44314 4.8712 4.46443 5.06763 4.54579C5.26407 4.62716 5.43196 4.76494 5.55008 4.94173C5.6682 5.11851 5.73125 5.32635 5.73125 5.53896C5.72969 6.13271 5.24844 6.61397 4.65625 6.61397ZM12.5266 13.3952H10.6734V10.4937C10.6734 9.80147 10.6609 8.9124 9.70938 8.9124C8.74531 8.9124 8.59688 9.66553 8.59688 10.4437V13.3952H6.74531V7.42959H8.52344V8.24521H8.54844C8.79531 7.77646 9.4 7.28115 10.3031 7.28115C12.1813 7.28115 12.5266 8.51709 12.5266 10.1233V13.3952Z" fill="#141736"/>
</svg>
