<svg width="17" height="17" viewBox="0 0 17 17" fill="none" xmlns="http://www.w3.org/2000/svg">
<path d="M11.8293 14.7917V11.1906H13.039V15.9937H2.125V11.1906H3.3305V14.7917H11.8293ZM4.53982 13.5919H10.6221V12.3904H4.53982V13.5919ZM4.68843 10.8632L10.6225 12.0934L10.8769 10.929L4.94533 9.70054L4.68843 10.8632ZM5.45785 8.01979L10.952 10.5667L11.4628 9.46978L5.96951 6.92123L5.45827 8.01136L5.45785 8.01979ZM6.99497 5.32823L11.6458 9.18459L12.4157 8.27207L7.76481 4.41825L6.99922 5.3257L6.99497 5.32823ZM9.99831 2.49365L9.0098 3.22096L12.6365 8.06114L13.625 7.33382L9.99831 2.49365Z" fill="#141736"/>
</svg>
