<svg width="16" height="17" viewBox="0 0 16 17" fill="none" xmlns="http://www.w3.org/2000/svg">
<path fill-rule="evenodd" clip-rule="evenodd" d="M14.6667 8.99357C14.6667 12.6752 11.6817 15.6602 7.99999 15.6602C4.31833 15.6602 1.33333 12.6752 1.33333 8.99357C1.33333 5.3119 4.31833 2.3269 7.99999 2.3269C11.6817 2.3269 14.6667 5.3119 14.6667 8.99357ZM8.23888 7.24857C7.59055 7.51802 6.29444 8.07635 4.35111 8.92302C4.03555 9.04857 3.86999 9.17135 3.85499 9.29135C3.82944 9.49468 4.08388 9.57468 4.42944 9.68301C4.47666 9.69802 4.52555 9.71302 4.57555 9.72968C4.91611 9.84024 5.37388 9.96968 5.61166 9.97468C5.82777 9.97913 6.06888 9.89024 6.33499 9.70801C8.15055 8.4819 9.08777 7.86246 9.14666 7.84913C9.18833 7.83968 9.24611 7.82746 9.28499 7.86246C9.32388 7.8969 9.31999 7.96246 9.31611 7.98024C9.29055 8.08746 8.29388 9.01468 7.77722 9.49468C7.61611 9.64413 7.50222 9.75024 7.47888 9.77468C7.42666 9.82857 7.37333 9.88024 7.32222 9.92968C7.00555 10.2341 6.76888 10.463 7.33555 10.8363C7.60777 11.0158 7.82555 11.1641 8.04277 11.3119C8.27999 11.4736 8.51666 11.6347 8.82333 11.8358C8.90111 11.8869 8.97555 11.9397 9.04833 11.9913C9.32444 12.1886 9.57277 12.3652 9.87944 12.3375C10.0572 12.3208 10.2417 12.1536 10.335 11.6541C10.5555 10.473 10.99 7.91524 11.0905 6.86079C11.0967 6.77325 11.0929 6.68529 11.0794 6.59857C11.0714 6.52853 11.0373 6.46409 10.9839 6.41802C10.9044 6.35301 10.7811 6.33913 10.7255 6.34024C10.475 6.34468 10.0906 6.47857 8.23888 7.24857Z" fill="#141736"/>
</svg>
