<svg width="590" height="375" viewBox="0 0 590 375" fill="none" xmlns="http://www.w3.org/2000/svg">
    <rect y="244.333" width="3.79818" height="3.80224" rx="1" fill="#D9E4F5"/>
    <rect x="10.9199" y="244.333" width="3.79818" height="3.80224" rx="1" fill="#D9E4F5"/>
    <rect x="21.8394" y="244.333" width="3.79818" height="3.80224" rx="1" fill="#D9E4F5"/>
    <rect x="32.7593" y="244.333" width="3.79818" height="3.80224" rx="1" fill="#D9E4F5"/>
    <rect x="43.6792" y="244.333" width="3.79818" height="3.80224" rx="1" fill="#D9E4F5"/>
    <rect x="54.5991" y="244.333" width="3.79818" height="3.80224" rx="1" fill="#D9E4F5"/>
    <rect x="65.5186" y="244.333" width="3.79818" height="3.80224" rx="1" fill="#D9E4F5"/>
    <rect x="76.4385" y="244.333" width="3.79818" height="3.80224" rx="1" fill="#D9E4F5"/>
    <rect x="87.3584" y="244.333" width="3.79818" height="3.80224" rx="1" fill="#D9E4F5"/>
    <rect x="98.2778" y="244.333" width="3.79818" height="3.80224" rx="1" fill="#D9E4F5"/>
    <rect y="255.265" width="3.79818" height="3.80224" rx="1" fill="#D9E4F5"/>
    <rect x="10.9199" y="255.265" width="3.79818" height="3.80224" rx="1" fill="#D9E4F5"/>
    <rect x="21.8394" y="255.265" width="3.79818" height="3.80224" rx="1" fill="#D9E4F5"/>
    <rect x="32.7593" y="255.265" width="3.79818" height="3.80224" rx="1" fill="#D9E4F5"/>
    <rect x="43.6792" y="255.265" width="3.79818" height="3.80224" rx="1" fill="#D9E4F5"/>
    <rect x="54.5991" y="255.265" width="3.79818" height="3.80224" rx="1" fill="#D9E4F5"/>
    <rect x="65.5186" y="255.265" width="3.79818" height="3.80224" rx="1" fill="#D9E4F5"/>
    <rect x="76.4385" y="255.265" width="3.79818" height="3.80224" rx="1" fill="#D9E4F5"/>
    <rect x="87.3584" y="255.265" width="3.79818" height="3.80224" rx="1" fill="#D9E4F5"/>
    <rect x="98.2778" y="255.265" width="3.79818" height="3.80224" rx="1" fill="#D9E4F5"/>
    <rect y="266.196" width="3.79818" height="3.80224" rx="1" fill="#D9E4F5"/>
    <rect x="10.9199" y="266.196" width="3.79818" height="3.80224" rx="1" fill="#D9E4F5"/>
    <rect x="21.8394" y="266.196" width="3.79818" height="3.80224" rx="1" fill="#D9E4F5"/>
    <rect x="32.7593" y="266.196" width="3.79818" height="3.80224" rx="1" fill="#D9E4F5"/>
    <rect x="43.6792" y="266.196" width="3.79818" height="3.80224" rx="1" fill="#D9E4F5"/>
    <rect x="54.5991" y="266.196" width="3.79818" height="3.80224" rx="1" fill="#D9E4F5"/>
    <rect x="65.5186" y="266.196" width="3.79818" height="3.80224" rx="1" fill="#D9E4F5"/>
    <rect x="76.4385" y="266.196" width="3.79818" height="3.80224" rx="1" fill="#D9E4F5"/>
    <rect x="87.3584" y="266.196" width="3.79818" height="3.80224" rx="1" fill="#D9E4F5"/>
    <rect x="98.2778" y="266.196" width="3.79818" height="3.80224" rx="1" fill="#D9E4F5"/>
    <rect y="277.128" width="3.79818" height="3.80224" rx="1" fill="#D9E4F5"/>
    <rect x="10.9199" y="277.128" width="3.79818" height="3.80224" rx="1" fill="#D9E4F5"/>
    <rect x="21.8394" y="277.128" width="3.79818" height="3.80224" rx="1" fill="#D9E4F5"/>
    <rect x="32.7593" y="277.128" width="3.79818" height="3.80224" rx="1" fill="#D9E4F5"/>
    <rect x="43.6792" y="277.128" width="3.79818" height="3.80224" rx="1" fill="#D9E4F5"/>
    <rect x="54.5991" y="277.128" width="3.79818" height="3.80224" rx="1" fill="#D9E4F5"/>
    <rect x="65.5186" y="277.128" width="3.79818" height="3.80224" rx="1" fill="#D9E4F5"/>
    <rect x="76.4385" y="277.128" width="3.79818" height="3.80224" rx="1" fill="#D9E4F5"/>
    <rect x="87.3584" y="277.128" width="3.79818" height="3.80224" rx="1" fill="#D9E4F5"/>
    <rect x="98.2778" y="277.128" width="3.79818" height="3.80224" rx="1" fill="#D9E4F5"/>
    <rect y="288.059" width="3.79818" height="3.80224" rx="1" fill="#D9E4F5"/>
    <rect x="10.9199" y="288.059" width="3.79818" height="3.80224" rx="1" fill="#D9E4F5"/>
    <rect x="21.8394" y="288.059" width="3.79818" height="3.80224" rx="1" fill="#D9E4F5"/>
    <rect x="32.7593" y="288.059" width="3.79818" height="3.80224" rx="1" fill="#D9E4F5"/>
    <rect x="43.6792" y="288.059" width="3.79818" height="3.80224" rx="1" fill="#D9E4F5"/>
    <rect x="54.5991" y="288.059" width="3.79818" height="3.80224" rx="1" fill="#D9E4F5"/>
    <rect x="65.5186" y="288.059" width="3.79818" height="3.80224" rx="1" fill="#D9E4F5"/>
    <rect x="76.4385" y="288.059" width="3.79818" height="3.80224" rx="1" fill="#D9E4F5"/>
    <rect x="87.3584" y="288.059" width="3.79818" height="3.80224" rx="1" fill="#D9E4F5"/>
    <rect x="98.2778" y="288.059" width="3.79818" height="3.80224" rx="1" fill="#D9E4F5"/>
    <rect y="298.991" width="3.79818" height="3.80224" rx="1" fill="#D9E4F5"/>
    <rect x="10.9199" y="298.99" width="3.79818" height="3.80224" rx="1" fill="#D9E4F5"/>
    <rect x="21.8394" y="298.99" width="3.79818" height="3.80224" rx="1" fill="#D9E4F5"/>
    <rect x="32.7593" y="298.99" width="3.79818" height="3.80224" rx="1" fill="#D9E4F5"/>
    <rect x="43.6792" y="298.99" width="3.79818" height="3.80224" rx="1" fill="#D9E4F5"/>
    <rect x="54.5991" y="298.99" width="3.79818" height="3.80224" rx="1" fill="#D9E4F5"/>
    <rect x="65.5186" y="298.99" width="3.79818" height="3.80224" rx="1" fill="#D9E4F5"/>
    <rect x="76.4385" y="298.99" width="3.79818" height="3.80224" rx="1" fill="#D9E4F5"/>
    <rect x="87.3584" y="298.99" width="3.79818" height="3.80224" rx="1" fill="#D9E4F5"/>
    <rect x="98.2778" y="298.99" width="3.79818" height="3.80224" rx="1" fill="#D9E4F5"/>
    <rect y="309.922" width="3.79818" height="3.80224" rx="1" fill="#D9E4F5"/>
    <rect x="10.9199" y="309.922" width="3.79818" height="3.80224" rx="1" fill="#D9E4F5"/>
    <rect x="21.8394" y="309.922" width="3.79818" height="3.80224" rx="1" fill="#D9E4F5"/>
    <rect x="32.7593" y="309.922" width="3.79818" height="3.80224" rx="1" fill="#D9E4F5"/>
    <rect x="43.6792" y="309.922" width="3.79818" height="3.80224" rx="1" fill="#D9E4F5"/>
    <rect x="54.5991" y="309.922" width="3.79818" height="3.80224" rx="1" fill="#D9E4F5"/>
    <rect x="65.5186" y="309.922" width="3.79818" height="3.80224" rx="1" fill="#D9E4F5"/>
    <rect x="76.4385" y="309.922" width="3.79818" height="3.80224" rx="1" fill="#D9E4F5"/>
    <rect x="87.3584" y="309.922" width="3.79818" height="3.80224" rx="1" fill="#D9E4F5"/>
    <rect x="98.2778" y="309.922" width="3.79818" height="3.80224" rx="1" fill="#D9E4F5"/>
    <rect y="320.853" width="3.79818" height="3.80224" rx="1" fill="#D9E4F5"/>
    <rect x="10.9199" y="320.853" width="3.79818" height="3.80224" rx="1" fill="#D9E4F5"/>
    <rect x="21.8394" y="320.853" width="3.79818" height="3.80224" rx="1" fill="#D9E4F5"/>
    <rect x="32.7593" y="320.853" width="3.79818" height="3.80224" rx="1" fill="#D9E4F5"/>
    <rect x="43.6792" y="320.853" width="3.79818" height="3.80224" rx="1" fill="#D9E4F5"/>
    <rect x="54.5991" y="320.853" width="3.79818" height="3.80224" rx="1" fill="#D9E4F5"/>
    <rect x="65.5186" y="320.853" width="3.79818" height="3.80224" rx="1" fill="#D9E4F5"/>
    <rect x="76.4385" y="320.853" width="3.79818" height="3.80224" rx="1" fill="#D9E4F5"/>
    <rect x="87.3584" y="320.853" width="3.79818" height="3.80224" rx="1" fill="#D9E4F5"/>
    <rect x="98.2778" y="320.853" width="3.79818" height="3.80224" rx="1" fill="#D9E4F5"/>
    <rect y="331.785" width="3.79818" height="3.80224" rx="1" fill="#D9E4F5"/>
    <rect x="10.9199" y="331.785" width="3.79818" height="3.80224" rx="1" fill="#D9E4F5"/>
    <rect x="21.8394" y="331.785" width="3.79818" height="3.80224" rx="1" fill="#D9E4F5"/>
    <rect x="32.7593" y="331.785" width="3.79818" height="3.80224" rx="1" fill="#D9E4F5"/>
    <rect x="43.6792" y="331.785" width="3.79818" height="3.80224" rx="1" fill="#D9E4F5"/>
    <rect x="54.5991" y="331.785" width="3.79818" height="3.80224" rx="1" fill="#D9E4F5"/>
    <rect x="65.5186" y="331.785" width="3.79818" height="3.80224" rx="1" fill="#D9E4F5"/>
    <rect x="76.4385" y="331.785" width="3.79818" height="3.80224" rx="1" fill="#D9E4F5"/>
    <rect x="87.3584" y="331.785" width="3.79818" height="3.80224" rx="1" fill="#D9E4F5"/>
    <rect x="98.2778" y="331.785" width="3.79818" height="3.80224" rx="1" fill="#D9E4F5"/>
    <rect y="342.716" width="3.79818" height="3.80224" rx="1" fill="#D9E4F5"/>
    <rect x="10.9199" y="342.716" width="3.79818" height="3.80224" rx="1" fill="#D9E4F5"/>
    <rect x="21.8394" y="342.716" width="3.79818" height="3.80224" rx="1" fill="#D9E4F5"/>
    <rect x="32.7593" y="342.716" width="3.79818" height="3.80224" rx="1" fill="#D9E4F5"/>
    <rect x="43.6792" y="342.716" width="3.79818" height="3.80224" rx="1" fill="#D9E4F5"/>
    <rect x="54.5991" y="342.716" width="3.79818" height="3.80224" rx="1" fill="#D9E4F5"/>
    <rect x="65.5186" y="342.716" width="3.79818" height="3.80224" rx="1" fill="#D9E4F5"/>
    <rect x="76.4385" y="342.716" width="3.79818" height="3.80224" rx="1" fill="#D9E4F5"/>
    <rect x="87.3584" y="342.716" width="3.79818" height="3.80224" rx="1" fill="#D9E4F5"/>
    <rect x="98.2778" y="342.716" width="3.79818" height="3.80224" rx="1" fill="#D9E4F5"/>
    <rect x="486.979" y="0.166748" width="3.79818" height="3.80224" rx="1" fill="#D9E4F5"/>
    <rect x="497.899" y="0.166748" width="3.79818" height="3.80224" rx="1" fill="#D9E4F5"/>
    <rect x="508.819" y="0.166748" width="3.79818" height="3.80224" rx="1" fill="#D9E4F5"/>
    <rect x="519.739" y="0.166748" width="3.79818" height="3.80224" rx="1" fill="#D9E4F5"/>
    <rect x="530.659" y="0.166748" width="3.79818" height="3.80224" rx="1" fill="#D9E4F5"/>
    <rect x="541.579" y="0.166748" width="3.79818" height="3.80224" rx="1" fill="#D9E4F5"/>
    <rect x="552.498" y="0.166748" width="3.79818" height="3.80224" rx="1" fill="#D9E4F5"/>
    <rect x="563.418" y="0.166748" width="3.79818" height="3.80224" rx="1" fill="#D9E4F5"/>
    <rect x="574.338" y="0.166748" width="3.79818" height="3.80224" rx="1" fill="#D9E4F5"/>
    <rect x="585.257" y="0.166748" width="3.79818" height="3.80224" rx="1" fill="#D9E4F5"/>
    <rect x="486.979" y="11.0981" width="3.79818" height="3.80224" rx="1" fill="#D9E4F5"/>
    <rect x="497.899" y="11.0981" width="3.79818" height="3.80224" rx="1" fill="#D9E4F5"/>
    <rect x="508.819" y="11.0981" width="3.79818" height="3.80224" rx="1" fill="#D9E4F5"/>
    <rect x="519.739" y="11.0981" width="3.79818" height="3.80224" rx="1" fill="#D9E4F5"/>
    <rect x="530.659" y="11.0981" width="3.79818" height="3.80224" rx="1" fill="#D9E4F5"/>
    <rect x="541.579" y="11.0981" width="3.79818" height="3.80224" rx="1" fill="#D9E4F5"/>
    <rect x="552.498" y="11.0981" width="3.79818" height="3.80224" rx="1" fill="#D9E4F5"/>
    <rect x="563.418" y="11.0981" width="3.79818" height="3.80224" rx="1" fill="#D9E4F5"/>
    <rect x="574.338" y="11.0981" width="3.79818" height="3.80224" rx="1" fill="#D9E4F5"/>
    <rect x="585.257" y="11.0981" width="3.79818" height="3.80224" rx="1" fill="#D9E4F5"/>
    <rect x="486.979" y="22.0295" width="3.79818" height="3.80224" rx="1" fill="#D9E4F5"/>
    <rect x="497.899" y="22.0295" width="3.79818" height="3.80224" rx="1" fill="#D9E4F5"/>
    <rect x="508.819" y="22.0295" width="3.79818" height="3.80224" rx="1" fill="#D9E4F5"/>
    <rect x="519.739" y="22.0295" width="3.79818" height="3.80224" rx="1" fill="#D9E4F5"/>
    <rect x="530.659" y="22.0295" width="3.79818" height="3.80224" rx="1" fill="#D9E4F5"/>
    <rect x="541.579" y="22.0295" width="3.79818" height="3.80224" rx="1" fill="#D9E4F5"/>
    <rect x="552.498" y="22.0295" width="3.79818" height="3.80224" rx="1" fill="#D9E4F5"/>
    <rect x="563.418" y="22.0295" width="3.79818" height="3.80224" rx="1" fill="#D9E4F5"/>
    <rect x="574.338" y="22.0295" width="3.79818" height="3.80224" rx="1" fill="#D9E4F5"/>
    <rect x="585.257" y="22.0295" width="3.79818" height="3.80224" rx="1" fill="#D9E4F5"/>
    <rect x="486.979" y="32.9611" width="3.79818" height="3.80224" rx="1" fill="#D9E4F5"/>
    <rect x="497.899" y="32.9609" width="3.79818" height="3.80224" rx="1" fill="#D9E4F5"/>
    <rect x="508.819" y="32.9609" width="3.79818" height="3.80224" rx="1" fill="#D9E4F5"/>
    <rect x="519.739" y="32.9609" width="3.79818" height="3.80224" rx="1" fill="#D9E4F5"/>
    <rect x="530.659" y="32.9609" width="3.79818" height="3.80224" rx="1" fill="#D9E4F5"/>
    <rect x="541.579" y="32.9609" width="3.79818" height="3.80224" rx="1" fill="#D9E4F5"/>
    <rect x="552.498" y="32.9609" width="3.79818" height="3.80224" rx="1" fill="#D9E4F5"/>
    <rect x="563.418" y="32.9609" width="3.79818" height="3.80224" rx="1" fill="#D9E4F5"/>
    <rect x="574.338" y="32.9609" width="3.79818" height="3.80224" rx="1" fill="#D9E4F5"/>
    <rect x="585.257" y="32.9609" width="3.79818" height="3.80224" rx="1" fill="#D9E4F5"/>
    <rect x="486.979" y="43.8925" width="3.79818" height="3.80224" rx="1" fill="#D9E4F5"/>
    <rect x="497.899" y="43.8926" width="3.79818" height="3.80224" rx="1" fill="#D9E4F5"/>
    <rect x="508.819" y="43.8926" width="3.79818" height="3.80224" rx="1" fill="#D9E4F5"/>
    <rect x="519.739" y="43.8926" width="3.79818" height="3.80224" rx="1" fill="#D9E4F5"/>
    <rect x="530.659" y="43.8926" width="3.79818" height="3.80224" rx="1" fill="#D9E4F5"/>
    <rect x="541.579" y="43.8926" width="3.79818" height="3.80224" rx="1" fill="#D9E4F5"/>
    <rect x="552.498" y="43.8926" width="3.79818" height="3.80224" rx="1" fill="#D9E4F5"/>
    <rect x="563.418" y="43.8926" width="3.79818" height="3.80224" rx="1" fill="#D9E4F5"/>
    <rect x="574.338" y="43.8926" width="3.79818" height="3.80224" rx="1" fill="#D9E4F5"/>
    <rect x="585.257" y="43.8926" width="3.79818" height="3.80224" rx="1" fill="#D9E4F5"/>
    <rect x="486.979" y="54.8239" width="3.79818" height="3.80224" rx="1" fill="#D9E4F5"/>
    <rect x="497.899" y="54.8237" width="3.79818" height="3.80224" rx="1" fill="#D9E4F5"/>
    <rect x="508.819" y="54.8237" width="3.79818" height="3.80224" rx="1" fill="#D9E4F5"/>
    <rect x="519.739" y="54.8237" width="3.79818" height="3.80224" rx="1" fill="#D9E4F5"/>
    <rect x="530.659" y="54.8237" width="3.79818" height="3.80224" rx="1" fill="#D9E4F5"/>
    <rect x="541.579" y="54.8237" width="3.79818" height="3.80224" rx="1" fill="#D9E4F5"/>
    <rect x="552.498" y="54.8237" width="3.79818" height="3.80224" rx="1" fill="#D9E4F5"/>
    <rect x="563.418" y="54.8237" width="3.79818" height="3.80224" rx="1" fill="#D9E4F5"/>
    <rect x="574.338" y="54.8237" width="3.79818" height="3.80224" rx="1" fill="#D9E4F5"/>
    <rect x="585.257" y="54.8237" width="3.79818" height="3.80224" rx="1" fill="#D9E4F5"/>
    <rect x="486.979" y="65.7552" width="3.79818" height="3.80224" rx="1" fill="#D9E4F5"/>
    <rect x="497.899" y="65.7552" width="3.79818" height="3.80224" rx="1" fill="#D9E4F5"/>
    <rect x="508.819" y="65.7552" width="3.79818" height="3.80224" rx="1" fill="#D9E4F5"/>
    <rect x="519.739" y="65.7552" width="3.79818" height="3.80224" rx="1" fill="#D9E4F5"/>
    <rect x="530.659" y="65.7552" width="3.79818" height="3.80224" rx="1" fill="#D9E4F5"/>
    <rect x="541.579" y="65.7552" width="3.79818" height="3.80224" rx="1" fill="#D9E4F5"/>
    <rect x="552.498" y="65.7552" width="3.79818" height="3.80224" rx="1" fill="#D9E4F5"/>
    <rect x="563.418" y="65.7552" width="3.79818" height="3.80224" rx="1" fill="#D9E4F5"/>
    <rect x="574.338" y="65.7552" width="3.79818" height="3.80224" rx="1" fill="#D9E4F5"/>
    <rect x="585.257" y="65.7552" width="3.79818" height="3.80224" rx="1" fill="#D9E4F5"/>
    <rect x="486.979" y="76.6866" width="3.79818" height="3.80224" rx="1" fill="#D9E4F5"/>
    <rect x="497.899" y="76.6866" width="3.79818" height="3.80224" rx="1" fill="#D9E4F5"/>
    <rect x="508.819" y="76.6866" width="3.79818" height="3.80224" rx="1" fill="#D9E4F5"/>
    <rect x="519.739" y="76.6866" width="3.79818" height="3.80224" rx="1" fill="#D9E4F5"/>
    <rect x="530.659" y="76.6866" width="3.79818" height="3.80224" rx="1" fill="#D9E4F5"/>
    <rect x="541.579" y="76.6866" width="3.79818" height="3.80224" rx="1" fill="#D9E4F5"/>
    <rect x="552.498" y="76.6866" width="3.79818" height="3.80224" rx="1" fill="#D9E4F5"/>
    <rect x="563.418" y="76.6866" width="3.79818" height="3.80224" rx="1" fill="#D9E4F5"/>
    <rect x="574.338" y="76.6866" width="3.79818" height="3.80224" rx="1" fill="#D9E4F5"/>
    <rect x="585.257" y="76.6866" width="3.79818" height="3.80224" rx="1" fill="#D9E4F5"/>
    <rect x="486.979" y="87.6182" width="3.79818" height="3.80224" rx="1" fill="#D9E4F5"/>
    <rect x="497.899" y="87.6183" width="3.79818" height="3.80224" rx="1" fill="#D9E4F5"/>
    <rect x="508.819" y="87.6183" width="3.79818" height="3.80224" rx="1" fill="#D9E4F5"/>
    <rect x="519.739" y="87.6183" width="3.79818" height="3.80224" rx="1" fill="#D9E4F5"/>
    <rect x="530.659" y="87.6183" width="3.79818" height="3.80224" rx="1" fill="#D9E4F5"/>
    <rect x="541.579" y="87.6183" width="3.79818" height="3.80224" rx="1" fill="#D9E4F5"/>
    <rect x="552.498" y="87.6183" width="3.79818" height="3.80224" rx="1" fill="#D9E4F5"/>
    <rect x="563.418" y="87.6183" width="3.79818" height="3.80224" rx="1" fill="#D9E4F5"/>
    <rect x="574.338" y="87.6183" width="3.79818" height="3.80224" rx="1" fill="#D9E4F5"/>
    <rect x="585.257" y="87.6183" width="3.79818" height="3.80224" rx="1" fill="#D9E4F5"/>
    <rect x="486.979" y="98.5496" width="3.79818" height="3.80224" rx="1" fill="#D9E4F5"/>
    <rect x="497.899" y="98.5497" width="3.79818" height="3.80224" rx="1" fill="#D9E4F5"/>
    <rect x="508.819" y="98.5497" width="3.79818" height="3.80224" rx="1" fill="#D9E4F5"/>
    <rect x="519.739" y="98.5497" width="3.79818" height="3.80224" rx="1" fill="#D9E4F5"/>
    <rect x="530.659" y="98.5497" width="3.79818" height="3.80224" rx="1" fill="#D9E4F5"/>
    <rect x="541.579" y="98.5497" width="3.79818" height="3.80224" rx="1" fill="#D9E4F5"/>
    <rect x="552.498" y="98.5497" width="3.79818" height="3.80224" rx="1" fill="#D9E4F5"/>
    <rect x="563.418" y="98.5497" width="3.79818" height="3.80224" rx="1" fill="#D9E4F5"/>
    <rect x="574.338" y="98.5497" width="3.79818" height="3.80224" rx="1" fill="#D9E4F5"/>
    <rect x="585.257" y="98.5497" width="3.79818" height="3.80224" rx="1" fill="#D9E4F5"/>
    <g filter="url(#filter0_d_1435_1)">
        <rect x="41.6221" y="31" width="506.126" height="285" rx="10" fill="white"/>
    </g>
    <defs>
        <filter id="filter0_d_1435_1" x="18.6221" y="31" width="552.126" height="344" filterUnits="userSpaceOnUse" color-interpolation-filters="sRGB">
            <feFlood flood-opacity="0" result="BackgroundImageFix"/>
            <feColorMatrix in="SourceAlpha" type="matrix" values="0 0 0 0 0 0 0 0 0 0 0 0 0 0 0 0 0 0 127 0" result="hardAlpha"/>
            <feMorphology radius="21" operator="erode" in="SourceAlpha" result="effect1_dropShadow_1435_1"/>
            <feOffset dy="36"/>
            <feGaussianBlur stdDeviation="22"/>
            <feColorMatrix type="matrix" values="0 0 0 0 0.596078 0 0 0 0 0.662745 0 0 0 0 0.768627 0 0 0 0.3 0"/>
            <feBlend mode="normal" in2="BackgroundImageFix" result="effect1_dropShadow_1435_1"/>
            <feBlend mode="normal" in="SourceGraphic" in2="effect1_dropShadow_1435_1" result="shape"/>
        </filter>
    </defs>
</svg>
