<svg width="16" height="16" viewBox="0 0 16 16" fill="none" xmlns="http://www.w3.org/2000/svg">
<g clip-path="url(#clip0_3885_159899)">
<mask id="mask0_3885_159899" style="mask-type:alpha" maskUnits="userSpaceOnUse" x="1" y="1" width="14" height="14">
<path fill-rule="evenodd" clip-rule="evenodd" d="M1.33362 1.3335H14.6356V14.6361H1.33362V1.3335Z" fill="white"/>
</mask>
<g mask="url(#mask0_3885_159899)">
<path fill-rule="evenodd" clip-rule="evenodd" d="M5.10095 2.3335C3.42028 2.3335 2.33362 3.48616 2.33362 5.2695V10.7002C2.33362 12.4842 3.42028 13.6362 5.10095 13.6362H10.865C12.5483 13.6362 13.6356 12.4842 13.6356 10.7002V5.2695C13.637 4.36083 13.3596 3.60216 12.8343 3.07616C12.349 2.59016 11.6696 2.3335 10.8683 2.3335H5.10095ZM10.865 14.6362H5.10095C2.84762 14.6362 1.33362 13.0542 1.33362 10.7002V5.2695C1.33362 2.9155 2.84762 1.3335 5.10095 1.3335H10.8683C11.9403 1.3335 12.865 1.6915 13.5416 2.3695C14.249 3.0775 14.637 4.1075 14.6356 5.27016V10.7002C14.6356 13.0542 13.1203 14.6362 10.865 14.6362Z" fill="#141736"/>
</g>
<path fill-rule="evenodd" clip-rule="evenodd" d="M5.90426 5.12646C5.50159 5.12646 5.17426 5.4538 5.17426 5.85713C5.17426 6.2598 5.50159 6.58713 5.90492 6.58713C6.30759 6.58713 6.63559 6.2598 6.63559 5.8578C6.63492 5.45446 6.30692 5.12713 5.90426 5.12646ZM5.90492 7.58713C4.95026 7.58713 4.17426 6.81113 4.17426 5.85713C4.17426 4.90246 4.95026 4.12646 5.90492 4.12646C6.85892 4.12713 7.63492 4.90313 7.63559 5.85646V5.85713C7.63559 6.81113 6.85959 7.58713 5.90492 7.58713Z" fill="#141736"/>
<path fill-rule="evenodd" clip-rule="evenodd" d="M2.49935 13.4076C2.41668 13.4076 2.33268 13.3869 2.25535 13.3436C2.01402 13.2083 1.92935 12.9036 2.06402 12.6629C2.10402 12.5909 3.06068 10.8996 4.11335 10.0329C4.94802 9.34627 5.84668 9.7236 6.57068 10.0283C6.99668 10.2076 7.39935 10.3769 7.78602 10.3769C8.14068 10.3769 8.58535 9.75027 8.97868 9.1976C9.52468 8.42693 10.1447 7.55493 11.0527 7.55493C12.4994 7.55493 13.748 8.8456 14.4194 9.53893L14.4967 9.61893C14.6887 9.81693 14.684 10.1336 14.486 10.3263C14.2894 10.5189 13.9727 10.5143 13.7794 10.3156L13.7007 10.2343C13.1327 9.64693 12.0754 8.55493 11.0527 8.55493C10.6607 8.55493 10.2007 9.2036 9.79335 9.77627C9.23468 10.5629 8.65668 11.3769 7.78602 11.3769C7.19735 11.3769 6.65802 11.1503 6.18268 10.9496C5.42668 10.6309 5.08402 10.5289 4.74868 10.8049C3.83935 11.5543 2.94468 13.1369 2.93602 13.1523C2.84468 13.3156 2.67468 13.4076 2.49935 13.4076Z" fill="#141736"/>
</g>
<defs>
<clipPath id="clip0_3885_159899">
<rect width="16" height="16" fill="white"/>
</clipPath>
</defs>
</svg>
