<svg width="16" height="16" viewBox="0 0 16 16" fill="none" xmlns="http://www.w3.org/2000/svg">
<path d="M8.91517 7.0854C8.42977 6.6002 7.77155 6.32764 7.08523 6.32764C6.39892 6.32764 5.7407 6.6002 5.2553 7.0854L3.42477 8.91533C2.93937 9.40074 2.66667 10.0591 2.66667 10.7456C2.66667 11.432 2.93937 12.0904 3.42477 12.5758C3.91018 13.0612 4.56853 13.3339 5.255 13.3339C5.94147 13.3339 6.59983 13.0612 7.08523 12.5758L8.0002 11.6608" stroke="#141736" stroke-linecap="round" stroke-linejoin="round"/>
<path d="M7.08594 8.91525C7.57134 9.40044 8.22956 9.67301 8.91587 9.67301C9.60219 9.67301 10.2604 9.40044 10.7458 8.91525L12.5763 7.08531C13.0617 6.59991 13.3344 5.94155 13.3344 5.25508C13.3344 4.56861 13.0617 3.91026 12.5763 3.42485C12.0909 2.93945 11.4326 2.66675 10.7461 2.66675C10.0596 2.66675 9.40128 2.93945 8.91587 3.42485L8.0009 4.33982" stroke="#141736" stroke-linecap="round" stroke-linejoin="round"/>
</svg>
