<svg width="16" height="16" viewBox="0 0 16 16" fill="none" xmlns="http://www.w3.org/2000/svg">
<path d="M14.375 11.875H5.25C5.18125 11.875 5.125 11.9312 5.125 12V12.875C5.125 12.9438 5.18125 13 5.25 13H14.375C14.4438 13 14.5 12.9438 14.5 12.875V12C14.5 11.9312 14.4438 11.875 14.375 11.875ZM14.375 3H5.25C5.18125 3 5.125 3.05625 5.125 3.125V4C5.125 4.06875 5.18125 4.125 5.25 4.125H14.375C14.4438 4.125 14.5 4.06875 14.5 4V3.125C14.5 3.05625 14.4438 3 14.375 3ZM14.375 7.4375H5.25C5.18125 7.4375 5.125 7.49375 5.125 7.5625V8.4375C5.125 8.50625 5.18125 8.5625 5.25 8.5625H14.375C14.4438 8.5625 14.5 8.50625 14.5 8.4375V7.5625C14.5 7.49375 14.4438 7.4375 14.375 7.4375ZM3.375 11.125H1.5625C1.52812 11.125 1.5 11.1531 1.5 11.1875V11.7188C1.5 11.7531 1.52812 11.7812 1.5625 11.7812H2.69375V12.1016H2.13594C2.10156 12.1016 2.07344 12.1297 2.07344 12.1641V12.6953C2.07344 12.7297 2.10156 12.7578 2.13594 12.7578H2.69375V13.0938H1.5625C1.52812 13.0938 1.5 13.1219 1.5 13.1562V13.6875C1.5 13.7219 1.52812 13.75 1.5625 13.75H3.375C3.40937 13.75 3.4375 13.7219 3.4375 13.6875V11.1875C3.4375 11.1531 3.40937 11.125 3.375 11.125ZM1.5625 2.9375H2.15625V4.8125C2.15625 4.84687 2.18437 4.875 2.21875 4.875H2.84375C2.87812 4.875 2.90625 4.84687 2.90625 4.8125V2.375C2.90625 2.30625 2.85 2.25 2.78125 2.25H1.5625C1.52812 2.25 1.5 2.27812 1.5 2.3125V2.875C1.5 2.90938 1.52812 2.9375 1.5625 2.9375ZM3.375 6.6875H1.5625C1.52812 6.6875 1.5 6.71562 1.5 6.75V7.3125C1.5 7.34688 1.52812 7.375 1.5625 7.375H2.63125L1.53281 8.58906C1.51209 8.61233 1.50045 8.64228 1.5 8.67344V9.25C1.5 9.28438 1.52812 9.3125 1.5625 9.3125H3.375C3.40937 9.3125 3.4375 9.28438 3.4375 9.25V8.6875C3.4375 8.65312 3.40937 8.625 3.375 8.625H2.30625L3.40469 7.41094C3.42541 7.38767 3.43705 7.35772 3.4375 7.32656V6.75C3.4375 6.71562 3.40937 6.6875 3.375 6.6875Z" fill="#141736"/>
</svg>
