<svg width="16" height="16" viewBox="0 0 16 16" fill="none" xmlns="http://www.w3.org/2000/svg">
<path d="M3.24518 7.00529C3.2003 7.05065 3.14675 7.08668 3.08766 7.11127C3.02858 7.13586 2.96514 7.14853 2.90106 7.14853C2.83698 7.14853 2.77354 7.13586 2.71446 7.11127C2.65537 7.08668 2.60182 7.05065 2.55694 7.00529C2.46559 6.91313 2.4144 6.78908 2.4144 6.65985C2.4144 6.53062 2.46559 6.40657 2.55694 6.31441L6.81412 2.05012C7.77412 1.31094 8.73976 0.956045 9.70118 1.00434C10.9125 1.06594 11.8555 1.52373 12.656 2.27481C13.472 3.04059 14 4.13326 14 5.45763C14 6.474 13.7021 7.36858 13.0732 8.16236L7.07106 14.2942C6.464 14.7877 5.78918 15.0264 5.06635 14.9977C4.14871 14.9599 3.46612 14.6659 2.95859 14.1682C2.36424 13.5865 2 12.8718 2 11.9108C2 11.1464 2.26612 10.4408 2.81529 9.77862L8.09812 4.43006C8.52165 3.98207 8.936 3.71607 9.35953 3.65168C9.64221 3.60752 9.9315 3.6326 10.2022 3.72471C10.4728 3.81683 10.7167 3.97318 10.9125 4.18016C11.288 4.57425 11.4489 5.06564 11.3925 5.62493C11.3536 6.00642 11.1962 6.35781 10.9068 6.6945L6.05035 11.628C6.00577 11.6735 5.95248 11.7098 5.89362 11.7347C5.83475 11.7595 5.77147 11.7726 5.70748 11.773C5.64348 11.7734 5.58005 11.7611 5.52087 11.7369C5.4617 11.7128 5.40797 11.6771 5.36282 11.6322C5.27091 11.5406 5.21896 11.4168 5.21816 11.2876C5.21737 11.1584 5.2678 11.034 5.35859 10.9413L10.1918 6.03302C10.3329 5.86852 10.4071 5.70262 10.4247 5.52623C10.4529 5.24624 10.3852 5.03974 10.2094 4.85565C10.1206 4.76136 10.0098 4.6903 9.8866 4.64878C9.76345 4.60725 9.63186 4.59656 9.50353 4.61765C9.332 4.64355 9.092 4.79825 8.79624 5.11044L3.53529 10.4352C3.15624 10.8937 2.97271 11.3802 2.97271 11.9115C2.97271 12.5792 3.21624 13.0573 3.63765 13.4696C3.97294 13.7986 4.42824 13.9946 5.10588 14.0226C5.58588 14.0415 6.03059 13.884 6.41741 13.5732L12.3447 7.51838C12.8 6.93949 13.0273 6.25841 13.0273 5.45833C13.0273 4.42096 12.62 3.57958 11.9911 2.98879C11.3487 2.38541 10.6146 2.02982 9.65247 1.98082C8.94094 1.94442 8.19482 2.21881 7.45224 2.783L3.24518 7.00599V7.00529Z" fill="black"/>
</svg>
