<svg width="16" height="16" viewBox="0 0 16 16" fill="none" xmlns="http://www.w3.org/2000/svg">
<path d="M14 7.49987H8.978C8.75598 7.44017 8.53295 7.38433 8.309 7.33237C6.905 7.00037 6.111 6.75737 6.111 5.62087C6.0996 5.42467 6.12865 5.22823 6.19634 5.04374C6.26403 4.85924 6.36892 4.69063 6.5045 4.54837C6.9292 4.19912 7.46115 4.00667 8.011 4.00337C9.426 3.96837 10.0785 4.44837 10.612 5.17837L11.4195 4.58837C11.0415 4.04554 10.5262 3.61279 9.92622 3.33432C9.32623 3.05585 8.66307 2.94164 8.0045 3.00337C7.19551 3.00853 6.41509 3.30314 5.8045 3.83387C5.57307 4.06861 5.39219 4.34828 5.273 4.65562C5.15382 4.96297 5.09885 5.29147 5.1115 5.62087C5.08957 5.98131 5.15728 6.34157 5.30857 6.66946C5.45987 6.99734 5.69003 7.28264 5.9785 7.49987H2V8.49987H8.826C9.8095 8.78487 10.3975 9.15587 10.4125 10.1789C10.4288 10.3974 10.3988 10.6169 10.3245 10.823C10.2502 11.0292 10.1334 11.2174 9.9815 11.3754C9.45241 11.7924 8.79507 12.0131 8.1215 11.9999C7.61876 11.9853 7.12591 11.8566 6.68023 11.6235C6.23456 11.3904 5.84773 11.059 5.549 10.6544L4.7825 11.2964C5.17086 11.8139 5.67195 12.2363 6.24778 12.5314C6.82361 12.8266 7.45907 12.9868 8.106 12.9999H8.156C9.0794 13.0105 9.97561 12.6875 10.68 12.0904C10.93 11.8383 11.1244 11.5366 11.2505 11.2048C11.3767 10.873 11.4319 10.5183 11.4125 10.1639C11.4312 9.55749 11.2265 8.96536 10.8375 8.49987H14V7.49987Z" fill="#141736"/>
</svg>
