<svg width="16" height="16" viewBox="0 0 16 16" fill="none" xmlns="http://www.w3.org/2000/svg">
<path d="M2.66667 11.9999H13.3333V12.8695H2.66667V11.9999ZM8.00001 11.1593C7.17489 11.1593 6.38356 10.8387 5.80012 10.2679C5.21667 9.69716 4.88889 8.92304 4.88889 8.11586V3.33325H5.77778V8.11586C5.77778 8.69242 6.01191 9.24536 6.42866 9.65305C6.8454 10.0607 7.41063 10.2898 8.00001 10.2898C8.58938 10.2898 9.15461 10.0607 9.57135 9.65305C9.9881 9.24536 10.2222 8.69242 10.2222 8.11586V3.33325H11.1111V8.11586C11.1111 8.92304 10.7833 9.69716 10.1999 10.2679C9.61645 10.8387 8.82512 11.1593 8.00001 11.1593Z" fill="#141736"/>
</svg>
